<?xml version="1.0" standalone="no"?>
 <!DOCTYPE svg PUBLIC "-//W3C//DTD SVG 1.1//EN" 
 "http://www.w3.org/Graphics/SVG/1.1/DTD/svg11.dtd"> 
<svg xmlns="http://www.w3.org/2000/svg" version="1.1" 
    width="14.986cm" height="12.9692cm" viewBox="0 0 59000 51060 ">
<title>SVG Picture created as benzene_top-brd.svg date 2019/04/16 02:14:41 </title>
  <desc>Picture generated by PCBNEW </desc>
<g style="fill:#000000; fill-opacity:1;stroke:#000000; stroke-opacity:1;
stroke-linecap:round; stroke-linejoin:round; "
 transform="translate(0 0) scale(1 1)">
</g>
<g style="fill:#000000; fill-opacity:0.0; 
stroke:#000000; stroke-width:-0.000393701; stroke-opacity:1; 
stroke-linecap:round; stroke-linejoin:round;">
</g>
<g style="fill:#000000; fill-opacity:0.0; 
stroke:#000000; stroke-width:59.0551; stroke-opacity:1; 
stroke-linecap:round; stroke-linejoin:round;">
<path d="M13726 6529
L13726 27029
" />
<path d="M6976 27529
L13226 27529
" />
<path d="M6476 6529
L6476 27029
" />
<path d="M13226 6029
L6976 6029
" />
<path d="M6976.1 6029.5 A500 500 0.0 0 0 6476.1 6529.5 " />
<path d="M13726.1 6529.5 A500 500 0.0 0 0 13226.1 6029.5 " />
<path d="M13226.1 27529.5 A500 500 0.0 0 0 13726.1 27029.5 " />
<path d="M6476.1 27029.5 A500 500 0.0 0 0 6976.1 27529.5 " />
<circle cx="12840.3" cy="26901.6" r="433.071" /> 
<circle cx="7426.88" cy="26901.6" r="433.071" /> 
<path d="M13976 39529
L13976 6529
" />
<path d="M6976 39529
L13976 39529
" />
<path d="M6976.1 39529.5 A500 500 0.0 0 0 6476.1 40029.5 " />
<circle cx="56889.5" cy="11750" r="1181.1" /> 
<circle cx="16732" cy="7812.99" r="1181.1" /> 
<circle cx="51476.1" cy="35531.5" r="433.071" /> 
<circle cx="51476.1" cy="16781.5" r="433.071" /> 
<circle cx="37976.1" cy="4531.5" r="433.071" /> 
<circle cx="21476.1" cy="12781.5" r="433.071" /> 
<circle cx="30226.1" cy="41281.5" r="433.071" /> 
<circle cx="11613.9" cy="41277.6" r="1181.1" /> 
<circle cx="7976.1" cy="42031.5" r="433.071" /> 
<path d="M36476 39781
L13976 51031
" />
<path d="M58976.1 10281.5 A500 500 0.0 0 0 58476.1 9781.5 " />
<path d="M58476.1 43531.5 A500 500 0.0 0 0 58976.1 43031.5 " />
<path d="M6476.1 50531.5 A500 500 0.0 0 0 6976.1 51031.5 " />
<path d="M14476.1 6031.5 A500 500 0.0 0 0 13976.1 6531.5 " />
<path d="M58476 9781
L51476 9781
" />
<path d="M43976 39781
L36476 39781
" />
<path d="M51476 43531
L43976 39781
" />
<path d="M36476 2281
L51476 9781
" />
<path d="M28976 2281
L21476 6031
" />
<path d="M6476 50531
L6476 40029
" />
<path d="M13976 51031
L6976 51031
" />
<path d="M58476 43531
L51476 43531
" />
<path d="M58976 10281
L58976 43031
" />
<path d="M28976 2281
L36476 2281
" />
<path d="M14476 6029
L21476 6031
" />
<path d="M35476 33281
L35476 38781
" />
<path d="M29976 38781
L35476 38781
" />
<path d="M29976 33281
L29976 38781
" />
<path d="M35476 33281
L29976 33281
" />
<path d="M44976 25779
L44976 31279
" />
<path d="M50476 31279
L44976 31279
" />
<path d="M50476 25779
L50476 31279
" />
<path d="M44976 25779
L50476 25779
" />
<path d="M50476 33279
L50476 38779
" />
<path d="M44976 38779
L50476 38779
" />
<path d="M44976 33279
L44976 38779
" />
<path d="M50476 33279
L44976 33279
" />
<path d="M42976 29529
L42976 35029
" />
<path d="M37476 35029
L42976 35029
" />
<path d="M37476 29529
L37476 35029
" />
<path d="M42976 29529
L37476 29529
" />
<path d="M42976 22029
L42976 27529
" />
<path d="M37476 27529
L42976 27529
" />
<path d="M37476 22029
L37476 27529
" />
<path d="M42976 22029
L37476 22029
" />
<path d="M35476 18281
L35476 23781
" />
<path d="M29976 23781
L35476 23781
" />
<path d="M29976 18281
L29976 23781
" />
<path d="M35476 18281
L29976 18281
" />
<path d="M35476 10781
L35476 16281
" />
<path d="M29976 16281
L35476 16281
" />
<path d="M29976 10781
L29976 16281
" />
<path d="M35476 10781
L29976 10781
" />
<path d="M50476 18281
L50476 23781
" />
<path d="M44976 23781
L50476 23781
" />
<path d="M44976 18281
L44976 23781
" />
<path d="M50476 18281
L44976 18281
" />
<path d="M50476 10781
L50476 16281
" />
<path d="M44976 16281
L50476 16281
" />
<path d="M44976 10781
L44976 16281
" />
<path d="M50476 10781
L44976 10781
" />
<path d="M42976 7031
L42976 12531
" />
<path d="M37476 12531
L42976 12531
" />
<path d="M37476 7031
L37476 12531
" />
<path d="M42976 7031
L37476 7031
" />
<path d="M27976 7031
L27976 12531
" />
<path d="M22476 12531
L27976 12531
" />
<path d="M22476 7031
L22476 12531
" />
<path d="M27976 7031
L22476 7031
" />
<path d="M35476 3281
L35476 8781
" />
<path d="M29976 8781
L35476 8781
" />
<path d="M29976 3281
L29976 8781
" />
<path d="M35476 3281
L29976 3281
" />
<path d="M57976 14531
L57976 20031
" />
<path d="M52476 20031
L57976 20031
" />
<path d="M52476 14531
L52476 20031
" />
<path d="M57976 14531
L52476 14531
" />
<path d="M20476 18281
L20476 23781
" />
<path d="M14976 23781
L20476 23781
" />
<path d="M14976 18281
L14976 23781
" />
<path d="M20476 18281
L14976 18281
" />
<path d="M27976 14531
L27976 20031
" />
<path d="M22476 20031
L27976 20031
" />
<path d="M22476 14531
L22476 20031
" />
<path d="M27976 14531
L22476 14531
" />
<path d="M42976 14531
L42976 20031
" />
<path d="M37476 20031
L42976 20031
" />
<path d="M37476 14531
L37476 20031
" />
<path d="M42976 14531
L37476 14531
" />
<path d="M57976 22017
L57976 27517
" />
<path d="M52476 27517
L57976 27517
" />
<path d="M52476 22017
L52476 27517
" />
<path d="M57976 22017
L52476 22017
" />
<path d="M20476 25781
L20476 31281
" />
<path d="M14976 31281
L20476 31281
" />
<path d="M14976 25781
L14976 31281
" />
<path d="M20476 25781
L14976 25781
" />
<path d="M27976 22031
L27976 27531
" />
<path d="M22476 27531
L27976 27531
" />
<path d="M22476 22031
L22476 27531
" />
<path d="M27976 22031
L22476 22031
" />
<path d="M57976 29531
L57976 35031
" />
<path d="M52476 35031
L57976 35031
" />
<path d="M52476 29531
L52476 35031
" />
<path d="M57976 29531
L52476 29531
" />
<path d="M20476 33281
L20476 38781
" />
<path d="M14976 38781
L20476 38781
" />
<path d="M14976 33281
L14976 38781
" />
<path d="M20476 33281
L14976 33281
" />
<path d="M27976 29531
L27976 35031
" />
<path d="M22476 35031
L27976 35031
" />
<path d="M22476 29531
L22476 35031
" />
<path d="M27976 29531
L22476 29531
" />
<path d="M35476 25781
L35476 31281
" />
<path d="M29976 31281
L35476 31281
" />
<path d="M29976 25781
L29976 31281
" />
<path d="M35476 25781
L29976 25781
" />
<path d="M57976 37029
L57976 42529
" />
<path d="M52476 42529
L57976 42529
" />
<path d="M52476 37029
L52476 42529
" />
<path d="M57976 37029
L52476 37029
" />
<path d="M12976 44531
L12976 50031
" />
<path d="M7476 50031
L12976 50031
" />
<path d="M7476 44531
L7476 50031
" />
<path d="M12976 44531
L7476 44531
" />
<path d="M20476 40781
L20476 46281
" />
<path d="M14976 46281
L20476 46281
" />
<path d="M14976 40781
L14976 46281
" />
<path d="M20476 40781
L14976 40781
" />
<path d="M27976 37031
L27976 42531
" />
<path d="M22476 42531
L27976 42531
" />
<path d="M22476 37031
L22476 42531
" />
<path d="M27976 37031
L22476 37031
" />
<path d="M20476 10781
L20476 16281
" />
<path d="M14976 16281
L20476 16281
" />
<path d="M14976 10781
L14976 16281
" />
<path d="M20476 10781
L14976 10781
" />
</g> 
</svg>
