<?xml version="1.0" standalone="no"?>
 <!DOCTYPE svg PUBLIC "-//W3C//DTD SVG 1.1//EN" 
 "http://www.w3.org/Graphics/SVG/1.1/DTD/svg11.dtd"> 
<svg xmlns="http://www.w3.org/2000/svg" version="1.1" 
    width="14.986cm" height="12.9692cm" viewBox="0 0 59000 51060 ">
<title>SVG Picture created as benzene_bottom-brd.svg date 2019/04/16 02:33:07 </title>
  <desc>Picture generated by PCBNEW </desc>
<g style="fill:#000000; fill-opacity:1;stroke:#000000; stroke-opacity:1;
stroke-linecap:round; stroke-linejoin:round; "
 transform="translate(0 0) scale(1 1)">
</g>
<g style="fill:#000000; fill-opacity:0.0; 
stroke:#000000; stroke-width:-0.000393701; stroke-opacity:1; 
stroke-linecap:round; stroke-linejoin:round;">
</g>
<g style="fill:#000000; fill-opacity:0.0; 
stroke:#000000; stroke-width:59.0551; stroke-opacity:1; 
stroke-linecap:round; stroke-linejoin:round;">
<circle cx="56889.5" cy="11750" r="1181.1" /> 
<circle cx="16732" cy="7812.99" r="1181.1" /> 
<circle cx="51476.1" cy="35531.5" r="433.071" /> 
<circle cx="51476.1" cy="16781.5" r="433.071" /> 
<circle cx="37976.1" cy="4531.5" r="433.071" /> 
<circle cx="21476.1" cy="12781.5" r="433.071" /> 
<circle cx="12840.3" cy="26901.6" r="433.071" /> 
<circle cx="7426.88" cy="26901.6" r="433.071" /> 
<circle cx="30226.1" cy="41281.5" r="433.071" /> 
<circle cx="11613.9" cy="41277.6" r="1181.1" /> 
<circle cx="7976.1" cy="42031.5" r="433.071" /> 
<path d="M36476 39781
L13976 51031
" />
<path d="M58976.1 10281.5 A500 500 0.0 0 0 58476.1 9781.5 " />
<path d="M58476.1 43531.5 A500 500 0.0 0 0 58976.1 43031.5 " />
<path d="M6476.1 50531.5 A500 500 0.0 0 0 6976.1 51031.5 " />
<path d="M6976.1 6031.5 A500 500 0.0 0 0 6476.1 6531.5 " />
<path d="M58476 9781
L51476 9781
" />
<path d="M43976 39781
L36476 39781
" />
<path d="M51476 43531
L43976 39781
" />
<path d="M36476 2281
L51476 9781
" />
<path d="M28976 2281
L21476 6031
" />
<path d="M6476 50531
L6476 6529
" />
<path d="M13976 51031
L6976 51031
" />
<path d="M58476 43531
L51476 43531
" />
<path d="M58976 10281
L58976 43031
" />
<path d="M28976 2281
L36476 2281
" />
<path d="M6976 6029
L21476 6031
" />
</g> 
</svg>
