G04 #@! TF.GenerationSoftware,KiCad,Pcbnew,5.0.2-bee76a0~70~ubuntu18.04.1*
G04 #@! TF.CreationDate,2019-04-11T02:53:24+09:00*
G04 #@! TF.ProjectId,benzene,62656e7a-656e-4652-9e6b-696361645f70,rev?*
G04 #@! TF.SameCoordinates,Original*
G04 #@! TF.FileFunction,Profile,NP*
%FSLAX46Y46*%
G04 Gerber Fmt 4.6, Leading zero omitted, Abs format (unit mm)*
G04 Created by KiCad (PCBNEW 5.0.2-bee76a0~70~ubuntu18.04.1) date 2019年04月11日 02時53分24秒*
%MOMM*%
%LPD*%
G01*
G04 APERTURE LIST*
%ADD10C,0.150000*%
G04 APERTURE END LIST*
D10*
X152400000Y-114300000D02*
X95250000Y-142875000D01*
X208280000Y-38100000D02*
G75*
G02X209550000Y-39370000I0J-1270000D01*
G01*
X209550000Y-122555000D02*
G75*
G02X208280000Y-123825000I-1270000J0D01*
G01*
X77470000Y-142875000D02*
G75*
G02X76200000Y-141605000I0J1270000D01*
G01*
X76200000Y-29845000D02*
G75*
G02X77470000Y-28575000I1270000J0D01*
G01*
X106500000Y-120700000D02*
X106500000Y-116700000D01*
X87450000Y-126225000D02*
X83950000Y-126225000D01*
X106500000Y-116700000D02*
X103000000Y-116700000D01*
X103000000Y-120700000D02*
X106500000Y-120700000D01*
X103000000Y-116700000D02*
X103000000Y-120700000D01*
X141100000Y-97650000D02*
X141100000Y-101650000D01*
X144600000Y-97650000D02*
X141100000Y-97650000D01*
X144600000Y-101650000D02*
X144600000Y-97650000D01*
X141100000Y-101650000D02*
X144600000Y-101650000D01*
X125550000Y-107175000D02*
X122050000Y-107175000D01*
X125550000Y-111175000D02*
X125550000Y-107175000D01*
X122050000Y-111175000D02*
X125550000Y-111175000D01*
X122050000Y-107175000D02*
X122050000Y-111175000D01*
X83950000Y-130225000D02*
X87450000Y-130225000D01*
X83950000Y-126225000D02*
X83950000Y-130225000D01*
X87450000Y-130225000D02*
X87450000Y-126225000D01*
X201750000Y-107175000D02*
X198250000Y-107175000D01*
X182700000Y-97650000D02*
X179200000Y-97650000D01*
X163425377Y-87923363D02*
X159925377Y-87923363D01*
X144600000Y-78600000D02*
X141100000Y-78600000D01*
X125550000Y-88125000D02*
X122050000Y-88125000D01*
X106500000Y-97650000D02*
X103000000Y-97650000D01*
X201750000Y-88125000D02*
X198250000Y-88125000D01*
X182700000Y-78600000D02*
X179200000Y-78600000D01*
X163650000Y-69075000D02*
X160150000Y-69075000D01*
X144600000Y-59550000D02*
X141100000Y-59550000D01*
X125550000Y-69075000D02*
X122050000Y-69075000D01*
X106500000Y-78600000D02*
X103000000Y-78600000D01*
X201750000Y-69075000D02*
X198250000Y-69075000D01*
X182700000Y-59550000D02*
X179200000Y-59550000D01*
X163650000Y-50025000D02*
X160150000Y-50025000D01*
X144600000Y-40500000D02*
X141100000Y-40500000D01*
X125550000Y-50025000D02*
X122050000Y-50025000D01*
X106500000Y-59550000D02*
X103000000Y-59550000D01*
X201750000Y-50025000D02*
X198250000Y-50025000D01*
X182700000Y-40500000D02*
X179200000Y-40500000D01*
X163650000Y-30975000D02*
X160150000Y-30975000D01*
X144600000Y-21450000D02*
X141100000Y-21450000D01*
X125550000Y-30975000D02*
X122050000Y-30975000D01*
X198250000Y-111175000D02*
X201750000Y-111175000D01*
X179200000Y-101650000D02*
X182700000Y-101650000D01*
X159925377Y-91923363D02*
X163425377Y-91923363D01*
X141100000Y-82600000D02*
X144600000Y-82600000D01*
X122050000Y-92125000D02*
X125550000Y-92125000D01*
X103000000Y-101650000D02*
X106500000Y-101650000D01*
X198250000Y-92125000D02*
X201750000Y-92125000D01*
X179200000Y-82600000D02*
X182700000Y-82600000D01*
X160150000Y-73075000D02*
X163650000Y-73075000D01*
X141100000Y-63550000D02*
X144600000Y-63550000D01*
X122050000Y-73075000D02*
X125550000Y-73075000D01*
X103000000Y-82600000D02*
X106500000Y-82600000D01*
X198250000Y-73075000D02*
X201750000Y-73075000D01*
X179200000Y-63550000D02*
X182700000Y-63550000D01*
X160150000Y-54025000D02*
X163650000Y-54025000D01*
X141100000Y-44500000D02*
X144600000Y-44500000D01*
X122050000Y-54025000D02*
X125550000Y-54025000D01*
X103000000Y-63550000D02*
X106500000Y-63550000D01*
X198250000Y-54025000D02*
X201750000Y-54025000D01*
X179200000Y-44500000D02*
X182700000Y-44500000D01*
X160150000Y-34975000D02*
X163650000Y-34975000D01*
X141100000Y-25450000D02*
X144600000Y-25450000D01*
X122050000Y-34975000D02*
X125550000Y-34975000D01*
X198250000Y-107175000D02*
X198250000Y-111175000D01*
X179200000Y-97650000D02*
X179200000Y-101650000D01*
X159925377Y-87923363D02*
X159925377Y-91923363D01*
X141100000Y-78600000D02*
X141100000Y-82600000D01*
X122050000Y-88125000D02*
X122050000Y-92125000D01*
X103000000Y-97650000D02*
X103000000Y-101650000D01*
X198250000Y-88125000D02*
X198250000Y-92125000D01*
X179200000Y-78600000D02*
X179200000Y-82600000D01*
X160150000Y-69075000D02*
X160150000Y-73075000D01*
X141100000Y-59550000D02*
X141100000Y-63550000D01*
X122050000Y-69075000D02*
X122050000Y-73075000D01*
X103000000Y-78600000D02*
X103000000Y-82600000D01*
X198250000Y-69075000D02*
X198250000Y-73075000D01*
X179200000Y-59550000D02*
X179200000Y-63550000D01*
X160150000Y-50025000D02*
X160150000Y-54025000D01*
X141100000Y-40500000D02*
X141100000Y-44500000D01*
X122050000Y-50025000D02*
X122050000Y-54025000D01*
X103000000Y-59550000D02*
X103000000Y-63550000D01*
X198250000Y-50025000D02*
X198250000Y-54025000D01*
X179200000Y-40500000D02*
X179200000Y-44500000D01*
X160150000Y-30975000D02*
X160150000Y-34975000D01*
X141100000Y-21450000D02*
X141100000Y-25450000D01*
X122050000Y-30975000D02*
X122050000Y-34975000D01*
X201750000Y-111175000D02*
X201750000Y-107175000D01*
X182700000Y-101650000D02*
X182700000Y-97650000D01*
X163425377Y-91923363D02*
X163425377Y-87923363D01*
X144600000Y-82600000D02*
X144600000Y-78600000D01*
X125550000Y-92125000D02*
X125550000Y-88125000D01*
X106500000Y-101650000D02*
X106500000Y-97650000D01*
X201750000Y-92125000D02*
X201750000Y-88125000D01*
X182700000Y-82600000D02*
X182700000Y-78600000D01*
X163650000Y-73075000D02*
X163650000Y-69075000D01*
X144600000Y-63550000D02*
X144600000Y-59550000D01*
X125550000Y-73075000D02*
X125550000Y-69075000D01*
X106500000Y-82600000D02*
X106500000Y-78600000D01*
X201750000Y-73075000D02*
X201750000Y-69075000D01*
X182700000Y-63550000D02*
X182700000Y-59550000D01*
X163650000Y-54025000D02*
X163650000Y-50025000D01*
X144600000Y-44500000D02*
X144600000Y-40500000D01*
X125550000Y-54025000D02*
X125550000Y-50025000D01*
X106500000Y-63550000D02*
X106500000Y-59550000D01*
X201750000Y-54025000D02*
X201750000Y-50025000D01*
X182700000Y-44500000D02*
X182700000Y-40500000D01*
X163650000Y-34975000D02*
X163650000Y-30975000D01*
X144600000Y-25450000D02*
X144600000Y-21450000D01*
X125550000Y-34975000D02*
X125550000Y-30975000D01*
X208280000Y-38100000D02*
X190500000Y-38100000D01*
X106500000Y-40500000D02*
X103000000Y-40500000D01*
X106500000Y-44500000D02*
X106500000Y-40500000D01*
X103000000Y-44500000D02*
X106500000Y-44500000D01*
X103000000Y-40500000D02*
X103000000Y-44500000D01*
X171450000Y-114300000D02*
X152400000Y-114300000D01*
X190500000Y-123825000D02*
X171450000Y-114300000D01*
X152400000Y-19050000D02*
X190500000Y-38100000D01*
X133350000Y-19050000D02*
X114300000Y-28575000D01*
X76200000Y-141605000D02*
X76200000Y-29845000D01*
X95250000Y-142875000D02*
X77470000Y-142875000D01*
X208280000Y-123825000D02*
X190500000Y-123825000D01*
X209550000Y-39370000D02*
X209550000Y-122555000D01*
X133350000Y-19050000D02*
X152400000Y-19050000D01*
X77470000Y-28575000D02*
X114300000Y-28575000D01*
M02*
