G04 #@! TF.GenerationSoftware,KiCad,Pcbnew,5.0.2-bee76a0~70~ubuntu18.04.1*
G04 #@! TF.CreationDate,2019-04-11T02:53:24+09:00*
G04 #@! TF.ProjectId,benzene,62656e7a-656e-4652-9e6b-696361645f70,rev?*
G04 #@! TF.SameCoordinates,Original*
G04 #@! TF.FileFunction,Legend,Top*
G04 #@! TF.FilePolarity,Positive*
%FSLAX46Y46*%
G04 Gerber Fmt 4.6, Leading zero omitted, Abs format (unit mm)*
G04 Created by KiCad (PCBNEW 5.0.2-bee76a0~70~ubuntu18.04.1) date 2019年04月11日 02時53分24秒*
%MOMM*%
%LPD*%
G01*
G04 APERTURE LIST*
%ADD10C,0.300000*%
%ADD11C,0.150000*%
%ADD12C,0.010000*%
%ADD13C,0.125000*%
%ADD14R,2.402000X2.102000*%
%ADD15C,3.102000*%
%ADD16C,4.202000*%
%ADD17C,2.002000*%
%ADD18C,5.102000*%
%ADD19R,1.702000X1.102000*%
%ADD20C,6.302000*%
%ADD21C,1.626000*%
%ADD22C,1.499000*%
%ADD23C,2.302000*%
%ADD24R,1.052000X1.402000*%
%ADD25R,1.499000X1.499000*%
%ADD26C,1.302000*%
%ADD27O,2.602000X1.802000*%
%ADD28R,1.245000X0.737000*%
%ADD29C,2.102000*%
G04 APERTURE END LIST*
D10*
G04 #@! TO.C,SW16*
X156125001Y-79994920D02*
X156125000Y-80894919D01*
D11*
X166525000Y-79194920D02*
X166525000Y-80194920D01*
X166525000Y-80194920D02*
X166325000Y-80194920D01*
X166305000Y-80194920D02*
X166305000Y-82444920D01*
X166325000Y-82444920D02*
X166525000Y-82444920D01*
X156025000Y-79894920D02*
X156225000Y-79894920D01*
X156255000Y-79894920D02*
X156255000Y-77654920D01*
X156225000Y-77654920D02*
X156025000Y-77654920D01*
X156025000Y-77294920D02*
X156025000Y-77654920D01*
X156025000Y-80894920D02*
X156025000Y-79894920D01*
X156025000Y-77294920D02*
X159305000Y-77294920D01*
X161525000Y-79194920D02*
X166525000Y-79194920D01*
X166525000Y-82794920D02*
X158125000Y-82794921D01*
X159308682Y-77316391D02*
G75*
G03X161525000Y-79194920I2151318J291471D01*
G01*
X156024999Y-80894920D02*
G75*
G03X158125000Y-82794921I2000001J100000D01*
G01*
X166525000Y-82444920D02*
X166525000Y-82794920D01*
D10*
G04 #@! TO.C,SW15*
X137075001Y-70475000D02*
X137075000Y-71374999D01*
D11*
X147475000Y-69675000D02*
X147475000Y-70675000D01*
X147475000Y-70675000D02*
X147275000Y-70675000D01*
X147255000Y-70675000D02*
X147255000Y-72925000D01*
X147275000Y-72925000D02*
X147475000Y-72925000D01*
X136975000Y-70375000D02*
X137175000Y-70375000D01*
X137205000Y-70375000D02*
X137205000Y-68135000D01*
X137175000Y-68135000D02*
X136975000Y-68135000D01*
X136975000Y-67775000D02*
X136975000Y-68135000D01*
X136975000Y-71375000D02*
X136975000Y-70375000D01*
X136975000Y-67775000D02*
X140255000Y-67775000D01*
X142475000Y-69675000D02*
X147475000Y-69675000D01*
X147475000Y-73275000D02*
X139075000Y-73275001D01*
X140258682Y-67796471D02*
G75*
G03X142475000Y-69675000I2151318J291471D01*
G01*
X136974999Y-71375000D02*
G75*
G03X139075000Y-73275001I2000001J100000D01*
G01*
X147475000Y-72925000D02*
X147475000Y-73275000D01*
D10*
G04 #@! TO.C,SW9*
X137075001Y-51425000D02*
X137075000Y-52324999D01*
D11*
X147475000Y-50625000D02*
X147475000Y-51625000D01*
X147475000Y-51625000D02*
X147275000Y-51625000D01*
X147255000Y-51625000D02*
X147255000Y-53875000D01*
X147275000Y-53875000D02*
X147475000Y-53875000D01*
X136975000Y-51325000D02*
X137175000Y-51325000D01*
X137205000Y-51325000D02*
X137205000Y-49085000D01*
X137175000Y-49085000D02*
X136975000Y-49085000D01*
X136975000Y-48725000D02*
X136975000Y-49085000D01*
X136975000Y-52325000D02*
X136975000Y-51325000D01*
X136975000Y-48725000D02*
X140255000Y-48725000D01*
X142475000Y-50625000D02*
X147475000Y-50625000D01*
X147475000Y-54225000D02*
X139075000Y-54225001D01*
X140258682Y-48746471D02*
G75*
G03X142475000Y-50625000I2151318J291471D01*
G01*
X136974999Y-52325000D02*
G75*
G03X139075000Y-54225001I2000001J100000D01*
G01*
X147475000Y-53875000D02*
X147475000Y-54225000D01*
D10*
G04 #@! TO.C,L28*
X146272000Y-101260000D02*
X146272000Y-99810000D01*
X146272000Y-99810000D02*
X144222000Y-99810000D01*
X144222000Y-99810000D02*
X144222000Y-101260000D01*
X144222000Y-101260000D02*
X146272000Y-101260000D01*
G04 #@! TO.C,SW11*
X175175001Y-70475000D02*
X175175000Y-71374999D01*
D11*
X185575000Y-69675000D02*
X185575000Y-70675000D01*
X185575000Y-70675000D02*
X185375000Y-70675000D01*
X185355000Y-70675000D02*
X185355000Y-72925000D01*
X185375000Y-72925000D02*
X185575000Y-72925000D01*
X175075000Y-70375000D02*
X175275000Y-70375000D01*
X175305000Y-70375000D02*
X175305000Y-68135000D01*
X175275000Y-68135000D02*
X175075000Y-68135000D01*
X175075000Y-67775000D02*
X175075000Y-68135000D01*
X175075000Y-71375000D02*
X175075000Y-70375000D01*
X175075000Y-67775000D02*
X178355000Y-67775000D01*
X180575000Y-69675000D02*
X185575000Y-69675000D01*
X185575000Y-73275000D02*
X177175000Y-73275001D01*
X178358682Y-67796471D02*
G75*
G03X180575000Y-69675000I2151318J291471D01*
G01*
X175074999Y-71375000D02*
G75*
G03X177175000Y-73275001I2000001J100000D01*
G01*
X185575000Y-72925000D02*
X185575000Y-73275000D01*
D10*
G04 #@! TO.C,SW28*
X137075001Y-108575000D02*
X137075000Y-109474999D01*
D11*
X147475000Y-107775000D02*
X147475000Y-108775000D01*
X147475000Y-108775000D02*
X147275000Y-108775000D01*
X147255000Y-108775000D02*
X147255000Y-111025000D01*
X147275000Y-111025000D02*
X147475000Y-111025000D01*
X136975000Y-108475000D02*
X137175000Y-108475000D01*
X137205000Y-108475000D02*
X137205000Y-106235000D01*
X137175000Y-106235000D02*
X136975000Y-106235000D01*
X136975000Y-105875000D02*
X136975000Y-106235000D01*
X136975000Y-109475000D02*
X136975000Y-108475000D01*
X136975000Y-105875000D02*
X140255000Y-105875000D01*
X142475000Y-107775000D02*
X147475000Y-107775000D01*
X147475000Y-111375000D02*
X139075000Y-111375001D01*
X140258682Y-105896471D02*
G75*
G03X142475000Y-107775000I2151318J291471D01*
G01*
X136974999Y-109475000D02*
G75*
G03X139075000Y-111375001I2000001J100000D01*
G01*
X147475000Y-111025000D02*
X147475000Y-111375000D01*
G04 #@! TO.C,SW17*
X185575000Y-91969920D02*
X185575000Y-92319920D01*
X175075000Y-90419919D02*
G75*
G03X177174999Y-92319920I2000000J99999D01*
G01*
X178358682Y-86841391D02*
G75*
G03X180575000Y-88719920I2151318J291471D01*
G01*
X185575000Y-92319920D02*
X177174999Y-92319920D01*
X180575000Y-88719920D02*
X185575000Y-88719920D01*
X175075000Y-86819920D02*
X178355000Y-86819920D01*
X175075000Y-90419920D02*
X175075000Y-89419920D01*
X175075000Y-86819920D02*
X175075000Y-87179920D01*
X175275000Y-87179920D02*
X175075000Y-87179920D01*
X175305000Y-89419920D02*
X175305000Y-87179920D01*
X175075000Y-89419920D02*
X175275000Y-89419920D01*
X185375000Y-91969920D02*
X185575000Y-91969920D01*
X185355000Y-89719920D02*
X185355000Y-91969920D01*
X185575000Y-89719920D02*
X185375000Y-89719920D01*
X185575000Y-88719920D02*
X185575000Y-89719920D01*
D10*
X175175000Y-89519921D02*
X175175000Y-90419920D01*
G04 #@! TO.C,SW5*
X175175001Y-51425000D02*
X175175000Y-52324999D01*
D11*
X185575000Y-50625000D02*
X185575000Y-51625000D01*
X185575000Y-51625000D02*
X185375000Y-51625000D01*
X185355000Y-51625000D02*
X185355000Y-53875000D01*
X185375000Y-53875000D02*
X185575000Y-53875000D01*
X175075000Y-51325000D02*
X175275000Y-51325000D01*
X175305000Y-51325000D02*
X175305000Y-49085000D01*
X175275000Y-49085000D02*
X175075000Y-49085000D01*
X175075000Y-48725000D02*
X175075000Y-49085000D01*
X175075000Y-52325000D02*
X175075000Y-51325000D01*
X175075000Y-48725000D02*
X178355000Y-48725000D01*
X180575000Y-50625000D02*
X185575000Y-50625000D01*
X185575000Y-54225000D02*
X177175000Y-54225001D01*
X178358682Y-48746471D02*
G75*
G03X180575000Y-50625000I2151318J291471D01*
G01*
X175074999Y-52325000D02*
G75*
G03X177175000Y-54225001I2000001J100000D01*
G01*
X185575000Y-53875000D02*
X185575000Y-54225000D01*
D10*
G04 #@! TO.C,SW4*
X156125001Y-41900000D02*
X156125000Y-42799999D01*
D11*
X166525000Y-41100000D02*
X166525000Y-42100000D01*
X166525000Y-42100000D02*
X166325000Y-42100000D01*
X166305000Y-42100000D02*
X166305000Y-44350000D01*
X166325000Y-44350000D02*
X166525000Y-44350000D01*
X156025000Y-41800000D02*
X156225000Y-41800000D01*
X156255000Y-41800000D02*
X156255000Y-39560000D01*
X156225000Y-39560000D02*
X156025000Y-39560000D01*
X156025000Y-39200000D02*
X156025000Y-39560000D01*
X156025000Y-42800000D02*
X156025000Y-41800000D01*
X156025000Y-39200000D02*
X159305000Y-39200000D01*
X161525000Y-41100000D02*
X166525000Y-41100000D01*
X166525000Y-44700000D02*
X158125000Y-44700001D01*
X159308682Y-39221471D02*
G75*
G03X161525000Y-41100000I2151318J291471D01*
G01*
X156024999Y-42800000D02*
G75*
G03X158125000Y-44700001I2000001J100000D01*
G01*
X166525000Y-44350000D02*
X166525000Y-44700000D01*
D10*
G04 #@! TO.C,SW23*
X175175001Y-108570000D02*
X175175000Y-109469999D01*
D11*
X185575000Y-107770000D02*
X185575000Y-108770000D01*
X185575000Y-108770000D02*
X185375000Y-108770000D01*
X185355000Y-108770000D02*
X185355000Y-111020000D01*
X185375000Y-111020000D02*
X185575000Y-111020000D01*
X175075000Y-108470000D02*
X175275000Y-108470000D01*
X175305000Y-108470000D02*
X175305000Y-106230000D01*
X175275000Y-106230000D02*
X175075000Y-106230000D01*
X175075000Y-105870000D02*
X175075000Y-106230000D01*
X175075000Y-109470000D02*
X175075000Y-108470000D01*
X175075000Y-105870000D02*
X178355000Y-105870000D01*
X180575000Y-107770000D02*
X185575000Y-107770000D01*
X185575000Y-111370000D02*
X177175000Y-111370001D01*
X178358682Y-105891471D02*
G75*
G03X180575000Y-107770000I2151318J291471D01*
G01*
X175074999Y-109470000D02*
G75*
G03X177175000Y-111370001I2000001J100000D01*
G01*
X185575000Y-111020000D02*
X185575000Y-111370000D01*
D10*
G04 #@! TO.C,SW2*
X118025001Y-41900000D02*
X118025000Y-42799999D01*
D11*
X128425000Y-41100000D02*
X128425000Y-42100000D01*
X128425000Y-42100000D02*
X128225000Y-42100000D01*
X128205000Y-42100000D02*
X128205000Y-44350000D01*
X128225000Y-44350000D02*
X128425000Y-44350000D01*
X117925000Y-41800000D02*
X118125000Y-41800000D01*
X118155000Y-41800000D02*
X118155000Y-39560000D01*
X118125000Y-39560000D02*
X117925000Y-39560000D01*
X117925000Y-39200000D02*
X117925000Y-39560000D01*
X117925000Y-42800000D02*
X117925000Y-41800000D01*
X117925000Y-39200000D02*
X121205000Y-39200000D01*
X123425000Y-41100000D02*
X128425000Y-41100000D01*
X128425000Y-44700000D02*
X120025000Y-44700001D01*
X121208682Y-39221471D02*
G75*
G03X123425000Y-41100000I2151318J291471D01*
G01*
X117924999Y-42800000D02*
G75*
G03X120025000Y-44700001I2000001J100000D01*
G01*
X128425000Y-44350000D02*
X128425000Y-44700000D01*
D10*
G04 #@! TO.C,SW1*
X98975001Y-51425000D02*
X98975000Y-52324999D01*
D11*
X109375000Y-50625000D02*
X109375000Y-51625000D01*
X109375000Y-51625000D02*
X109175000Y-51625000D01*
X109155000Y-51625000D02*
X109155000Y-53875000D01*
X109175000Y-53875000D02*
X109375000Y-53875000D01*
X98875000Y-51325000D02*
X99075000Y-51325000D01*
X99105000Y-51325000D02*
X99105000Y-49085000D01*
X99075000Y-49085000D02*
X98875000Y-49085000D01*
X98875000Y-48725000D02*
X98875000Y-49085000D01*
X98875000Y-52325000D02*
X98875000Y-51325000D01*
X98875000Y-48725000D02*
X102155000Y-48725000D01*
X104375000Y-50625000D02*
X109375000Y-50625000D01*
X109375000Y-54225000D02*
X100975000Y-54225001D01*
X102158682Y-48746471D02*
G75*
G03X104375000Y-50625000I2151318J291471D01*
G01*
X98874999Y-52325000D02*
G75*
G03X100975000Y-54225001I2000001J100000D01*
G01*
X109375000Y-53875000D02*
X109375000Y-54225000D01*
D10*
G04 #@! TO.C,SW3*
X137075001Y-32375000D02*
X137075000Y-33274999D01*
D11*
X147475000Y-31575000D02*
X147475000Y-32575000D01*
X147475000Y-32575000D02*
X147275000Y-32575000D01*
X147255000Y-32575000D02*
X147255000Y-34825000D01*
X147275000Y-34825000D02*
X147475000Y-34825000D01*
X136975000Y-32275000D02*
X137175000Y-32275000D01*
X137205000Y-32275000D02*
X137205000Y-30035000D01*
X137175000Y-30035000D02*
X136975000Y-30035000D01*
X136975000Y-29675000D02*
X136975000Y-30035000D01*
X136975000Y-33275000D02*
X136975000Y-32275000D01*
X136975000Y-29675000D02*
X140255000Y-29675000D01*
X142475000Y-31575000D02*
X147475000Y-31575000D01*
X147475000Y-35175000D02*
X139075000Y-35175001D01*
X140258682Y-29696471D02*
G75*
G03X142475000Y-31575000I2151318J291471D01*
G01*
X136974999Y-33275000D02*
G75*
G03X139075000Y-35175001I2000001J100000D01*
G01*
X147475000Y-34825000D02*
X147475000Y-35175000D01*
G04 #@! TO.C,SW6*
X204625000Y-63400000D02*
X204625000Y-63750000D01*
X194124999Y-61850000D02*
G75*
G03X196225000Y-63750001I2000001J100000D01*
G01*
X197408682Y-58271471D02*
G75*
G03X199625000Y-60150000I2151318J291471D01*
G01*
X204625000Y-63750000D02*
X196225000Y-63750001D01*
X199625000Y-60150000D02*
X204625000Y-60150000D01*
X194125000Y-58250000D02*
X197405000Y-58250000D01*
X194125000Y-61850000D02*
X194125000Y-60850000D01*
X194125000Y-58250000D02*
X194125000Y-58610000D01*
X194325000Y-58610000D02*
X194125000Y-58610000D01*
X194355000Y-60850000D02*
X194355000Y-58610000D01*
X194125000Y-60850000D02*
X194325000Y-60850000D01*
X204425000Y-63400000D02*
X204625000Y-63400000D01*
X204405000Y-61150000D02*
X204405000Y-63400000D01*
X204625000Y-61150000D02*
X204425000Y-61150000D01*
X204625000Y-60150000D02*
X204625000Y-61150000D01*
D10*
X194225001Y-60950000D02*
X194225000Y-61849999D01*
G04 #@! TO.C,SW7*
X98975001Y-70475000D02*
X98975000Y-71374999D01*
D11*
X109375000Y-69675000D02*
X109375000Y-70675000D01*
X109375000Y-70675000D02*
X109175000Y-70675000D01*
X109155000Y-70675000D02*
X109155000Y-72925000D01*
X109175000Y-72925000D02*
X109375000Y-72925000D01*
X98875000Y-70375000D02*
X99075000Y-70375000D01*
X99105000Y-70375000D02*
X99105000Y-68135000D01*
X99075000Y-68135000D02*
X98875000Y-68135000D01*
X98875000Y-67775000D02*
X98875000Y-68135000D01*
X98875000Y-71375000D02*
X98875000Y-70375000D01*
X98875000Y-67775000D02*
X102155000Y-67775000D01*
X104375000Y-69675000D02*
X109375000Y-69675000D01*
X109375000Y-73275000D02*
X100975000Y-73275001D01*
X102158682Y-67796471D02*
G75*
G03X104375000Y-69675000I2151318J291471D01*
G01*
X98874999Y-71375000D02*
G75*
G03X100975000Y-73275001I2000001J100000D01*
G01*
X109375000Y-72925000D02*
X109375000Y-73275000D01*
D10*
G04 #@! TO.C,SW8*
X118025001Y-60950000D02*
X118025000Y-61849999D01*
D11*
X128425000Y-60150000D02*
X128425000Y-61150000D01*
X128425000Y-61150000D02*
X128225000Y-61150000D01*
X128205000Y-61150000D02*
X128205000Y-63400000D01*
X128225000Y-63400000D02*
X128425000Y-63400000D01*
X117925000Y-60850000D02*
X118125000Y-60850000D01*
X118155000Y-60850000D02*
X118155000Y-58610000D01*
X118125000Y-58610000D02*
X117925000Y-58610000D01*
X117925000Y-58250000D02*
X117925000Y-58610000D01*
X117925000Y-61850000D02*
X117925000Y-60850000D01*
X117925000Y-58250000D02*
X121205000Y-58250000D01*
X123425000Y-60150000D02*
X128425000Y-60150000D01*
X128425000Y-63750000D02*
X120025000Y-63750001D01*
X121208682Y-58271471D02*
G75*
G03X123425000Y-60150000I2151318J291471D01*
G01*
X117924999Y-61850000D02*
G75*
G03X120025000Y-63750001I2000001J100000D01*
G01*
X128425000Y-63400000D02*
X128425000Y-63750000D01*
D10*
G04 #@! TO.C,SW10*
X156125001Y-60950000D02*
X156125000Y-61849999D01*
D11*
X166525000Y-60150000D02*
X166525000Y-61150000D01*
X166525000Y-61150000D02*
X166325000Y-61150000D01*
X166305000Y-61150000D02*
X166305000Y-63400000D01*
X166325000Y-63400000D02*
X166525000Y-63400000D01*
X156025000Y-60850000D02*
X156225000Y-60850000D01*
X156255000Y-60850000D02*
X156255000Y-58610000D01*
X156225000Y-58610000D02*
X156025000Y-58610000D01*
X156025000Y-58250000D02*
X156025000Y-58610000D01*
X156025000Y-61850000D02*
X156025000Y-60850000D01*
X156025000Y-58250000D02*
X159305000Y-58250000D01*
X161525000Y-60150000D02*
X166525000Y-60150000D01*
X166525000Y-63750000D02*
X158125000Y-63750001D01*
X159308682Y-58271471D02*
G75*
G03X161525000Y-60150000I2151318J291471D01*
G01*
X156024999Y-61850000D02*
G75*
G03X158125000Y-63750001I2000001J100000D01*
G01*
X166525000Y-63400000D02*
X166525000Y-63750000D01*
D10*
G04 #@! TO.C,SW12*
X194225001Y-79965000D02*
X194225000Y-80864999D01*
D11*
X204625000Y-79165000D02*
X204625000Y-80165000D01*
X204625000Y-80165000D02*
X204425000Y-80165000D01*
X204405000Y-80165000D02*
X204405000Y-82415000D01*
X204425000Y-82415000D02*
X204625000Y-82415000D01*
X194125000Y-79865000D02*
X194325000Y-79865000D01*
X194355000Y-79865000D02*
X194355000Y-77625000D01*
X194325000Y-77625000D02*
X194125000Y-77625000D01*
X194125000Y-77265000D02*
X194125000Y-77625000D01*
X194125000Y-80865000D02*
X194125000Y-79865000D01*
X194125000Y-77265000D02*
X197405000Y-77265000D01*
X199625000Y-79165000D02*
X204625000Y-79165000D01*
X204625000Y-82765000D02*
X196225000Y-82765001D01*
X197408682Y-77286471D02*
G75*
G03X199625000Y-79165000I2151318J291471D01*
G01*
X194124999Y-80865000D02*
G75*
G03X196225000Y-82765001I2000001J100000D01*
G01*
X204625000Y-82415000D02*
X204625000Y-82765000D01*
D10*
G04 #@! TO.C,SW13*
X98975001Y-89525000D02*
X98975000Y-90424999D01*
D11*
X109375000Y-88725000D02*
X109375000Y-89725000D01*
X109375000Y-89725000D02*
X109175000Y-89725000D01*
X109155000Y-89725000D02*
X109155000Y-91975000D01*
X109175000Y-91975000D02*
X109375000Y-91975000D01*
X98875000Y-89425000D02*
X99075000Y-89425000D01*
X99105000Y-89425000D02*
X99105000Y-87185000D01*
X99075000Y-87185000D02*
X98875000Y-87185000D01*
X98875000Y-86825000D02*
X98875000Y-87185000D01*
X98875000Y-90425000D02*
X98875000Y-89425000D01*
X98875000Y-86825000D02*
X102155000Y-86825000D01*
X104375000Y-88725000D02*
X109375000Y-88725000D01*
X109375000Y-92325000D02*
X100975000Y-92325001D01*
X102158682Y-86846471D02*
G75*
G03X104375000Y-88725000I2151318J291471D01*
G01*
X98874999Y-90425000D02*
G75*
G03X100975000Y-92325001I2000001J100000D01*
G01*
X109375000Y-91975000D02*
X109375000Y-92325000D01*
D10*
G04 #@! TO.C,SW14*
X118025001Y-80000000D02*
X118025000Y-80899999D01*
D11*
X128425000Y-79200000D02*
X128425000Y-80200000D01*
X128425000Y-80200000D02*
X128225000Y-80200000D01*
X128205000Y-80200000D02*
X128205000Y-82450000D01*
X128225000Y-82450000D02*
X128425000Y-82450000D01*
X117925000Y-79900000D02*
X118125000Y-79900000D01*
X118155000Y-79900000D02*
X118155000Y-77660000D01*
X118125000Y-77660000D02*
X117925000Y-77660000D01*
X117925000Y-77300000D02*
X117925000Y-77660000D01*
X117925000Y-80900000D02*
X117925000Y-79900000D01*
X117925000Y-77300000D02*
X121205000Y-77300000D01*
X123425000Y-79200000D02*
X128425000Y-79200000D01*
X128425000Y-82800000D02*
X120025000Y-82800001D01*
X121208682Y-77321471D02*
G75*
G03X123425000Y-79200000I2151318J291471D01*
G01*
X117924999Y-80900000D02*
G75*
G03X120025000Y-82800001I2000001J100000D01*
G01*
X128425000Y-82450000D02*
X128425000Y-82800000D01*
D10*
G04 #@! TO.C,SW18*
X194225001Y-99050000D02*
X194225000Y-99949999D01*
D11*
X204625000Y-98250000D02*
X204625000Y-99250000D01*
X204625000Y-99250000D02*
X204425000Y-99250000D01*
X204405000Y-99250000D02*
X204405000Y-101500000D01*
X204425000Y-101500000D02*
X204625000Y-101500000D01*
X194125000Y-98950000D02*
X194325000Y-98950000D01*
X194355000Y-98950000D02*
X194355000Y-96710000D01*
X194325000Y-96710000D02*
X194125000Y-96710000D01*
X194125000Y-96350000D02*
X194125000Y-96710000D01*
X194125000Y-99950000D02*
X194125000Y-98950000D01*
X194125000Y-96350000D02*
X197405000Y-96350000D01*
X199625000Y-98250000D02*
X204625000Y-98250000D01*
X204625000Y-101850000D02*
X196225000Y-101850001D01*
X197408682Y-96371471D02*
G75*
G03X199625000Y-98250000I2151318J291471D01*
G01*
X194124999Y-99950000D02*
G75*
G03X196225000Y-101850001I2000001J100000D01*
G01*
X204625000Y-101500000D02*
X204625000Y-101850000D01*
D10*
G04 #@! TO.C,SW19*
X98975001Y-108575000D02*
X98975000Y-109474999D01*
D11*
X109375000Y-107775000D02*
X109375000Y-108775000D01*
X109375000Y-108775000D02*
X109175000Y-108775000D01*
X109155000Y-108775000D02*
X109155000Y-111025000D01*
X109175000Y-111025000D02*
X109375000Y-111025000D01*
X98875000Y-108475000D02*
X99075000Y-108475000D01*
X99105000Y-108475000D02*
X99105000Y-106235000D01*
X99075000Y-106235000D02*
X98875000Y-106235000D01*
X98875000Y-105875000D02*
X98875000Y-106235000D01*
X98875000Y-109475000D02*
X98875000Y-108475000D01*
X98875000Y-105875000D02*
X102155000Y-105875000D01*
X104375000Y-107775000D02*
X109375000Y-107775000D01*
X109375000Y-111375000D02*
X100975000Y-111375001D01*
X102158682Y-105896471D02*
G75*
G03X104375000Y-107775000I2151318J291471D01*
G01*
X98874999Y-109475000D02*
G75*
G03X100975000Y-111375001I2000001J100000D01*
G01*
X109375000Y-111025000D02*
X109375000Y-111375000D01*
D10*
G04 #@! TO.C,SW20*
X118025001Y-99050000D02*
X118025000Y-99949999D01*
D11*
X128425000Y-98250000D02*
X128425000Y-99250000D01*
X128425000Y-99250000D02*
X128225000Y-99250000D01*
X128205000Y-99250000D02*
X128205000Y-101500000D01*
X128225000Y-101500000D02*
X128425000Y-101500000D01*
X117925000Y-98950000D02*
X118125000Y-98950000D01*
X118155000Y-98950000D02*
X118155000Y-96710000D01*
X118125000Y-96710000D02*
X117925000Y-96710000D01*
X117925000Y-96350000D02*
X117925000Y-96710000D01*
X117925000Y-99950000D02*
X117925000Y-98950000D01*
X117925000Y-96350000D02*
X121205000Y-96350000D01*
X123425000Y-98250000D02*
X128425000Y-98250000D01*
X128425000Y-101850000D02*
X120025000Y-101850001D01*
X121208682Y-96371471D02*
G75*
G03X123425000Y-98250000I2151318J291471D01*
G01*
X117924999Y-99950000D02*
G75*
G03X120025000Y-101850001I2000001J100000D01*
G01*
X128425000Y-101500000D02*
X128425000Y-101850000D01*
D10*
G04 #@! TO.C,SW21*
X137075001Y-89525000D02*
X137075000Y-90424999D01*
D11*
X147475000Y-88725000D02*
X147475000Y-89725000D01*
X147475000Y-89725000D02*
X147275000Y-89725000D01*
X147255000Y-89725000D02*
X147255000Y-91975000D01*
X147275000Y-91975000D02*
X147475000Y-91975000D01*
X136975000Y-89425000D02*
X137175000Y-89425000D01*
X137205000Y-89425000D02*
X137205000Y-87185000D01*
X137175000Y-87185000D02*
X136975000Y-87185000D01*
X136975000Y-86825000D02*
X136975000Y-87185000D01*
X136975000Y-90425000D02*
X136975000Y-89425000D01*
X136975000Y-86825000D02*
X140255000Y-86825000D01*
X142475000Y-88725000D02*
X147475000Y-88725000D01*
X147475000Y-92325000D02*
X139075000Y-92325001D01*
X140258682Y-86846471D02*
G75*
G03X142475000Y-88725000I2151318J291471D01*
G01*
X136974999Y-90425000D02*
G75*
G03X139075000Y-92325001I2000001J100000D01*
G01*
X147475000Y-91975000D02*
X147475000Y-92325000D01*
D10*
G04 #@! TO.C,SW22*
X156125001Y-99044900D02*
X156125000Y-99944899D01*
D11*
X166525000Y-98244900D02*
X166525000Y-99244900D01*
X166525000Y-99244900D02*
X166325000Y-99244900D01*
X166305000Y-99244900D02*
X166305000Y-101494900D01*
X166325000Y-101494900D02*
X166525000Y-101494900D01*
X156025000Y-98944900D02*
X156225000Y-98944900D01*
X156255000Y-98944900D02*
X156255000Y-96704900D01*
X156225000Y-96704900D02*
X156025000Y-96704900D01*
X156025000Y-96344900D02*
X156025000Y-96704900D01*
X156025000Y-99944900D02*
X156025000Y-98944900D01*
X156025000Y-96344900D02*
X159305000Y-96344900D01*
X161525000Y-98244900D02*
X166525000Y-98244900D01*
X166525000Y-101844900D02*
X158125000Y-101844901D01*
X159308682Y-96366371D02*
G75*
G03X161525000Y-98244900I2151318J291471D01*
G01*
X156024999Y-99944900D02*
G75*
G03X158125000Y-101844901I2000001J100000D01*
G01*
X166525000Y-101494900D02*
X166525000Y-101844900D01*
D10*
G04 #@! TO.C,SW24*
X194225001Y-118095000D02*
X194225000Y-118994999D01*
D11*
X204625000Y-117295000D02*
X204625000Y-118295000D01*
X204625000Y-118295000D02*
X204425000Y-118295000D01*
X204405000Y-118295000D02*
X204405000Y-120545000D01*
X204425000Y-120545000D02*
X204625000Y-120545000D01*
X194125000Y-117995000D02*
X194325000Y-117995000D01*
X194355000Y-117995000D02*
X194355000Y-115755000D01*
X194325000Y-115755000D02*
X194125000Y-115755000D01*
X194125000Y-115395000D02*
X194125000Y-115755000D01*
X194125000Y-118995000D02*
X194125000Y-117995000D01*
X194125000Y-115395000D02*
X197405000Y-115395000D01*
X199625000Y-117295000D02*
X204625000Y-117295000D01*
X204625000Y-120895000D02*
X196225000Y-120895001D01*
X197408682Y-115416471D02*
G75*
G03X199625000Y-117295000I2151318J291471D01*
G01*
X194124999Y-118995000D02*
G75*
G03X196225000Y-120895001I2000001J100000D01*
G01*
X204625000Y-120545000D02*
X204625000Y-120895000D01*
D10*
G04 #@! TO.C,SW25*
X79925001Y-137150000D02*
X79925000Y-138049999D01*
D11*
X90325000Y-136350000D02*
X90325000Y-137350000D01*
X90325000Y-137350000D02*
X90125000Y-137350000D01*
X90105000Y-137350000D02*
X90105000Y-139600000D01*
X90125000Y-139600000D02*
X90325000Y-139600000D01*
X79825000Y-137050000D02*
X80025000Y-137050000D01*
X80055000Y-137050000D02*
X80055000Y-134810000D01*
X80025000Y-134810000D02*
X79825000Y-134810000D01*
X79825000Y-134450000D02*
X79825000Y-134810000D01*
X79825000Y-138050000D02*
X79825000Y-137050000D01*
X79825000Y-134450000D02*
X83105000Y-134450000D01*
X85325000Y-136350000D02*
X90325000Y-136350000D01*
X90325000Y-139950000D02*
X81925000Y-139950001D01*
X83108682Y-134471471D02*
G75*
G03X85325000Y-136350000I2151318J291471D01*
G01*
X79824999Y-138050000D02*
G75*
G03X81925000Y-139950001I2000001J100000D01*
G01*
X90325000Y-139600000D02*
X90325000Y-139950000D01*
D10*
G04 #@! TO.C,SW26*
X98975001Y-127625000D02*
X98975000Y-128524999D01*
D11*
X109375000Y-126825000D02*
X109375000Y-127825000D01*
X109375000Y-127825000D02*
X109175000Y-127825000D01*
X109155000Y-127825000D02*
X109155000Y-130075000D01*
X109175000Y-130075000D02*
X109375000Y-130075000D01*
X98875000Y-127525000D02*
X99075000Y-127525000D01*
X99105000Y-127525000D02*
X99105000Y-125285000D01*
X99075000Y-125285000D02*
X98875000Y-125285000D01*
X98875000Y-124925000D02*
X98875000Y-125285000D01*
X98875000Y-128525000D02*
X98875000Y-127525000D01*
X98875000Y-124925000D02*
X102155000Y-124925000D01*
X104375000Y-126825000D02*
X109375000Y-126825000D01*
X109375000Y-130425000D02*
X100975000Y-130425001D01*
X102158682Y-124946471D02*
G75*
G03X104375000Y-126825000I2151318J291471D01*
G01*
X98874999Y-128525000D02*
G75*
G03X100975000Y-130425001I2000001J100000D01*
G01*
X109375000Y-130075000D02*
X109375000Y-130425000D01*
D10*
G04 #@! TO.C,SW27*
X118025001Y-118100000D02*
X118025000Y-118999999D01*
D11*
X128425000Y-117300000D02*
X128425000Y-118300000D01*
X128425000Y-118300000D02*
X128225000Y-118300000D01*
X128205000Y-118300000D02*
X128205000Y-120550000D01*
X128225000Y-120550000D02*
X128425000Y-120550000D01*
X117925000Y-118000000D02*
X118125000Y-118000000D01*
X118155000Y-118000000D02*
X118155000Y-115760000D01*
X118125000Y-115760000D02*
X117925000Y-115760000D01*
X117925000Y-115400000D02*
X117925000Y-115760000D01*
X117925000Y-119000000D02*
X117925000Y-118000000D01*
X117925000Y-115400000D02*
X121205000Y-115400000D01*
X123425000Y-117300000D02*
X128425000Y-117300000D01*
X128425000Y-120900000D02*
X120025000Y-120900001D01*
X121208682Y-115421471D02*
G75*
G03X123425000Y-117300000I2151318J291471D01*
G01*
X117924999Y-119000000D02*
G75*
G03X120025000Y-120900001I2000001J100000D01*
G01*
X128425000Y-120550000D02*
X128425000Y-120900000D01*
D10*
G04 #@! TO.C,L25*
X89155000Y-128420000D02*
X89155000Y-129870000D01*
X89155000Y-129870000D02*
X87105000Y-129870000D01*
X87105000Y-129870000D02*
X87105000Y-128420000D01*
X87105000Y-128420000D02*
X89155000Y-128420000D01*
G04 #@! TO.C,L26*
X106122000Y-118860000D02*
X108172000Y-118860000D01*
X106122000Y-120310000D02*
X106122000Y-118860000D01*
X108172000Y-120310000D02*
X106122000Y-120310000D01*
X108172000Y-118860000D02*
X108172000Y-120310000D01*
G04 #@! TO.C,L27*
X127222000Y-109335000D02*
X127222000Y-110785000D01*
X127222000Y-110785000D02*
X125172000Y-110785000D01*
X125172000Y-110785000D02*
X125172000Y-109335000D01*
X125172000Y-109335000D02*
X127222000Y-109335000D01*
G04 #@! TO.C,L8*
X125172000Y-52185000D02*
X127222000Y-52185000D01*
X125172000Y-53635000D02*
X125172000Y-52185000D01*
X127222000Y-53635000D02*
X125172000Y-53635000D01*
X127222000Y-52185000D02*
X127222000Y-53635000D01*
G04 #@! TO.C,L20*
X125172000Y-90285000D02*
X127222000Y-90285000D01*
X125172000Y-91735000D02*
X125172000Y-90285000D01*
X127222000Y-91735000D02*
X125172000Y-91735000D01*
X127222000Y-90285000D02*
X127222000Y-91735000D01*
G04 #@! TO.C,L14*
X125172000Y-71235000D02*
X127222000Y-71235000D01*
X125172000Y-72685000D02*
X125172000Y-71235000D01*
X127222000Y-72685000D02*
X125172000Y-72685000D01*
X127222000Y-71235000D02*
X127222000Y-72685000D01*
D11*
G04 #@! TO.C,U1*
X92746400Y-61722000D02*
X92746400Y-31242000D01*
X95286400Y-61722000D02*
X92746400Y-61722000D01*
X95286400Y-31242000D02*
X95286400Y-61722000D01*
X92746400Y-31242000D02*
X95286400Y-31242000D01*
X77526400Y-61722000D02*
X77526400Y-31242000D01*
X80066400Y-61722000D02*
X77526400Y-61722000D01*
X80066400Y-31242000D02*
X80066400Y-61722000D01*
X77526400Y-31242000D02*
X80066400Y-31242000D01*
G04 #@! TO.C,OLED1*
X80645000Y-66675000D02*
X90805000Y-66675000D01*
X80645000Y-64135000D02*
X90805000Y-64135000D01*
X90805000Y-64135000D02*
X90805000Y-66675000D01*
X80645000Y-66675000D02*
X80645000Y-64135000D01*
G04 #@! TO.C,D1*
X114300000Y-52940000D02*
X114800000Y-53840000D01*
X114800000Y-53840000D02*
X113800000Y-53840000D01*
X113800000Y-53840000D02*
X114300000Y-52940000D01*
X114800000Y-52840000D02*
X113800000Y-52840000D01*
X115050000Y-56040000D02*
X115050000Y-50640000D01*
X115050000Y-50640000D02*
X113550000Y-50640000D01*
X113550000Y-50640000D02*
X113550000Y-56040000D01*
X113550000Y-56040000D02*
X115050000Y-56040000D01*
G04 #@! TO.C,D2*
X132600000Y-40800000D02*
X134100000Y-40800000D01*
X132600000Y-35400000D02*
X132600000Y-40800000D01*
X134100000Y-35400000D02*
X132600000Y-35400000D01*
X134100000Y-40800000D02*
X134100000Y-35400000D01*
X133850000Y-37600000D02*
X132850000Y-37600000D01*
X132850000Y-38600000D02*
X133350000Y-37700000D01*
X133850000Y-38600000D02*
X132850000Y-38600000D01*
X133350000Y-37700000D02*
X133850000Y-38600000D01*
G04 #@! TO.C,D3*
X151650000Y-31275000D02*
X153150000Y-31275000D01*
X151650000Y-25875000D02*
X151650000Y-31275000D01*
X153150000Y-25875000D02*
X151650000Y-25875000D01*
X153150000Y-31275000D02*
X153150000Y-25875000D01*
X152900000Y-28075000D02*
X151900000Y-28075000D01*
X151900000Y-29075000D02*
X152400000Y-28175000D01*
X152900000Y-29075000D02*
X151900000Y-29075000D01*
X152400000Y-28175000D02*
X152900000Y-29075000D01*
G04 #@! TO.C,D4*
X171450000Y-37700000D02*
X171950000Y-38600000D01*
X171950000Y-38600000D02*
X170950000Y-38600000D01*
X170950000Y-38600000D02*
X171450000Y-37700000D01*
X171950000Y-37600000D02*
X170950000Y-37600000D01*
X172200000Y-40800000D02*
X172200000Y-35400000D01*
X172200000Y-35400000D02*
X170700000Y-35400000D01*
X170700000Y-35400000D02*
X170700000Y-40800000D01*
X170700000Y-40800000D02*
X172200000Y-40800000D01*
G04 #@! TO.C,D5*
X189865000Y-44050000D02*
X190365000Y-44950000D01*
X190365000Y-44950000D02*
X189365000Y-44950000D01*
X189365000Y-44950000D02*
X189865000Y-44050000D01*
X190365000Y-43950000D02*
X189365000Y-43950000D01*
X190615000Y-47150000D02*
X190615000Y-41750000D01*
X190615000Y-41750000D02*
X189115000Y-41750000D01*
X189115000Y-41750000D02*
X189115000Y-47150000D01*
X189115000Y-47150000D02*
X190615000Y-47150000D01*
G04 #@! TO.C,D6*
X191770000Y-44050000D02*
X192270000Y-44950000D01*
X192270000Y-44950000D02*
X191270000Y-44950000D01*
X191270000Y-44950000D02*
X191770000Y-44050000D01*
X192270000Y-43950000D02*
X191270000Y-43950000D01*
X192520000Y-47150000D02*
X192520000Y-41750000D01*
X192520000Y-41750000D02*
X191020000Y-41750000D01*
X191020000Y-41750000D02*
X191020000Y-47150000D01*
X191020000Y-47150000D02*
X192520000Y-47150000D01*
G04 #@! TO.C,D7*
X113550000Y-69375000D02*
X115050000Y-69375000D01*
X113550000Y-63975000D02*
X113550000Y-69375000D01*
X115050000Y-63975000D02*
X113550000Y-63975000D01*
X115050000Y-69375000D02*
X115050000Y-63975000D01*
X114800000Y-66175000D02*
X113800000Y-66175000D01*
X113800000Y-67175000D02*
X114300000Y-66275000D01*
X114800000Y-67175000D02*
X113800000Y-67175000D01*
X114300000Y-66275000D02*
X114800000Y-67175000D01*
G04 #@! TO.C,D8*
X133350000Y-56750000D02*
X133850000Y-57650000D01*
X133850000Y-57650000D02*
X132850000Y-57650000D01*
X132850000Y-57650000D02*
X133350000Y-56750000D01*
X133850000Y-56650000D02*
X132850000Y-56650000D01*
X134100000Y-59850000D02*
X134100000Y-54450000D01*
X134100000Y-54450000D02*
X132600000Y-54450000D01*
X132600000Y-54450000D02*
X132600000Y-59850000D01*
X132600000Y-59850000D02*
X134100000Y-59850000D01*
G04 #@! TO.C,D9*
X151650000Y-50325000D02*
X153150000Y-50325000D01*
X151650000Y-44925000D02*
X151650000Y-50325000D01*
X153150000Y-44925000D02*
X151650000Y-44925000D01*
X153150000Y-50325000D02*
X153150000Y-44925000D01*
X152900000Y-47125000D02*
X151900000Y-47125000D01*
X151900000Y-48125000D02*
X152400000Y-47225000D01*
X152900000Y-48125000D02*
X151900000Y-48125000D01*
X152400000Y-47225000D02*
X152900000Y-48125000D01*
G04 #@! TO.C,D10*
X171450000Y-56750000D02*
X171950000Y-57650000D01*
X171950000Y-57650000D02*
X170950000Y-57650000D01*
X170950000Y-57650000D02*
X171450000Y-56750000D01*
X171950000Y-56650000D02*
X170950000Y-56650000D01*
X172200000Y-59850000D02*
X172200000Y-54450000D01*
X172200000Y-54450000D02*
X170700000Y-54450000D01*
X170700000Y-54450000D02*
X170700000Y-59850000D01*
X170700000Y-59850000D02*
X172200000Y-59850000D01*
G04 #@! TO.C,D11*
X191020000Y-74455000D02*
X192520000Y-74455000D01*
X191020000Y-69055000D02*
X191020000Y-74455000D01*
X192520000Y-69055000D02*
X191020000Y-69055000D01*
X192520000Y-74455000D02*
X192520000Y-69055000D01*
X192270000Y-71255000D02*
X191270000Y-71255000D01*
X191270000Y-72255000D02*
X191770000Y-71355000D01*
X192270000Y-72255000D02*
X191270000Y-72255000D01*
X191770000Y-71355000D02*
X192270000Y-72255000D01*
G04 #@! TO.C,D12*
X188480000Y-81570000D02*
X189980000Y-81570000D01*
X188480000Y-76170000D02*
X188480000Y-81570000D01*
X189980000Y-76170000D02*
X188480000Y-76170000D01*
X189980000Y-81570000D02*
X189980000Y-76170000D01*
X189730000Y-78370000D02*
X188730000Y-78370000D01*
X188730000Y-79370000D02*
X189230000Y-78470000D01*
X189730000Y-79370000D02*
X188730000Y-79370000D01*
X189230000Y-78470000D02*
X189730000Y-79370000D01*
G04 #@! TO.C,D13*
X114300000Y-85325000D02*
X114800000Y-86225000D01*
X114800000Y-86225000D02*
X113800000Y-86225000D01*
X113800000Y-86225000D02*
X114300000Y-85325000D01*
X114800000Y-85225000D02*
X113800000Y-85225000D01*
X115050000Y-88425000D02*
X115050000Y-83025000D01*
X115050000Y-83025000D02*
X113550000Y-83025000D01*
X113550000Y-83025000D02*
X113550000Y-88425000D01*
X113550000Y-88425000D02*
X115050000Y-88425000D01*
G04 #@! TO.C,D14*
X133350000Y-75800000D02*
X133850000Y-76700000D01*
X133850000Y-76700000D02*
X132850000Y-76700000D01*
X132850000Y-76700000D02*
X133350000Y-75800000D01*
X133850000Y-75700000D02*
X132850000Y-75700000D01*
X134100000Y-78900000D02*
X134100000Y-73500000D01*
X134100000Y-73500000D02*
X132600000Y-73500000D01*
X132600000Y-73500000D02*
X132600000Y-78900000D01*
X132600000Y-78900000D02*
X134100000Y-78900000D01*
G04 #@! TO.C,D15*
X151650000Y-69375000D02*
X153150000Y-69375000D01*
X151650000Y-63975000D02*
X151650000Y-69375000D01*
X153150000Y-63975000D02*
X151650000Y-63975000D01*
X153150000Y-69375000D02*
X153150000Y-63975000D01*
X152900000Y-66175000D02*
X151900000Y-66175000D01*
X151900000Y-67175000D02*
X152400000Y-66275000D01*
X152900000Y-67175000D02*
X151900000Y-67175000D01*
X152400000Y-66275000D02*
X152900000Y-67175000D01*
G04 #@! TO.C,D16*
X170700000Y-78900000D02*
X172200000Y-78900000D01*
X170700000Y-73500000D02*
X170700000Y-78900000D01*
X172200000Y-73500000D02*
X170700000Y-73500000D01*
X172200000Y-78900000D02*
X172200000Y-73500000D01*
X171950000Y-75700000D02*
X170950000Y-75700000D01*
X170950000Y-76700000D02*
X171450000Y-75800000D01*
X171950000Y-76700000D02*
X170950000Y-76700000D01*
X171450000Y-75800000D02*
X171950000Y-76700000D01*
G04 #@! TO.C,D17*
X189230000Y-94215000D02*
X189730000Y-95115000D01*
X189730000Y-95115000D02*
X188730000Y-95115000D01*
X188730000Y-95115000D02*
X189230000Y-94215000D01*
X189730000Y-94115000D02*
X188730000Y-94115000D01*
X189980000Y-97315000D02*
X189980000Y-91915000D01*
X189980000Y-91915000D02*
X188480000Y-91915000D01*
X188480000Y-91915000D02*
X188480000Y-97315000D01*
X188480000Y-97315000D02*
X189980000Y-97315000D01*
G04 #@! TO.C,D18*
X191020000Y-93505000D02*
X192520000Y-93505000D01*
X191020000Y-88105000D02*
X191020000Y-93505000D01*
X192520000Y-88105000D02*
X191020000Y-88105000D01*
X192520000Y-93505000D02*
X192520000Y-88105000D01*
X192270000Y-90305000D02*
X191270000Y-90305000D01*
X191270000Y-91305000D02*
X191770000Y-90405000D01*
X192270000Y-91305000D02*
X191270000Y-91305000D01*
X191770000Y-90405000D02*
X192270000Y-91305000D01*
G04 #@! TO.C,D19*
X114300000Y-104375000D02*
X114800000Y-105275000D01*
X114800000Y-105275000D02*
X113800000Y-105275000D01*
X113800000Y-105275000D02*
X114300000Y-104375000D01*
X114800000Y-104275000D02*
X113800000Y-104275000D01*
X115050000Y-107475000D02*
X115050000Y-102075000D01*
X115050000Y-102075000D02*
X113550000Y-102075000D01*
X113550000Y-102075000D02*
X113550000Y-107475000D01*
X113550000Y-107475000D02*
X115050000Y-107475000D01*
G04 #@! TO.C,D20*
X132600000Y-97950000D02*
X134100000Y-97950000D01*
X132600000Y-92550000D02*
X132600000Y-97950000D01*
X134100000Y-92550000D02*
X132600000Y-92550000D01*
X134100000Y-97950000D02*
X134100000Y-92550000D01*
X133850000Y-94750000D02*
X132850000Y-94750000D01*
X132850000Y-95750000D02*
X133350000Y-94850000D01*
X133850000Y-95750000D02*
X132850000Y-95750000D01*
X133350000Y-94850000D02*
X133850000Y-95750000D01*
G04 #@! TO.C,D21*
X152400000Y-85325000D02*
X152900000Y-86225000D01*
X152900000Y-86225000D02*
X151900000Y-86225000D01*
X151900000Y-86225000D02*
X152400000Y-85325000D01*
X152900000Y-85225000D02*
X151900000Y-85225000D01*
X153150000Y-88425000D02*
X153150000Y-83025000D01*
X153150000Y-83025000D02*
X151650000Y-83025000D01*
X151650000Y-83025000D02*
X151650000Y-88425000D01*
X151650000Y-88425000D02*
X153150000Y-88425000D01*
G04 #@! TO.C,D22*
X170700000Y-97944900D02*
X172200000Y-97944900D01*
X170700000Y-92544900D02*
X170700000Y-97944900D01*
X172200000Y-92544900D02*
X170700000Y-92544900D01*
X172200000Y-97944900D02*
X172200000Y-92544900D01*
X171950000Y-94744900D02*
X170950000Y-94744900D01*
X170950000Y-95744900D02*
X171450000Y-94844900D01*
X171950000Y-95744900D02*
X170950000Y-95744900D01*
X171450000Y-94844900D02*
X171950000Y-95744900D01*
G04 #@! TO.C,D23*
X188608000Y-116435000D02*
X189108000Y-117335000D01*
X189108000Y-117335000D02*
X188108000Y-117335000D01*
X188108000Y-117335000D02*
X188608000Y-116435000D01*
X189108000Y-116335000D02*
X188108000Y-116335000D01*
X189358000Y-119535000D02*
X189358000Y-114135000D01*
X189358000Y-114135000D02*
X187858000Y-114135000D01*
X187858000Y-114135000D02*
X187858000Y-119535000D01*
X187858000Y-119535000D02*
X189358000Y-119535000D01*
G04 #@! TO.C,D24*
X190500000Y-116440000D02*
X191000000Y-117340000D01*
X191000000Y-117340000D02*
X190000000Y-117340000D01*
X190000000Y-117340000D02*
X190500000Y-116440000D01*
X191000000Y-116340000D02*
X190000000Y-116340000D01*
X191250000Y-119540000D02*
X191250000Y-114140000D01*
X191250000Y-114140000D02*
X189750000Y-114140000D01*
X189750000Y-114140000D02*
X189750000Y-119540000D01*
X189750000Y-119540000D02*
X191250000Y-119540000D01*
G04 #@! TO.C,D25*
X94500000Y-136050000D02*
X96000000Y-136050000D01*
X94500000Y-130650000D02*
X94500000Y-136050000D01*
X96000000Y-130650000D02*
X94500000Y-130650000D01*
X96000000Y-136050000D02*
X96000000Y-130650000D01*
X95750000Y-132850000D02*
X94750000Y-132850000D01*
X94750000Y-133850000D02*
X95250000Y-132950000D01*
X95750000Y-133850000D02*
X94750000Y-133850000D01*
X95250000Y-132950000D02*
X95750000Y-133850000D01*
G04 #@! TO.C,D26*
X114300000Y-123425000D02*
X114800000Y-124325000D01*
X114800000Y-124325000D02*
X113800000Y-124325000D01*
X113800000Y-124325000D02*
X114300000Y-123425000D01*
X114800000Y-123325000D02*
X113800000Y-123325000D01*
X115050000Y-126525000D02*
X115050000Y-121125000D01*
X115050000Y-121125000D02*
X113550000Y-121125000D01*
X113550000Y-121125000D02*
X113550000Y-126525000D01*
X113550000Y-126525000D02*
X115050000Y-126525000D01*
G04 #@! TO.C,D27*
X132600000Y-113320000D02*
X134100000Y-113320000D01*
X132600000Y-107920000D02*
X132600000Y-113320000D01*
X134100000Y-107920000D02*
X132600000Y-107920000D01*
X134100000Y-113320000D02*
X134100000Y-107920000D01*
X133850000Y-110120000D02*
X132850000Y-110120000D01*
X132850000Y-111120000D02*
X133350000Y-110220000D01*
X133850000Y-111120000D02*
X132850000Y-111120000D01*
X133350000Y-110220000D02*
X133850000Y-111120000D01*
G04 #@! TO.C,D28*
X152400000Y-104375000D02*
X152900000Y-105275000D01*
X152900000Y-105275000D02*
X151900000Y-105275000D01*
X151900000Y-105275000D02*
X152400000Y-104375000D01*
X152900000Y-104275000D02*
X151900000Y-104275000D01*
X153150000Y-107475000D02*
X153150000Y-102075000D01*
X153150000Y-102075000D02*
X151650000Y-102075000D01*
X151650000Y-102075000D02*
X151650000Y-107475000D01*
X151650000Y-107475000D02*
X153150000Y-107475000D01*
G04 #@! TO.C,J1*
X76250000Y-73485000D02*
X76250000Y-67485000D01*
X76250000Y-67485000D02*
X88250000Y-67485000D01*
X88250000Y-67485000D02*
X88250000Y-73485000D01*
X88250000Y-73485000D02*
X76250000Y-73485000D01*
G04 #@! TO.C,J2*
X88646000Y-61087000D02*
X90424000Y-61087000D01*
X88646000Y-63373000D02*
X88646000Y-61087000D01*
X90424000Y-63373000D02*
X88646000Y-63373000D01*
X90424000Y-61087000D02*
X90424000Y-63373000D01*
G04 #@! TO.C,J4*
X87884000Y-61087000D02*
X87884000Y-63373000D01*
X87884000Y-63373000D02*
X86106000Y-63373000D01*
X86106000Y-63373000D02*
X86106000Y-61087000D01*
X86106000Y-61087000D02*
X87884000Y-61087000D01*
G04 #@! TO.C,J5*
X83566000Y-61087000D02*
X85344000Y-61087000D01*
X83566000Y-63373000D02*
X83566000Y-61087000D01*
X85344000Y-63373000D02*
X83566000Y-63373000D01*
X85344000Y-61087000D02*
X85344000Y-63373000D01*
G04 #@! TO.C,J6*
X82804000Y-61087000D02*
X82804000Y-63373000D01*
X82804000Y-63373000D02*
X81026000Y-63373000D01*
X81026000Y-63373000D02*
X81026000Y-61087000D01*
X81026000Y-61087000D02*
X82804000Y-61087000D01*
D10*
G04 #@! TO.C,L1*
X106122000Y-42660000D02*
X108172000Y-42660000D01*
X106122000Y-44110000D02*
X106122000Y-42660000D01*
X108172000Y-44110000D02*
X106122000Y-44110000D01*
X108172000Y-42660000D02*
X108172000Y-44110000D01*
G04 #@! TO.C,L2*
X127222000Y-33135000D02*
X127222000Y-34585000D01*
X127222000Y-34585000D02*
X125172000Y-34585000D01*
X125172000Y-34585000D02*
X125172000Y-33135000D01*
X125172000Y-33135000D02*
X127222000Y-33135000D01*
G04 #@! TO.C,L3*
X144222000Y-23610000D02*
X146272000Y-23610000D01*
X144222000Y-25060000D02*
X144222000Y-23610000D01*
X146272000Y-25060000D02*
X144222000Y-25060000D01*
X146272000Y-23610000D02*
X146272000Y-25060000D01*
G04 #@! TO.C,L4*
X165322000Y-33135000D02*
X165322000Y-34585000D01*
X165322000Y-34585000D02*
X163272000Y-34585000D01*
X163272000Y-34585000D02*
X163272000Y-33135000D01*
X163272000Y-33135000D02*
X165322000Y-33135000D01*
G04 #@! TO.C,L5*
X184372000Y-42660000D02*
X184372000Y-44110000D01*
X184372000Y-44110000D02*
X182322000Y-44110000D01*
X182322000Y-44110000D02*
X182322000Y-42660000D01*
X182322000Y-42660000D02*
X184372000Y-42660000D01*
G04 #@! TO.C,L6*
X201372000Y-52185000D02*
X203422000Y-52185000D01*
X201372000Y-53635000D02*
X201372000Y-52185000D01*
X203422000Y-53635000D02*
X201372000Y-53635000D01*
X203422000Y-52185000D02*
X203422000Y-53635000D01*
G04 #@! TO.C,L7*
X108172000Y-61710000D02*
X108172000Y-63160000D01*
X108172000Y-63160000D02*
X106122000Y-63160000D01*
X106122000Y-63160000D02*
X106122000Y-61710000D01*
X106122000Y-61710000D02*
X108172000Y-61710000D01*
G04 #@! TO.C,L9*
X146272000Y-42660000D02*
X146272000Y-44110000D01*
X146272000Y-44110000D02*
X144222000Y-44110000D01*
X144222000Y-44110000D02*
X144222000Y-42660000D01*
X144222000Y-42660000D02*
X146272000Y-42660000D01*
G04 #@! TO.C,L10*
X163272000Y-52185000D02*
X165322000Y-52185000D01*
X163272000Y-53635000D02*
X163272000Y-52185000D01*
X165322000Y-53635000D02*
X163272000Y-53635000D01*
X165322000Y-52185000D02*
X165322000Y-53635000D01*
G04 #@! TO.C,L11*
X184372000Y-61710000D02*
X184372000Y-63160000D01*
X184372000Y-63160000D02*
X182322000Y-63160000D01*
X182322000Y-63160000D02*
X182322000Y-61710000D01*
X182322000Y-61710000D02*
X184372000Y-61710000D01*
G04 #@! TO.C,L12*
X201372000Y-71235000D02*
X203422000Y-71235000D01*
X201372000Y-72685000D02*
X201372000Y-71235000D01*
X203422000Y-72685000D02*
X201372000Y-72685000D01*
X203422000Y-71235000D02*
X203422000Y-72685000D01*
G04 #@! TO.C,L13*
X108232000Y-80760000D02*
X108232000Y-82210000D01*
X108232000Y-82210000D02*
X106182000Y-82210000D01*
X106182000Y-82210000D02*
X106182000Y-80760000D01*
X106182000Y-80760000D02*
X108232000Y-80760000D01*
G04 #@! TO.C,L15*
X146272000Y-61710000D02*
X146272000Y-63160000D01*
X146272000Y-63160000D02*
X144222000Y-63160000D01*
X144222000Y-63160000D02*
X144222000Y-61710000D01*
X144222000Y-61710000D02*
X146272000Y-61710000D01*
G04 #@! TO.C,L16*
X165322000Y-71235000D02*
X165322000Y-72685000D01*
X165322000Y-72685000D02*
X163272000Y-72685000D01*
X163272000Y-72685000D02*
X163272000Y-71235000D01*
X163272000Y-71235000D02*
X165322000Y-71235000D01*
G04 #@! TO.C,L17*
X182322000Y-80760000D02*
X184372000Y-80760000D01*
X182322000Y-82210000D02*
X182322000Y-80760000D01*
X184372000Y-82210000D02*
X182322000Y-82210000D01*
X184372000Y-80760000D02*
X184372000Y-82210000D01*
G04 #@! TO.C,L18*
X201372000Y-90285000D02*
X203422000Y-90285000D01*
X201372000Y-91735000D02*
X201372000Y-90285000D01*
X203422000Y-91735000D02*
X201372000Y-91735000D01*
X203422000Y-90285000D02*
X203422000Y-91735000D01*
G04 #@! TO.C,L19*
X108172000Y-99810000D02*
X108172000Y-101260000D01*
X108172000Y-101260000D02*
X106122000Y-101260000D01*
X106122000Y-101260000D02*
X106122000Y-99810000D01*
X106122000Y-99810000D02*
X108172000Y-99810000D01*
G04 #@! TO.C,L21*
X146272000Y-80760000D02*
X146272000Y-82210000D01*
X146272000Y-82210000D02*
X144222000Y-82210000D01*
X144222000Y-82210000D02*
X144222000Y-80760000D01*
X144222000Y-80760000D02*
X146272000Y-80760000D01*
G04 #@! TO.C,L22*
X163047000Y-90083400D02*
X165097000Y-90083400D01*
X163047000Y-91533400D02*
X163047000Y-90083400D01*
X165097000Y-91533400D02*
X163047000Y-91533400D01*
X165097000Y-90083400D02*
X165097000Y-91533400D01*
G04 #@! TO.C,L23*
X184372000Y-99810000D02*
X184372000Y-101260000D01*
X184372000Y-101260000D02*
X182322000Y-101260000D01*
X182322000Y-101260000D02*
X182322000Y-99810000D01*
X182322000Y-99810000D02*
X184372000Y-99810000D01*
G04 #@! TO.C,L24*
X201372000Y-109335000D02*
X203422000Y-109335000D01*
X201372000Y-110785000D02*
X201372000Y-109335000D01*
X203422000Y-110785000D02*
X201372000Y-110785000D01*
X203422000Y-109335000D02*
X203422000Y-110785000D01*
D11*
G04 #@! TO.C,RESET1*
X83720000Y-75720000D02*
X77720000Y-75720000D01*
X77720000Y-75720000D02*
X77720000Y-75970000D01*
X83720000Y-75720000D02*
X83720000Y-75970000D01*
X83720000Y-79220000D02*
X83720000Y-78970000D01*
X83720000Y-79220000D02*
X77720000Y-79220000D01*
X77720000Y-79220000D02*
X77720000Y-78970000D01*
G04 #@! TO.C,J3*
X82804000Y-61087000D02*
X82804000Y-63373000D01*
X82804000Y-63373000D02*
X81026000Y-63373000D01*
X81026000Y-63373000D02*
X81026000Y-61087000D01*
X81026000Y-61087000D02*
X82804000Y-61087000D01*
D12*
G04 #@! TO.C,G2*
G36*
X80142274Y-98131483D02*
X80210105Y-98223632D01*
X80305375Y-98373373D01*
X80432918Y-98587605D01*
X80510894Y-98722085D01*
X80634058Y-98940004D01*
X80739295Y-99134298D01*
X80820288Y-99292622D01*
X80870719Y-99402632D01*
X80884349Y-99451806D01*
X80858811Y-99499451D01*
X80796312Y-99610655D01*
X80702377Y-99775746D01*
X80582535Y-99985050D01*
X80442311Y-100228893D01*
X80287234Y-100497601D01*
X80252448Y-100557753D01*
X79640187Y-101616087D01*
X83965739Y-101637253D01*
X88291292Y-101658420D01*
X87893302Y-102346337D01*
X87495311Y-103034253D01*
X82353157Y-103034253D01*
X81701248Y-103033997D01*
X81073555Y-103033251D01*
X80475195Y-103032045D01*
X79911287Y-103030413D01*
X79386950Y-103028384D01*
X78907302Y-103025992D01*
X78477461Y-103023268D01*
X78102546Y-103020244D01*
X77787675Y-103016951D01*
X77537967Y-103013421D01*
X77358540Y-103009686D01*
X77254512Y-103005777D01*
X77229037Y-103002503D01*
X77362110Y-102768882D01*
X77520098Y-102492635D01*
X77698866Y-102180912D01*
X77894277Y-101840862D01*
X78102195Y-101479636D01*
X78318484Y-101104384D01*
X78539007Y-100722254D01*
X78759628Y-100340398D01*
X78976211Y-99965965D01*
X79184620Y-99606105D01*
X79380718Y-99267968D01*
X79560369Y-98958703D01*
X79719437Y-98685461D01*
X79853785Y-98455392D01*
X79959278Y-98275645D01*
X80031780Y-98153369D01*
X80067152Y-98095716D01*
X80069586Y-98092366D01*
X80097046Y-98090027D01*
X80142274Y-98131483D01*
X80142274Y-98131483D01*
G37*
X80142274Y-98131483D02*
X80210105Y-98223632D01*
X80305375Y-98373373D01*
X80432918Y-98587605D01*
X80510894Y-98722085D01*
X80634058Y-98940004D01*
X80739295Y-99134298D01*
X80820288Y-99292622D01*
X80870719Y-99402632D01*
X80884349Y-99451806D01*
X80858811Y-99499451D01*
X80796312Y-99610655D01*
X80702377Y-99775746D01*
X80582535Y-99985050D01*
X80442311Y-100228893D01*
X80287234Y-100497601D01*
X80252448Y-100557753D01*
X79640187Y-101616087D01*
X83965739Y-101637253D01*
X88291292Y-101658420D01*
X87893302Y-102346337D01*
X87495311Y-103034253D01*
X82353157Y-103034253D01*
X81701248Y-103033997D01*
X81073555Y-103033251D01*
X80475195Y-103032045D01*
X79911287Y-103030413D01*
X79386950Y-103028384D01*
X78907302Y-103025992D01*
X78477461Y-103023268D01*
X78102546Y-103020244D01*
X77787675Y-103016951D01*
X77537967Y-103013421D01*
X77358540Y-103009686D01*
X77254512Y-103005777D01*
X77229037Y-103002503D01*
X77362110Y-102768882D01*
X77520098Y-102492635D01*
X77698866Y-102180912D01*
X77894277Y-101840862D01*
X78102195Y-101479636D01*
X78318484Y-101104384D01*
X78539007Y-100722254D01*
X78759628Y-100340398D01*
X78976211Y-99965965D01*
X79184620Y-99606105D01*
X79380718Y-99267968D01*
X79560369Y-98958703D01*
X79719437Y-98685461D01*
X79853785Y-98455392D01*
X79959278Y-98275645D01*
X80031780Y-98153369D01*
X80067152Y-98095716D01*
X80069586Y-98092366D01*
X80097046Y-98090027D01*
X80142274Y-98131483D01*
G36*
X90048089Y-94152808D02*
X90204686Y-94159644D01*
X90304383Y-94172016D01*
X90356403Y-94190390D01*
X90363254Y-94196206D01*
X90390423Y-94239183D01*
X90457099Y-94350996D01*
X90560625Y-94527062D01*
X90698345Y-94762796D01*
X90867601Y-95053614D01*
X91065737Y-95394931D01*
X91290096Y-95782164D01*
X91538021Y-96210728D01*
X91806855Y-96676039D01*
X92093942Y-97173513D01*
X92396623Y-97698565D01*
X92712243Y-98246611D01*
X92921592Y-98610420D01*
X93243645Y-99170264D01*
X93553994Y-99709758D01*
X93850020Y-100224350D01*
X94129105Y-100709490D01*
X94388631Y-101160627D01*
X94625981Y-101573210D01*
X94838536Y-101942690D01*
X95023678Y-102264514D01*
X95178790Y-102534133D01*
X95301254Y-102746995D01*
X95388452Y-102898551D01*
X95437765Y-102984249D01*
X95448277Y-103002503D01*
X95410239Y-103007845D01*
X95294342Y-103012905D01*
X95107394Y-103017608D01*
X94856203Y-103021877D01*
X94547575Y-103025638D01*
X94188318Y-103028815D01*
X93785241Y-103031333D01*
X93345150Y-103033116D01*
X92874853Y-103034089D01*
X92581970Y-103034253D01*
X92096723Y-103033736D01*
X91637505Y-103032241D01*
X91211137Y-103029856D01*
X90824440Y-103026665D01*
X90484236Y-103022756D01*
X90197344Y-103018215D01*
X89970588Y-103013127D01*
X89810787Y-103007579D01*
X89724762Y-103001657D01*
X89711389Y-102997982D01*
X89736134Y-102951191D01*
X89796199Y-102843493D01*
X89884563Y-102687299D01*
X89994209Y-102495023D01*
X90106035Y-102300079D01*
X90486570Y-101638448D01*
X91761871Y-101627267D01*
X93037172Y-101616087D01*
X91378864Y-98737420D01*
X91102994Y-98258577D01*
X90828401Y-97782031D01*
X90559662Y-97315723D01*
X90301357Y-96867592D01*
X90058064Y-96445580D01*
X89834361Y-96057628D01*
X89634826Y-95711675D01*
X89464037Y-95415663D01*
X89326573Y-95177532D01*
X89230981Y-95012087D01*
X88741404Y-94165420D01*
X89527310Y-94153873D01*
X89825371Y-94151039D01*
X90048089Y-94152808D01*
X90048089Y-94152808D01*
G37*
X90048089Y-94152808D02*
X90204686Y-94159644D01*
X90304383Y-94172016D01*
X90356403Y-94190390D01*
X90363254Y-94196206D01*
X90390423Y-94239183D01*
X90457099Y-94350996D01*
X90560625Y-94527062D01*
X90698345Y-94762796D01*
X90867601Y-95053614D01*
X91065737Y-95394931D01*
X91290096Y-95782164D01*
X91538021Y-96210728D01*
X91806855Y-96676039D01*
X92093942Y-97173513D01*
X92396623Y-97698565D01*
X92712243Y-98246611D01*
X92921592Y-98610420D01*
X93243645Y-99170264D01*
X93553994Y-99709758D01*
X93850020Y-100224350D01*
X94129105Y-100709490D01*
X94388631Y-101160627D01*
X94625981Y-101573210D01*
X94838536Y-101942690D01*
X95023678Y-102264514D01*
X95178790Y-102534133D01*
X95301254Y-102746995D01*
X95388452Y-102898551D01*
X95437765Y-102984249D01*
X95448277Y-103002503D01*
X95410239Y-103007845D01*
X95294342Y-103012905D01*
X95107394Y-103017608D01*
X94856203Y-103021877D01*
X94547575Y-103025638D01*
X94188318Y-103028815D01*
X93785241Y-103031333D01*
X93345150Y-103033116D01*
X92874853Y-103034089D01*
X92581970Y-103034253D01*
X92096723Y-103033736D01*
X91637505Y-103032241D01*
X91211137Y-103029856D01*
X90824440Y-103026665D01*
X90484236Y-103022756D01*
X90197344Y-103018215D01*
X89970588Y-103013127D01*
X89810787Y-103007579D01*
X89724762Y-103001657D01*
X89711389Y-102997982D01*
X89736134Y-102951191D01*
X89796199Y-102843493D01*
X89884563Y-102687299D01*
X89994209Y-102495023D01*
X90106035Y-102300079D01*
X90486570Y-101638448D01*
X91761871Y-101627267D01*
X93037172Y-101616087D01*
X91378864Y-98737420D01*
X91102994Y-98258577D01*
X90828401Y-97782031D01*
X90559662Y-97315723D01*
X90301357Y-96867592D01*
X90058064Y-96445580D01*
X89834361Y-96057628D01*
X89634826Y-95711675D01*
X89464037Y-95415663D01*
X89326573Y-95177532D01*
X89230981Y-95012087D01*
X88741404Y-94165420D01*
X89527310Y-94153873D01*
X89825371Y-94151039D01*
X90048089Y-94152808D01*
G36*
X86359406Y-87283360D02*
X86424624Y-87384810D01*
X86524851Y-87547860D01*
X86656561Y-87766568D01*
X86816229Y-88034993D01*
X87000331Y-88347193D01*
X87205344Y-88697227D01*
X87427741Y-89079153D01*
X87663999Y-89487031D01*
X87803272Y-89728428D01*
X89237604Y-92218087D01*
X88444529Y-92229642D01*
X88155112Y-92232697D01*
X87939691Y-92231845D01*
X87787662Y-92226487D01*
X87688420Y-92216026D01*
X87631358Y-92199862D01*
X87608976Y-92182456D01*
X87577600Y-92131770D01*
X87509842Y-92017450D01*
X87411425Y-91849318D01*
X87288072Y-91637193D01*
X87145509Y-91390896D01*
X86989457Y-91120249D01*
X86954710Y-91059850D01*
X86342920Y-89995987D01*
X86270439Y-90112203D01*
X86239405Y-90164719D01*
X86169763Y-90284333D01*
X86065136Y-90464762D01*
X85929147Y-90699721D01*
X85765420Y-90982927D01*
X85577578Y-91308096D01*
X85369244Y-91668944D01*
X85144040Y-92059187D01*
X84905591Y-92472541D01*
X84657520Y-92902722D01*
X84403449Y-93343446D01*
X84147002Y-93788430D01*
X83891801Y-94231389D01*
X83641471Y-94666040D01*
X83399635Y-95086098D01*
X83169915Y-95485279D01*
X82955934Y-95857301D01*
X82761316Y-96195878D01*
X82589685Y-96494728D01*
X82451056Y-96736409D01*
X82320482Y-96962497D01*
X82203778Y-97161270D01*
X82107511Y-97321813D01*
X82038245Y-97433212D01*
X82002549Y-97484551D01*
X81999667Y-97486724D01*
X81972946Y-97451680D01*
X81911670Y-97354553D01*
X81822869Y-97207010D01*
X81713576Y-97020720D01*
X81601028Y-96825240D01*
X81479659Y-96609971D01*
X81374495Y-96418301D01*
X81292292Y-96262967D01*
X81239804Y-96156704D01*
X81223555Y-96113621D01*
X81244248Y-96070222D01*
X81304310Y-95958867D01*
X81400715Y-95784885D01*
X81530437Y-95553606D01*
X81690451Y-95270362D01*
X81877731Y-94940484D01*
X82089251Y-94569301D01*
X82321986Y-94162146D01*
X82572909Y-93724347D01*
X82838996Y-93261237D01*
X83088315Y-92828282D01*
X83384705Y-92314107D01*
X83682792Y-91796958D01*
X83977928Y-91284896D01*
X84265468Y-90785987D01*
X84540763Y-90308293D01*
X84799169Y-89859876D01*
X85036038Y-89448801D01*
X85246724Y-89083131D01*
X85426579Y-88770929D01*
X85570957Y-88520259D01*
X85624788Y-88426776D01*
X85789867Y-88141646D01*
X85942484Y-87881070D01*
X86077316Y-87653896D01*
X86189042Y-87468976D01*
X86272341Y-87335157D01*
X86321892Y-87261289D01*
X86332719Y-87249451D01*
X86359406Y-87283360D01*
X86359406Y-87283360D01*
G37*
X86359406Y-87283360D02*
X86424624Y-87384810D01*
X86524851Y-87547860D01*
X86656561Y-87766568D01*
X86816229Y-88034993D01*
X87000331Y-88347193D01*
X87205344Y-88697227D01*
X87427741Y-89079153D01*
X87663999Y-89487031D01*
X87803272Y-89728428D01*
X89237604Y-92218087D01*
X88444529Y-92229642D01*
X88155112Y-92232697D01*
X87939691Y-92231845D01*
X87787662Y-92226487D01*
X87688420Y-92216026D01*
X87631358Y-92199862D01*
X87608976Y-92182456D01*
X87577600Y-92131770D01*
X87509842Y-92017450D01*
X87411425Y-91849318D01*
X87288072Y-91637193D01*
X87145509Y-91390896D01*
X86989457Y-91120249D01*
X86954710Y-91059850D01*
X86342920Y-89995987D01*
X86270439Y-90112203D01*
X86239405Y-90164719D01*
X86169763Y-90284333D01*
X86065136Y-90464762D01*
X85929147Y-90699721D01*
X85765420Y-90982927D01*
X85577578Y-91308096D01*
X85369244Y-91668944D01*
X85144040Y-92059187D01*
X84905591Y-92472541D01*
X84657520Y-92902722D01*
X84403449Y-93343446D01*
X84147002Y-93788430D01*
X83891801Y-94231389D01*
X83641471Y-94666040D01*
X83399635Y-95086098D01*
X83169915Y-95485279D01*
X82955934Y-95857301D01*
X82761316Y-96195878D01*
X82589685Y-96494728D01*
X82451056Y-96736409D01*
X82320482Y-96962497D01*
X82203778Y-97161270D01*
X82107511Y-97321813D01*
X82038245Y-97433212D01*
X82002549Y-97484551D01*
X81999667Y-97486724D01*
X81972946Y-97451680D01*
X81911670Y-97354553D01*
X81822869Y-97207010D01*
X81713576Y-97020720D01*
X81601028Y-96825240D01*
X81479659Y-96609971D01*
X81374495Y-96418301D01*
X81292292Y-96262967D01*
X81239804Y-96156704D01*
X81223555Y-96113621D01*
X81244248Y-96070222D01*
X81304310Y-95958867D01*
X81400715Y-95784885D01*
X81530437Y-95553606D01*
X81690451Y-95270362D01*
X81877731Y-94940484D01*
X82089251Y-94569301D01*
X82321986Y-94162146D01*
X82572909Y-93724347D01*
X82838996Y-93261237D01*
X83088315Y-92828282D01*
X83384705Y-92314107D01*
X83682792Y-91796958D01*
X83977928Y-91284896D01*
X84265468Y-90785987D01*
X84540763Y-90308293D01*
X84799169Y-89859876D01*
X85036038Y-89448801D01*
X85246724Y-89083131D01*
X85426579Y-88770929D01*
X85570957Y-88520259D01*
X85624788Y-88426776D01*
X85789867Y-88141646D01*
X85942484Y-87881070D01*
X86077316Y-87653896D01*
X86189042Y-87468976D01*
X86272341Y-87335157D01*
X86321892Y-87261289D01*
X86332719Y-87249451D01*
X86359406Y-87283360D01*
G04 #@! TO.C,G\002A\002A\002A*
G36*
X147110822Y-50054086D02*
X147094189Y-50665968D01*
X147078204Y-51219629D01*
X147063569Y-51693365D01*
X147050987Y-52065472D01*
X147041159Y-52314246D01*
X147034788Y-52417983D01*
X147034301Y-52419642D01*
X146949349Y-52426304D01*
X146717885Y-52436666D01*
X146362671Y-52449920D01*
X145906466Y-52465257D01*
X145372033Y-52481866D01*
X144883889Y-52496081D01*
X142748000Y-52556464D01*
X142748000Y-50096221D01*
X143195360Y-50059123D01*
X143628295Y-49981490D01*
X144008919Y-49835797D01*
X144294521Y-49642179D01*
X144418250Y-49482586D01*
X144468916Y-49293348D01*
X144505752Y-48981602D01*
X144523768Y-48593944D01*
X144524752Y-48487753D01*
X144526000Y-47704586D01*
X147172821Y-47704586D01*
X147110822Y-50054086D01*
X147110822Y-50054086D01*
G37*
X147110822Y-50054086D02*
X147094189Y-50665968D01*
X147078204Y-51219629D01*
X147063569Y-51693365D01*
X147050987Y-52065472D01*
X147041159Y-52314246D01*
X147034788Y-52417983D01*
X147034301Y-52419642D01*
X146949349Y-52426304D01*
X146717885Y-52436666D01*
X146362671Y-52449920D01*
X145906466Y-52465257D01*
X145372033Y-52481866D01*
X144883889Y-52496081D01*
X142748000Y-52556464D01*
X142748000Y-50096221D01*
X143195360Y-50059123D01*
X143628295Y-49981490D01*
X144008919Y-49835797D01*
X144294521Y-49642179D01*
X144418250Y-49482586D01*
X144468916Y-49293348D01*
X144505752Y-48981602D01*
X144523768Y-48593944D01*
X144524752Y-48487753D01*
X144526000Y-47704586D01*
X147172821Y-47704586D01*
X147110822Y-50054086D01*
G36*
X102977321Y-48048082D02*
X103432372Y-48061139D01*
X103823998Y-48080281D01*
X104042914Y-48097647D01*
X104563334Y-48152042D01*
X104563334Y-49057663D01*
X104560518Y-49431533D01*
X104552681Y-49930318D01*
X104540741Y-50509702D01*
X104525614Y-51125371D01*
X104508217Y-51733008D01*
X104507536Y-51754935D01*
X104451739Y-53546586D01*
X99338487Y-53546586D01*
X99284512Y-52975086D01*
X99260872Y-52634171D01*
X99242354Y-52195102D01*
X99231591Y-51729042D01*
X99229935Y-51500910D01*
X99229334Y-50598235D01*
X100154078Y-50569577D01*
X100569121Y-50553583D01*
X100852223Y-50531086D01*
X101040772Y-50494433D01*
X101172158Y-50435973D01*
X101283769Y-50348055D01*
X101297078Y-50335661D01*
X101388307Y-50242444D01*
X101449767Y-50143670D01*
X101487328Y-50005747D01*
X101506861Y-49795085D01*
X101514237Y-49478094D01*
X101515334Y-49086828D01*
X101515334Y-48043253D01*
X102518914Y-48043253D01*
X102977321Y-48048082D01*
X102977321Y-48048082D01*
G37*
X102977321Y-48048082D02*
X103432372Y-48061139D01*
X103823998Y-48080281D01*
X104042914Y-48097647D01*
X104563334Y-48152042D01*
X104563334Y-49057663D01*
X104560518Y-49431533D01*
X104552681Y-49930318D01*
X104540741Y-50509702D01*
X104525614Y-51125371D01*
X104508217Y-51733008D01*
X104507536Y-51754935D01*
X104451739Y-53546586D01*
X99338487Y-53546586D01*
X99284512Y-52975086D01*
X99260872Y-52634171D01*
X99242354Y-52195102D01*
X99231591Y-51729042D01*
X99229935Y-51500910D01*
X99229334Y-50598235D01*
X100154078Y-50569577D01*
X100569121Y-50553583D01*
X100852223Y-50531086D01*
X101040772Y-50494433D01*
X101172158Y-50435973D01*
X101283769Y-50348055D01*
X101297078Y-50335661D01*
X101388307Y-50242444D01*
X101449767Y-50143670D01*
X101487328Y-50005747D01*
X101506861Y-49795085D01*
X101514237Y-49478094D01*
X101515334Y-49086828D01*
X101515334Y-48043253D01*
X102518914Y-48043253D01*
X102977321Y-48048082D01*
G36*
X182636868Y-55167877D02*
X183123449Y-55484194D01*
X183523349Y-55880710D01*
X183870480Y-56394174D01*
X184009916Y-56655975D01*
X184297419Y-57229586D01*
X184329543Y-60192920D01*
X184361667Y-63156253D01*
X183213894Y-63179702D01*
X182788903Y-63184188D01*
X182426092Y-63180099D01*
X182158357Y-63168398D01*
X182018593Y-63150046D01*
X182007394Y-63144424D01*
X181993020Y-63048354D01*
X181979921Y-62803696D01*
X181968540Y-62431194D01*
X181959323Y-61951593D01*
X181952715Y-61385635D01*
X181949161Y-60754065D01*
X181948667Y-60406657D01*
X181947399Y-59633245D01*
X181943120Y-59012326D01*
X181935121Y-58527079D01*
X181922691Y-58160678D01*
X181905118Y-57896302D01*
X181881693Y-57717126D01*
X181851703Y-57606326D01*
X181828547Y-57563268D01*
X181784536Y-57514908D01*
X181718410Y-57476654D01*
X181610814Y-57447008D01*
X181442395Y-57424472D01*
X181193799Y-57407546D01*
X180845673Y-57394731D01*
X180378661Y-57384530D01*
X179773411Y-57375442D01*
X179330880Y-57369839D01*
X176953334Y-57340759D01*
X176953334Y-61903047D01*
X176127834Y-61957712D01*
X175730307Y-61981905D01*
X175360038Y-62000719D01*
X175074276Y-62011394D01*
X174984834Y-62012815D01*
X174667334Y-62013253D01*
X174667334Y-54901253D01*
X182136631Y-54901253D01*
X182636868Y-55167877D01*
X182636868Y-55167877D01*
G37*
X182636868Y-55167877D02*
X183123449Y-55484194D01*
X183523349Y-55880710D01*
X183870480Y-56394174D01*
X184009916Y-56655975D01*
X184297419Y-57229586D01*
X184329543Y-60192920D01*
X184361667Y-63156253D01*
X183213894Y-63179702D01*
X182788903Y-63184188D01*
X182426092Y-63180099D01*
X182158357Y-63168398D01*
X182018593Y-63150046D01*
X182007394Y-63144424D01*
X181993020Y-63048354D01*
X181979921Y-62803696D01*
X181968540Y-62431194D01*
X181959323Y-61951593D01*
X181952715Y-61385635D01*
X181949161Y-60754065D01*
X181948667Y-60406657D01*
X181947399Y-59633245D01*
X181943120Y-59012326D01*
X181935121Y-58527079D01*
X181922691Y-58160678D01*
X181905118Y-57896302D01*
X181881693Y-57717126D01*
X181851703Y-57606326D01*
X181828547Y-57563268D01*
X181784536Y-57514908D01*
X181718410Y-57476654D01*
X181610814Y-57447008D01*
X181442395Y-57424472D01*
X181193799Y-57407546D01*
X180845673Y-57394731D01*
X180378661Y-57384530D01*
X179773411Y-57375442D01*
X179330880Y-57369839D01*
X176953334Y-57340759D01*
X176953334Y-61903047D01*
X176127834Y-61957712D01*
X175730307Y-61981905D01*
X175360038Y-62000719D01*
X175074276Y-62011394D01*
X174984834Y-62012815D01*
X174667334Y-62013253D01*
X174667334Y-54901253D01*
X182136631Y-54901253D01*
X182636868Y-55167877D01*
G36*
X137763535Y-55167877D02*
X138250115Y-55484194D01*
X138650016Y-55880710D01*
X138997147Y-56394174D01*
X139136582Y-56655975D01*
X139424086Y-57229586D01*
X139456210Y-60192920D01*
X139488334Y-63156253D01*
X138340560Y-63179702D01*
X137915570Y-63184188D01*
X137552759Y-63180099D01*
X137285023Y-63168398D01*
X137145260Y-63150046D01*
X137134060Y-63144424D01*
X137119687Y-63048354D01*
X137106587Y-62803696D01*
X137095207Y-62431194D01*
X137085990Y-61951593D01*
X137079382Y-61385635D01*
X137075827Y-60754065D01*
X137075334Y-60406657D01*
X137074065Y-59633245D01*
X137069787Y-59012326D01*
X137061788Y-58527079D01*
X137049358Y-58160678D01*
X137031785Y-57896302D01*
X137008359Y-57717126D01*
X136978370Y-57606326D01*
X136955214Y-57563268D01*
X136911203Y-57514908D01*
X136845076Y-57476654D01*
X136737481Y-57447008D01*
X136569062Y-57424472D01*
X136320466Y-57407546D01*
X135972339Y-57394731D01*
X135505328Y-57384530D01*
X134900078Y-57375442D01*
X134457547Y-57369839D01*
X132080000Y-57340759D01*
X132080000Y-61903047D01*
X131254500Y-61957712D01*
X130856973Y-61981905D01*
X130486705Y-62000719D01*
X130200942Y-62011394D01*
X130111500Y-62012815D01*
X129794000Y-62013253D01*
X129794000Y-54901253D01*
X137263297Y-54901253D01*
X137763535Y-55167877D01*
X137763535Y-55167877D01*
G37*
X137763535Y-55167877D02*
X138250115Y-55484194D01*
X138650016Y-55880710D01*
X138997147Y-56394174D01*
X139136582Y-56655975D01*
X139424086Y-57229586D01*
X139456210Y-60192920D01*
X139488334Y-63156253D01*
X138340560Y-63179702D01*
X137915570Y-63184188D01*
X137552759Y-63180099D01*
X137285023Y-63168398D01*
X137145260Y-63150046D01*
X137134060Y-63144424D01*
X137119687Y-63048354D01*
X137106587Y-62803696D01*
X137095207Y-62431194D01*
X137085990Y-61951593D01*
X137079382Y-61385635D01*
X137075827Y-60754065D01*
X137075334Y-60406657D01*
X137074065Y-59633245D01*
X137069787Y-59012326D01*
X137061788Y-58527079D01*
X137049358Y-58160678D01*
X137031785Y-57896302D01*
X137008359Y-57717126D01*
X136978370Y-57606326D01*
X136955214Y-57563268D01*
X136911203Y-57514908D01*
X136845076Y-57476654D01*
X136737481Y-57447008D01*
X136569062Y-57424472D01*
X136320466Y-57407546D01*
X135972339Y-57394731D01*
X135505328Y-57384530D01*
X134900078Y-57375442D01*
X134457547Y-57369839D01*
X132080000Y-57340759D01*
X132080000Y-61903047D01*
X131254500Y-61957712D01*
X130856973Y-61981905D01*
X130486705Y-62000719D01*
X130200942Y-62011394D01*
X130111500Y-62012815D01*
X129794000Y-62013253D01*
X129794000Y-54901253D01*
X137263297Y-54901253D01*
X137763535Y-55167877D01*
G36*
X190534307Y-54829970D02*
X191180599Y-54835760D01*
X191838905Y-54846849D01*
X192483037Y-54862813D01*
X193086805Y-54883226D01*
X193624019Y-54907663D01*
X194068490Y-54935701D01*
X194394030Y-54966914D01*
X194556220Y-54995223D01*
X194972512Y-55192760D01*
X195336190Y-55525457D01*
X195616556Y-55960564D01*
X195728559Y-56245849D01*
X195795468Y-56566281D01*
X195844369Y-57009691D01*
X195875290Y-57537175D01*
X195888256Y-58109830D01*
X195883293Y-58688752D01*
X195860428Y-59235039D01*
X195819686Y-59709786D01*
X195761094Y-60074091D01*
X195725904Y-60200414D01*
X195508955Y-60636049D01*
X195209993Y-60969314D01*
X194902667Y-61150523D01*
X194730783Y-61184752D01*
X194421093Y-61217343D01*
X194005122Y-61247187D01*
X193514394Y-61273174D01*
X192980437Y-61294193D01*
X192434776Y-61309136D01*
X191908936Y-61316891D01*
X191434443Y-61316350D01*
X191042823Y-61306403D01*
X190838764Y-61293595D01*
X190155788Y-61233138D01*
X190179728Y-60332029D01*
X190203667Y-59430920D01*
X192010485Y-59388586D01*
X192665171Y-59373811D01*
X193170149Y-59355504D01*
X193544794Y-59320958D01*
X193808483Y-59257465D01*
X193980592Y-59152319D01*
X194080497Y-58992811D01*
X194127574Y-58766236D01*
X194141200Y-58459886D01*
X194140751Y-58061053D01*
X194140667Y-57991586D01*
X194136695Y-57559045D01*
X194121473Y-57260302D01*
X194090039Y-57059939D01*
X194037433Y-56922540D01*
X193978921Y-56836799D01*
X193817174Y-56636920D01*
X191412805Y-56609986D01*
X189008436Y-56583053D01*
X188895852Y-56821653D01*
X188847117Y-57011570D01*
X188807410Y-57340150D01*
X188776479Y-57784726D01*
X188754072Y-58322633D01*
X188739937Y-58931203D01*
X188733822Y-59587770D01*
X188735475Y-60269668D01*
X188744644Y-60954230D01*
X188761077Y-61618790D01*
X188784521Y-62240682D01*
X188814725Y-62797238D01*
X188851437Y-63265792D01*
X188894405Y-63623679D01*
X188943376Y-63848231D01*
X188974657Y-63908675D01*
X189099317Y-63948799D01*
X189377905Y-63982939D01*
X189795083Y-64009809D01*
X190335512Y-64028121D01*
X190419336Y-64029912D01*
X191770000Y-64056905D01*
X191770000Y-65992586D01*
X188417267Y-65992586D01*
X187921700Y-65590420D01*
X187572041Y-65261331D01*
X187276333Y-64899659D01*
X187172128Y-64735317D01*
X187063396Y-64527436D01*
X186986856Y-64331754D01*
X186933762Y-64106841D01*
X186895366Y-63811262D01*
X186862921Y-63403586D01*
X186850374Y-63211317D01*
X186825829Y-62726447D01*
X186806550Y-62148702D01*
X186792459Y-61503170D01*
X186783481Y-60814941D01*
X186779538Y-60109106D01*
X186780554Y-59410755D01*
X186786453Y-58744976D01*
X186797157Y-58136860D01*
X186812591Y-57611497D01*
X186832677Y-57193977D01*
X186857338Y-56909389D01*
X186869864Y-56831587D01*
X187059571Y-56229676D01*
X187347042Y-55706519D01*
X187712769Y-55286807D01*
X188137241Y-54995235D01*
X188399702Y-54895372D01*
X188593078Y-54868295D01*
X188929416Y-54848641D01*
X189382526Y-54835986D01*
X189926220Y-54829903D01*
X190534307Y-54829970D01*
X190534307Y-54829970D01*
G37*
X190534307Y-54829970D02*
X191180599Y-54835760D01*
X191838905Y-54846849D01*
X192483037Y-54862813D01*
X193086805Y-54883226D01*
X193624019Y-54907663D01*
X194068490Y-54935701D01*
X194394030Y-54966914D01*
X194556220Y-54995223D01*
X194972512Y-55192760D01*
X195336190Y-55525457D01*
X195616556Y-55960564D01*
X195728559Y-56245849D01*
X195795468Y-56566281D01*
X195844369Y-57009691D01*
X195875290Y-57537175D01*
X195888256Y-58109830D01*
X195883293Y-58688752D01*
X195860428Y-59235039D01*
X195819686Y-59709786D01*
X195761094Y-60074091D01*
X195725904Y-60200414D01*
X195508955Y-60636049D01*
X195209993Y-60969314D01*
X194902667Y-61150523D01*
X194730783Y-61184752D01*
X194421093Y-61217343D01*
X194005122Y-61247187D01*
X193514394Y-61273174D01*
X192980437Y-61294193D01*
X192434776Y-61309136D01*
X191908936Y-61316891D01*
X191434443Y-61316350D01*
X191042823Y-61306403D01*
X190838764Y-61293595D01*
X190155788Y-61233138D01*
X190179728Y-60332029D01*
X190203667Y-59430920D01*
X192010485Y-59388586D01*
X192665171Y-59373811D01*
X193170149Y-59355504D01*
X193544794Y-59320958D01*
X193808483Y-59257465D01*
X193980592Y-59152319D01*
X194080497Y-58992811D01*
X194127574Y-58766236D01*
X194141200Y-58459886D01*
X194140751Y-58061053D01*
X194140667Y-57991586D01*
X194136695Y-57559045D01*
X194121473Y-57260302D01*
X194090039Y-57059939D01*
X194037433Y-56922540D01*
X193978921Y-56836799D01*
X193817174Y-56636920D01*
X191412805Y-56609986D01*
X189008436Y-56583053D01*
X188895852Y-56821653D01*
X188847117Y-57011570D01*
X188807410Y-57340150D01*
X188776479Y-57784726D01*
X188754072Y-58322633D01*
X188739937Y-58931203D01*
X188733822Y-59587770D01*
X188735475Y-60269668D01*
X188744644Y-60954230D01*
X188761077Y-61618790D01*
X188784521Y-62240682D01*
X188814725Y-62797238D01*
X188851437Y-63265792D01*
X188894405Y-63623679D01*
X188943376Y-63848231D01*
X188974657Y-63908675D01*
X189099317Y-63948799D01*
X189377905Y-63982939D01*
X189795083Y-64009809D01*
X190335512Y-64028121D01*
X190419336Y-64029912D01*
X191770000Y-64056905D01*
X191770000Y-65992586D01*
X188417267Y-65992586D01*
X187921700Y-65590420D01*
X187572041Y-65261331D01*
X187276333Y-64899659D01*
X187172128Y-64735317D01*
X187063396Y-64527436D01*
X186986856Y-64331754D01*
X186933762Y-64106841D01*
X186895366Y-63811262D01*
X186862921Y-63403586D01*
X186850374Y-63211317D01*
X186825829Y-62726447D01*
X186806550Y-62148702D01*
X186792459Y-61503170D01*
X186783481Y-60814941D01*
X186779538Y-60109106D01*
X186780554Y-59410755D01*
X186786453Y-58744976D01*
X186797157Y-58136860D01*
X186812591Y-57611497D01*
X186832677Y-57193977D01*
X186857338Y-56909389D01*
X186869864Y-56831587D01*
X187059571Y-56229676D01*
X187347042Y-55706519D01*
X187712769Y-55286807D01*
X188137241Y-54995235D01*
X188399702Y-54895372D01*
X188593078Y-54868295D01*
X188929416Y-54848641D01*
X189382526Y-54835986D01*
X189926220Y-54829903D01*
X190534307Y-54829970D01*
G36*
X165726974Y-54829970D02*
X166373266Y-54835760D01*
X167031572Y-54846849D01*
X167675704Y-54862813D01*
X168279472Y-54883226D01*
X168816686Y-54907663D01*
X169261157Y-54935701D01*
X169586696Y-54966914D01*
X169748886Y-54995223D01*
X170165178Y-55192760D01*
X170528857Y-55525457D01*
X170809223Y-55960564D01*
X170921226Y-56245849D01*
X170988134Y-56566281D01*
X171037036Y-57009691D01*
X171067957Y-57537175D01*
X171080923Y-58109830D01*
X171075960Y-58688752D01*
X171053094Y-59235039D01*
X171012352Y-59709786D01*
X170953760Y-60074091D01*
X170918570Y-60200414D01*
X170701622Y-60636049D01*
X170402660Y-60969314D01*
X170095334Y-61150523D01*
X169923450Y-61184752D01*
X169613760Y-61217343D01*
X169197788Y-61247187D01*
X168707061Y-61273174D01*
X168173104Y-61294193D01*
X167627443Y-61309136D01*
X167101603Y-61316891D01*
X166627110Y-61316350D01*
X166235489Y-61306403D01*
X166031431Y-61293595D01*
X165348455Y-61233138D01*
X165372394Y-60332029D01*
X165396334Y-59430920D01*
X167203152Y-59388586D01*
X167857838Y-59373811D01*
X168362815Y-59355504D01*
X168737461Y-59320958D01*
X169001150Y-59257465D01*
X169173259Y-59152319D01*
X169273164Y-58992811D01*
X169320241Y-58766236D01*
X169333867Y-58459886D01*
X169333417Y-58061053D01*
X169333334Y-57991586D01*
X169329362Y-57559045D01*
X169314139Y-57260302D01*
X169282705Y-57059939D01*
X169230099Y-56922540D01*
X169171587Y-56836799D01*
X169009841Y-56636920D01*
X166605472Y-56609986D01*
X164201102Y-56583053D01*
X164088519Y-56821653D01*
X164039784Y-57011570D01*
X164000077Y-57340150D01*
X163969146Y-57784726D01*
X163946739Y-58322633D01*
X163932604Y-58931203D01*
X163926489Y-59587770D01*
X163928142Y-60269668D01*
X163937311Y-60954230D01*
X163953743Y-61618790D01*
X163977188Y-62240682D01*
X164007392Y-62797238D01*
X164044104Y-63265792D01*
X164087071Y-63623679D01*
X164136042Y-63848231D01*
X164167324Y-63908675D01*
X164291983Y-63948799D01*
X164570572Y-63982939D01*
X164987750Y-64009809D01*
X165528178Y-64028121D01*
X165612002Y-64029912D01*
X166962667Y-64056905D01*
X166962667Y-65992586D01*
X163609934Y-65992586D01*
X163114367Y-65590420D01*
X162764708Y-65261331D01*
X162469000Y-64899659D01*
X162364795Y-64735317D01*
X162256063Y-64527436D01*
X162179523Y-64331754D01*
X162126429Y-64106841D01*
X162088033Y-63811262D01*
X162055588Y-63403586D01*
X162043041Y-63211317D01*
X162018496Y-62726447D01*
X161999216Y-62148702D01*
X161985126Y-61503170D01*
X161976147Y-60814941D01*
X161972205Y-60109106D01*
X161973221Y-59410755D01*
X161979120Y-58744976D01*
X161989824Y-58136860D01*
X162005257Y-57611497D01*
X162025343Y-57193977D01*
X162050005Y-56909389D01*
X162062531Y-56831587D01*
X162252237Y-56229676D01*
X162539709Y-55706519D01*
X162905436Y-55286807D01*
X163329908Y-54995235D01*
X163592368Y-54895372D01*
X163785744Y-54868295D01*
X164122082Y-54848641D01*
X164575193Y-54835986D01*
X165118887Y-54829903D01*
X165726974Y-54829970D01*
X165726974Y-54829970D01*
G37*
X165726974Y-54829970D02*
X166373266Y-54835760D01*
X167031572Y-54846849D01*
X167675704Y-54862813D01*
X168279472Y-54883226D01*
X168816686Y-54907663D01*
X169261157Y-54935701D01*
X169586696Y-54966914D01*
X169748886Y-54995223D01*
X170165178Y-55192760D01*
X170528857Y-55525457D01*
X170809223Y-55960564D01*
X170921226Y-56245849D01*
X170988134Y-56566281D01*
X171037036Y-57009691D01*
X171067957Y-57537175D01*
X171080923Y-58109830D01*
X171075960Y-58688752D01*
X171053094Y-59235039D01*
X171012352Y-59709786D01*
X170953760Y-60074091D01*
X170918570Y-60200414D01*
X170701622Y-60636049D01*
X170402660Y-60969314D01*
X170095334Y-61150523D01*
X169923450Y-61184752D01*
X169613760Y-61217343D01*
X169197788Y-61247187D01*
X168707061Y-61273174D01*
X168173104Y-61294193D01*
X167627443Y-61309136D01*
X167101603Y-61316891D01*
X166627110Y-61316350D01*
X166235489Y-61306403D01*
X166031431Y-61293595D01*
X165348455Y-61233138D01*
X165372394Y-60332029D01*
X165396334Y-59430920D01*
X167203152Y-59388586D01*
X167857838Y-59373811D01*
X168362815Y-59355504D01*
X168737461Y-59320958D01*
X169001150Y-59257465D01*
X169173259Y-59152319D01*
X169273164Y-58992811D01*
X169320241Y-58766236D01*
X169333867Y-58459886D01*
X169333417Y-58061053D01*
X169333334Y-57991586D01*
X169329362Y-57559045D01*
X169314139Y-57260302D01*
X169282705Y-57059939D01*
X169230099Y-56922540D01*
X169171587Y-56836799D01*
X169009841Y-56636920D01*
X166605472Y-56609986D01*
X164201102Y-56583053D01*
X164088519Y-56821653D01*
X164039784Y-57011570D01*
X164000077Y-57340150D01*
X163969146Y-57784726D01*
X163946739Y-58322633D01*
X163932604Y-58931203D01*
X163926489Y-59587770D01*
X163928142Y-60269668D01*
X163937311Y-60954230D01*
X163953743Y-61618790D01*
X163977188Y-62240682D01*
X164007392Y-62797238D01*
X164044104Y-63265792D01*
X164087071Y-63623679D01*
X164136042Y-63848231D01*
X164167324Y-63908675D01*
X164291983Y-63948799D01*
X164570572Y-63982939D01*
X164987750Y-64009809D01*
X165528178Y-64028121D01*
X165612002Y-64029912D01*
X166962667Y-64056905D01*
X166962667Y-65992586D01*
X163609934Y-65992586D01*
X163114367Y-65590420D01*
X162764708Y-65261331D01*
X162469000Y-64899659D01*
X162364795Y-64735317D01*
X162256063Y-64527436D01*
X162179523Y-64331754D01*
X162126429Y-64106841D01*
X162088033Y-63811262D01*
X162055588Y-63403586D01*
X162043041Y-63211317D01*
X162018496Y-62726447D01*
X161999216Y-62148702D01*
X161985126Y-61503170D01*
X161976147Y-60814941D01*
X161972205Y-60109106D01*
X161973221Y-59410755D01*
X161979120Y-58744976D01*
X161989824Y-58136860D01*
X162005257Y-57611497D01*
X162025343Y-57193977D01*
X162050005Y-56909389D01*
X162062531Y-56831587D01*
X162252237Y-56229676D01*
X162539709Y-55706519D01*
X162905436Y-55286807D01*
X163329908Y-54995235D01*
X163592368Y-54895372D01*
X163785744Y-54868295D01*
X164122082Y-54848641D01*
X164575193Y-54835986D01*
X165118887Y-54829903D01*
X165726974Y-54829970D01*
G36*
X120853641Y-54829970D02*
X121499932Y-54835760D01*
X122158239Y-54846849D01*
X122802370Y-54862813D01*
X123406138Y-54883226D01*
X123943352Y-54907663D01*
X124387824Y-54935701D01*
X124713363Y-54966914D01*
X124875553Y-54995223D01*
X125291845Y-55192760D01*
X125655524Y-55525457D01*
X125935889Y-55960564D01*
X126047892Y-56245849D01*
X126114801Y-56566281D01*
X126163703Y-57009691D01*
X126194623Y-57537175D01*
X126207589Y-58109830D01*
X126202627Y-58688752D01*
X126179761Y-59235039D01*
X126139019Y-59709786D01*
X126080427Y-60074091D01*
X126045237Y-60200414D01*
X125828289Y-60636049D01*
X125529326Y-60969314D01*
X125222000Y-61150523D01*
X125050117Y-61184752D01*
X124740426Y-61217343D01*
X124324455Y-61247187D01*
X123833728Y-61273174D01*
X123299771Y-61294193D01*
X122754109Y-61309136D01*
X122228269Y-61316891D01*
X121753776Y-61316350D01*
X121362156Y-61306403D01*
X121158097Y-61293595D01*
X120475122Y-61233138D01*
X120523000Y-59430920D01*
X122329819Y-59388586D01*
X122984505Y-59373811D01*
X123489482Y-59355504D01*
X123864127Y-59320958D01*
X124127816Y-59257465D01*
X124299925Y-59152319D01*
X124399830Y-58992811D01*
X124446908Y-58766236D01*
X124460534Y-58459886D01*
X124460084Y-58061053D01*
X124460000Y-57991586D01*
X124456028Y-57559045D01*
X124440806Y-57260302D01*
X124409372Y-57059939D01*
X124356766Y-56922540D01*
X124298254Y-56836799D01*
X124136508Y-56636920D01*
X121732138Y-56609986D01*
X119327769Y-56583053D01*
X119215186Y-56821653D01*
X119166450Y-57011570D01*
X119126743Y-57340150D01*
X119095812Y-57784726D01*
X119073405Y-58322633D01*
X119059271Y-58931203D01*
X119053156Y-59587770D01*
X119054809Y-60269668D01*
X119063977Y-60954230D01*
X119080410Y-61618790D01*
X119103854Y-62240682D01*
X119134059Y-62797238D01*
X119170770Y-63265792D01*
X119213738Y-63623679D01*
X119262709Y-63848231D01*
X119293991Y-63908675D01*
X119418650Y-63948799D01*
X119697238Y-63982939D01*
X120114416Y-64009809D01*
X120654845Y-64028121D01*
X120738669Y-64029912D01*
X122089334Y-64056905D01*
X122089334Y-65992586D01*
X118736600Y-65992586D01*
X118241033Y-65590420D01*
X117891374Y-65261331D01*
X117595667Y-64899659D01*
X117491461Y-64735317D01*
X117382729Y-64527436D01*
X117306190Y-64331754D01*
X117253096Y-64106841D01*
X117214700Y-63811262D01*
X117182255Y-63403586D01*
X117169708Y-63211317D01*
X117145162Y-62726447D01*
X117125883Y-62148702D01*
X117111792Y-61503170D01*
X117102814Y-60814941D01*
X117098871Y-60109106D01*
X117099888Y-59410755D01*
X117105786Y-58744976D01*
X117116491Y-58136860D01*
X117131924Y-57611497D01*
X117152010Y-57193977D01*
X117176672Y-56909389D01*
X117189198Y-56831587D01*
X117378904Y-56229676D01*
X117666376Y-55706519D01*
X118032102Y-55286807D01*
X118456575Y-54995235D01*
X118719035Y-54895372D01*
X118912411Y-54868295D01*
X119248749Y-54848641D01*
X119701860Y-54835986D01*
X120245553Y-54829903D01*
X120853641Y-54829970D01*
X120853641Y-54829970D01*
G37*
X120853641Y-54829970D02*
X121499932Y-54835760D01*
X122158239Y-54846849D01*
X122802370Y-54862813D01*
X123406138Y-54883226D01*
X123943352Y-54907663D01*
X124387824Y-54935701D01*
X124713363Y-54966914D01*
X124875553Y-54995223D01*
X125291845Y-55192760D01*
X125655524Y-55525457D01*
X125935889Y-55960564D01*
X126047892Y-56245849D01*
X126114801Y-56566281D01*
X126163703Y-57009691D01*
X126194623Y-57537175D01*
X126207589Y-58109830D01*
X126202627Y-58688752D01*
X126179761Y-59235039D01*
X126139019Y-59709786D01*
X126080427Y-60074091D01*
X126045237Y-60200414D01*
X125828289Y-60636049D01*
X125529326Y-60969314D01*
X125222000Y-61150523D01*
X125050117Y-61184752D01*
X124740426Y-61217343D01*
X124324455Y-61247187D01*
X123833728Y-61273174D01*
X123299771Y-61294193D01*
X122754109Y-61309136D01*
X122228269Y-61316891D01*
X121753776Y-61316350D01*
X121362156Y-61306403D01*
X121158097Y-61293595D01*
X120475122Y-61233138D01*
X120523000Y-59430920D01*
X122329819Y-59388586D01*
X122984505Y-59373811D01*
X123489482Y-59355504D01*
X123864127Y-59320958D01*
X124127816Y-59257465D01*
X124299925Y-59152319D01*
X124399830Y-58992811D01*
X124446908Y-58766236D01*
X124460534Y-58459886D01*
X124460084Y-58061053D01*
X124460000Y-57991586D01*
X124456028Y-57559045D01*
X124440806Y-57260302D01*
X124409372Y-57059939D01*
X124356766Y-56922540D01*
X124298254Y-56836799D01*
X124136508Y-56636920D01*
X121732138Y-56609986D01*
X119327769Y-56583053D01*
X119215186Y-56821653D01*
X119166450Y-57011570D01*
X119126743Y-57340150D01*
X119095812Y-57784726D01*
X119073405Y-58322633D01*
X119059271Y-58931203D01*
X119053156Y-59587770D01*
X119054809Y-60269668D01*
X119063977Y-60954230D01*
X119080410Y-61618790D01*
X119103854Y-62240682D01*
X119134059Y-62797238D01*
X119170770Y-63265792D01*
X119213738Y-63623679D01*
X119262709Y-63848231D01*
X119293991Y-63908675D01*
X119418650Y-63948799D01*
X119697238Y-63982939D01*
X120114416Y-64009809D01*
X120654845Y-64028121D01*
X120738669Y-64029912D01*
X122089334Y-64056905D01*
X122089334Y-65992586D01*
X118736600Y-65992586D01*
X118241033Y-65590420D01*
X117891374Y-65261331D01*
X117595667Y-64899659D01*
X117491461Y-64735317D01*
X117382729Y-64527436D01*
X117306190Y-64331754D01*
X117253096Y-64106841D01*
X117214700Y-63811262D01*
X117182255Y-63403586D01*
X117169708Y-63211317D01*
X117145162Y-62726447D01*
X117125883Y-62148702D01*
X117111792Y-61503170D01*
X117102814Y-60814941D01*
X117098871Y-60109106D01*
X117099888Y-59410755D01*
X117105786Y-58744976D01*
X117116491Y-58136860D01*
X117131924Y-57611497D01*
X117152010Y-57193977D01*
X117176672Y-56909389D01*
X117189198Y-56831587D01*
X117378904Y-56229676D01*
X117666376Y-55706519D01*
X118032102Y-55286807D01*
X118456575Y-54995235D01*
X118719035Y-54895372D01*
X118912411Y-54868295D01*
X119248749Y-54848641D01*
X119701860Y-54835986D01*
X120245553Y-54829903D01*
X120853641Y-54829970D01*
G36*
X196021734Y-64235753D02*
X196006192Y-64707420D01*
X195985472Y-65137433D01*
X195961842Y-65488653D01*
X195937573Y-65723941D01*
X195927337Y-65780920D01*
X195865740Y-66034920D01*
X194506196Y-66058131D01*
X193146651Y-66081342D01*
X193093326Y-65814714D01*
X193068801Y-65607359D01*
X193050228Y-65288993D01*
X193040661Y-64917911D01*
X193040000Y-64796670D01*
X193040000Y-64045253D01*
X193340538Y-64045253D01*
X193651679Y-64001668D01*
X193934062Y-63888756D01*
X194129799Y-63733286D01*
X194172740Y-63660460D01*
X194209417Y-63482408D01*
X194225315Y-63241775D01*
X194225334Y-63233995D01*
X194225334Y-62944586D01*
X196054535Y-62944586D01*
X196021734Y-64235753D01*
X196021734Y-64235753D01*
G37*
X196021734Y-64235753D02*
X196006192Y-64707420D01*
X195985472Y-65137433D01*
X195961842Y-65488653D01*
X195937573Y-65723941D01*
X195927337Y-65780920D01*
X195865740Y-66034920D01*
X194506196Y-66058131D01*
X193146651Y-66081342D01*
X193093326Y-65814714D01*
X193068801Y-65607359D01*
X193050228Y-65288993D01*
X193040661Y-64917911D01*
X193040000Y-64796670D01*
X193040000Y-64045253D01*
X193340538Y-64045253D01*
X193651679Y-64001668D01*
X193934062Y-63888756D01*
X194129799Y-63733286D01*
X194172740Y-63660460D01*
X194209417Y-63482408D01*
X194225315Y-63241775D01*
X194225334Y-63233995D01*
X194225334Y-62944586D01*
X196054535Y-62944586D01*
X196021734Y-64235753D01*
G36*
X171214401Y-64235753D02*
X171198859Y-64707420D01*
X171178139Y-65137433D01*
X171154509Y-65488653D01*
X171130239Y-65723941D01*
X171120003Y-65780920D01*
X171058407Y-66034920D01*
X169698862Y-66058131D01*
X168339318Y-66081342D01*
X168285992Y-65814714D01*
X168261467Y-65607359D01*
X168242895Y-65288993D01*
X168233328Y-64917911D01*
X168232667Y-64796670D01*
X168232667Y-64045253D01*
X168533205Y-64045253D01*
X168844346Y-64001668D01*
X169126729Y-63888756D01*
X169322466Y-63733286D01*
X169365407Y-63660460D01*
X169402084Y-63482408D01*
X169417982Y-63241775D01*
X169418000Y-63233995D01*
X169418000Y-62944586D01*
X171247202Y-62944586D01*
X171214401Y-64235753D01*
X171214401Y-64235753D01*
G37*
X171214401Y-64235753D02*
X171198859Y-64707420D01*
X171178139Y-65137433D01*
X171154509Y-65488653D01*
X171130239Y-65723941D01*
X171120003Y-65780920D01*
X171058407Y-66034920D01*
X169698862Y-66058131D01*
X168339318Y-66081342D01*
X168285992Y-65814714D01*
X168261467Y-65607359D01*
X168242895Y-65288993D01*
X168233328Y-64917911D01*
X168232667Y-64796670D01*
X168232667Y-64045253D01*
X168533205Y-64045253D01*
X168844346Y-64001668D01*
X169126729Y-63888756D01*
X169322466Y-63733286D01*
X169365407Y-63660460D01*
X169402084Y-63482408D01*
X169417982Y-63241775D01*
X169418000Y-63233995D01*
X169418000Y-62944586D01*
X171247202Y-62944586D01*
X171214401Y-64235753D01*
G36*
X126341068Y-64235753D02*
X126325526Y-64707420D01*
X126304805Y-65137433D01*
X126281176Y-65488653D01*
X126256906Y-65723941D01*
X126246670Y-65780920D01*
X126185074Y-66034920D01*
X124825529Y-66058131D01*
X123465985Y-66081342D01*
X123412659Y-65814714D01*
X123388134Y-65607359D01*
X123369561Y-65288993D01*
X123359994Y-64917911D01*
X123359334Y-64796670D01*
X123359334Y-64045253D01*
X123659871Y-64045253D01*
X123971012Y-64001668D01*
X124253396Y-63888756D01*
X124449133Y-63733286D01*
X124492073Y-63660460D01*
X124528750Y-63482408D01*
X124544648Y-63241775D01*
X124544667Y-63233995D01*
X124544667Y-62944586D01*
X126373869Y-62944586D01*
X126341068Y-64235753D01*
X126341068Y-64235753D01*
G37*
X126341068Y-64235753D02*
X126325526Y-64707420D01*
X126304805Y-65137433D01*
X126281176Y-65488653D01*
X126256906Y-65723941D01*
X126246670Y-65780920D01*
X126185074Y-66034920D01*
X124825529Y-66058131D01*
X123465985Y-66081342D01*
X123412659Y-65814714D01*
X123388134Y-65607359D01*
X123369561Y-65288993D01*
X123359994Y-64917911D01*
X123359334Y-64796670D01*
X123359334Y-64045253D01*
X123659871Y-64045253D01*
X123971012Y-64001668D01*
X124253396Y-63888756D01*
X124449133Y-63733286D01*
X124492073Y-63660460D01*
X124528750Y-63482408D01*
X124544648Y-63241775D01*
X124544667Y-63233995D01*
X124544667Y-62944586D01*
X126373869Y-62944586D01*
X126341068Y-64235753D01*
G36*
X184428813Y-64786086D02*
X184444830Y-65044280D01*
X184438396Y-65385285D01*
X184418468Y-65653920D01*
X184361667Y-66204253D01*
X183112834Y-66227683D01*
X181864000Y-66251113D01*
X181864000Y-65411241D01*
X181868656Y-65013252D01*
X181885657Y-64754145D01*
X181919552Y-64603648D01*
X181974889Y-64531489D01*
X181997925Y-64519978D01*
X182129422Y-64500818D01*
X182394024Y-64484902D01*
X182755515Y-64473708D01*
X183177676Y-64468713D01*
X183257104Y-64468586D01*
X184382358Y-64468586D01*
X184428813Y-64786086D01*
X184428813Y-64786086D01*
G37*
X184428813Y-64786086D02*
X184444830Y-65044280D01*
X184438396Y-65385285D01*
X184418468Y-65653920D01*
X184361667Y-66204253D01*
X183112834Y-66227683D01*
X181864000Y-66251113D01*
X181864000Y-65411241D01*
X181868656Y-65013252D01*
X181885657Y-64754145D01*
X181919552Y-64603648D01*
X181974889Y-64531489D01*
X181997925Y-64519978D01*
X182129422Y-64500818D01*
X182394024Y-64484902D01*
X182755515Y-64473708D01*
X183177676Y-64468713D01*
X183257104Y-64468586D01*
X184382358Y-64468586D01*
X184428813Y-64786086D01*
G36*
X176170167Y-62963223D02*
X177249667Y-62986920D01*
X177295657Y-66246586D01*
X175482553Y-66246586D01*
X174875517Y-66245217D01*
X174416847Y-66240107D01*
X174085592Y-66229751D01*
X173860799Y-66212645D01*
X173721517Y-66187282D01*
X173646792Y-66152158D01*
X173618059Y-66112661D01*
X173595374Y-65972125D01*
X173577807Y-65708328D01*
X173567926Y-65367321D01*
X173566667Y-65190883D01*
X173566667Y-64403028D01*
X174169521Y-64368964D01*
X174579975Y-64322526D01*
X174850352Y-64220498D01*
X175007481Y-64035840D01*
X175078195Y-63741513D01*
X175090667Y-63440677D01*
X175090667Y-62939527D01*
X176170167Y-62963223D01*
X176170167Y-62963223D01*
G37*
X176170167Y-62963223D02*
X177249667Y-62986920D01*
X177295657Y-66246586D01*
X175482553Y-66246586D01*
X174875517Y-66245217D01*
X174416847Y-66240107D01*
X174085592Y-66229751D01*
X173860799Y-66212645D01*
X173721517Y-66187282D01*
X173646792Y-66152158D01*
X173618059Y-66112661D01*
X173595374Y-65972125D01*
X173577807Y-65708328D01*
X173567926Y-65367321D01*
X173566667Y-65190883D01*
X173566667Y-64403028D01*
X174169521Y-64368964D01*
X174579975Y-64322526D01*
X174850352Y-64220498D01*
X175007481Y-64035840D01*
X175078195Y-63741513D01*
X175090667Y-63440677D01*
X175090667Y-62939527D01*
X176170167Y-62963223D01*
G36*
X139555480Y-64786086D02*
X139571496Y-65044280D01*
X139565063Y-65385285D01*
X139545134Y-65653920D01*
X139488334Y-66204253D01*
X138239500Y-66227683D01*
X136990667Y-66251113D01*
X136990667Y-65411241D01*
X136995323Y-65013252D01*
X137012324Y-64754145D01*
X137046218Y-64603648D01*
X137101555Y-64531489D01*
X137124592Y-64519978D01*
X137256088Y-64500818D01*
X137520691Y-64484902D01*
X137882182Y-64473708D01*
X138304343Y-64468713D01*
X138383770Y-64468586D01*
X139509025Y-64468586D01*
X139555480Y-64786086D01*
X139555480Y-64786086D01*
G37*
X139555480Y-64786086D02*
X139571496Y-65044280D01*
X139565063Y-65385285D01*
X139545134Y-65653920D01*
X139488334Y-66204253D01*
X138239500Y-66227683D01*
X136990667Y-66251113D01*
X136990667Y-65411241D01*
X136995323Y-65013252D01*
X137012324Y-64754145D01*
X137046218Y-64603648D01*
X137101555Y-64531489D01*
X137124592Y-64519978D01*
X137256088Y-64500818D01*
X137520691Y-64484902D01*
X137882182Y-64473708D01*
X138304343Y-64468713D01*
X138383770Y-64468586D01*
X139509025Y-64468586D01*
X139555480Y-64786086D01*
G36*
X131296834Y-62963223D02*
X132376334Y-62986920D01*
X132399328Y-64616753D01*
X132422323Y-66246586D01*
X130609220Y-66246586D01*
X130002184Y-66245217D01*
X129543514Y-66240107D01*
X129212259Y-66229751D01*
X128987466Y-66212645D01*
X128848183Y-66187282D01*
X128773459Y-66152158D01*
X128744725Y-66112661D01*
X128722040Y-65972125D01*
X128704473Y-65708328D01*
X128694593Y-65367321D01*
X128693334Y-65190883D01*
X128693334Y-64403028D01*
X129296188Y-64368964D01*
X129706642Y-64322526D01*
X129977018Y-64220498D01*
X130134148Y-64035840D01*
X130204862Y-63741513D01*
X130217334Y-63440677D01*
X130217334Y-62939527D01*
X131296834Y-62963223D01*
X131296834Y-62963223D01*
G37*
X131296834Y-62963223D02*
X132376334Y-62986920D01*
X132399328Y-64616753D01*
X132422323Y-66246586D01*
X130609220Y-66246586D01*
X130002184Y-66245217D01*
X129543514Y-66240107D01*
X129212259Y-66229751D01*
X128987466Y-66212645D01*
X128848183Y-66187282D01*
X128773459Y-66152158D01*
X128744725Y-66112661D01*
X128722040Y-65972125D01*
X128704473Y-65708328D01*
X128694593Y-65367321D01*
X128693334Y-65190883D01*
X128693334Y-64403028D01*
X129296188Y-64368964D01*
X129706642Y-64322526D01*
X129977018Y-64220498D01*
X130134148Y-64035840D01*
X130204862Y-63741513D01*
X130217334Y-63440677D01*
X130217334Y-62939527D01*
X131296834Y-62963223D01*
G36*
X157645829Y-63255587D02*
X157859513Y-63266528D01*
X157929378Y-63282247D01*
X157978847Y-63374955D01*
X158079329Y-63598670D01*
X158220007Y-63926758D01*
X158390062Y-64332584D01*
X158578678Y-64789516D01*
X158775035Y-65270919D01*
X158968317Y-65750159D01*
X159147704Y-66200602D01*
X159302380Y-66595615D01*
X159421526Y-66908563D01*
X159494325Y-67112812D01*
X159512000Y-67178693D01*
X159432797Y-67202077D01*
X159216979Y-67221850D01*
X158897232Y-67237676D01*
X158506242Y-67249219D01*
X158076696Y-67256140D01*
X157641281Y-67258105D01*
X157232683Y-67254774D01*
X156883588Y-67245813D01*
X156626683Y-67230884D01*
X156494981Y-67209785D01*
X156433782Y-67121836D01*
X156325542Y-66903708D01*
X156180818Y-66581891D01*
X156010170Y-66182874D01*
X155824157Y-65733148D01*
X155633337Y-65259204D01*
X155448270Y-64787531D01*
X155279515Y-64344621D01*
X155137630Y-63956963D01*
X155033175Y-63651049D01*
X154976708Y-63453367D01*
X154972913Y-63391202D01*
X155078070Y-63364445D01*
X155317777Y-63337942D01*
X155657468Y-63312966D01*
X156062575Y-63290792D01*
X156498532Y-63272693D01*
X156930771Y-63259943D01*
X157324726Y-63253817D01*
X157645829Y-63255587D01*
X157645829Y-63255587D01*
G37*
X157645829Y-63255587D02*
X157859513Y-63266528D01*
X157929378Y-63282247D01*
X157978847Y-63374955D01*
X158079329Y-63598670D01*
X158220007Y-63926758D01*
X158390062Y-64332584D01*
X158578678Y-64789516D01*
X158775035Y-65270919D01*
X158968317Y-65750159D01*
X159147704Y-66200602D01*
X159302380Y-66595615D01*
X159421526Y-66908563D01*
X159494325Y-67112812D01*
X159512000Y-67178693D01*
X159432797Y-67202077D01*
X159216979Y-67221850D01*
X158897232Y-67237676D01*
X158506242Y-67249219D01*
X158076696Y-67256140D01*
X157641281Y-67258105D01*
X157232683Y-67254774D01*
X156883588Y-67245813D01*
X156626683Y-67230884D01*
X156494981Y-67209785D01*
X156433782Y-67121836D01*
X156325542Y-66903708D01*
X156180818Y-66581891D01*
X156010170Y-66182874D01*
X155824157Y-65733148D01*
X155633337Y-65259204D01*
X155448270Y-64787531D01*
X155279515Y-64344621D01*
X155137630Y-63956963D01*
X155033175Y-63651049D01*
X154976708Y-63453367D01*
X154972913Y-63391202D01*
X155078070Y-63364445D01*
X155317777Y-63337942D01*
X155657468Y-63312966D01*
X156062575Y-63290792D01*
X156498532Y-63272693D01*
X156930771Y-63259943D01*
X157324726Y-63253817D01*
X157645829Y-63255587D01*
G36*
X107293834Y-48212792D02*
X108217064Y-48237242D01*
X109107945Y-48306918D01*
X109938663Y-48417391D01*
X110681405Y-48564233D01*
X111308356Y-48743015D01*
X111735962Y-48920072D01*
X112111964Y-49163393D01*
X112495902Y-49500865D01*
X112849578Y-49889967D01*
X113134794Y-50288180D01*
X113313351Y-50652982D01*
X113324616Y-50688487D01*
X113458197Y-51208319D01*
X113552686Y-51753257D01*
X113612754Y-52363908D01*
X113643074Y-53080878D01*
X113648608Y-53504253D01*
X113645709Y-54109219D01*
X113624397Y-54580931D01*
X113576961Y-54955126D01*
X113495686Y-55267544D01*
X113372860Y-55553926D01*
X113200769Y-55850011D01*
X113113552Y-55983451D01*
X112947337Y-56242083D01*
X112826813Y-56448164D01*
X112776290Y-56559922D01*
X112776000Y-56563453D01*
X112832961Y-56654021D01*
X112983656Y-56825822D01*
X113197806Y-57044786D01*
X113242084Y-57087862D01*
X113698494Y-57638072D01*
X114071447Y-58311676D01*
X114358698Y-59083483D01*
X114558004Y-59928299D01*
X114667123Y-60820932D01*
X114683810Y-61736191D01*
X114605823Y-62648883D01*
X114430919Y-63533816D01*
X114156854Y-64365798D01*
X113933227Y-64849586D01*
X113719715Y-65186547D01*
X113412579Y-65577030D01*
X113051824Y-65970555D01*
X113017799Y-66004689D01*
X112436711Y-66521642D01*
X111873765Y-66889188D01*
X111302807Y-67121357D01*
X110735976Y-67228642D01*
X110177619Y-67283277D01*
X110122143Y-66752512D01*
X110101729Y-66469403D01*
X110084698Y-66065927D01*
X110072579Y-65591042D01*
X110066901Y-65093702D01*
X110066667Y-64977025D01*
X110066667Y-63732304D01*
X110412514Y-63576348D01*
X110857820Y-63285489D01*
X111204916Y-62866555D01*
X111445814Y-62334765D01*
X111572530Y-61705338D01*
X111590667Y-61331197D01*
X111522520Y-60650770D01*
X111317764Y-60069464D01*
X111118962Y-59754145D01*
X110974557Y-59579210D01*
X110825616Y-59444454D01*
X110647635Y-59343759D01*
X110416107Y-59271013D01*
X110106530Y-59220100D01*
X109694396Y-59184906D01*
X109155202Y-59159316D01*
X108670949Y-59143296D01*
X106976334Y-59092253D01*
X106953377Y-57473384D01*
X106930421Y-55854515D01*
X108054044Y-55795469D01*
X108632219Y-55760790D01*
X109070369Y-55720309D01*
X109397783Y-55665642D01*
X109643748Y-55588403D01*
X109837553Y-55480205D01*
X110008486Y-55332663D01*
X110130765Y-55200859D01*
X110444328Y-54733864D01*
X110638720Y-54203937D01*
X110717936Y-53641375D01*
X110685967Y-53076474D01*
X110546806Y-52539530D01*
X110304446Y-52060840D01*
X109962881Y-51670700D01*
X109636499Y-51450572D01*
X109447459Y-51366630D01*
X109234134Y-51303478D01*
X108961305Y-51255052D01*
X108593756Y-51215292D01*
X108096270Y-51178134D01*
X108027832Y-51173670D01*
X107593314Y-51145596D01*
X107224001Y-51121680D01*
X106950344Y-51103898D01*
X106802793Y-51094226D01*
X106785834Y-51093064D01*
X106778886Y-51012364D01*
X106772897Y-50789869D01*
X106768271Y-50453117D01*
X106765411Y-50029647D01*
X106764667Y-49651920D01*
X106764667Y-48212586D01*
X107293834Y-48212792D01*
X107293834Y-48212792D01*
G37*
X107293834Y-48212792D02*
X108217064Y-48237242D01*
X109107945Y-48306918D01*
X109938663Y-48417391D01*
X110681405Y-48564233D01*
X111308356Y-48743015D01*
X111735962Y-48920072D01*
X112111964Y-49163393D01*
X112495902Y-49500865D01*
X112849578Y-49889967D01*
X113134794Y-50288180D01*
X113313351Y-50652982D01*
X113324616Y-50688487D01*
X113458197Y-51208319D01*
X113552686Y-51753257D01*
X113612754Y-52363908D01*
X113643074Y-53080878D01*
X113648608Y-53504253D01*
X113645709Y-54109219D01*
X113624397Y-54580931D01*
X113576961Y-54955126D01*
X113495686Y-55267544D01*
X113372860Y-55553926D01*
X113200769Y-55850011D01*
X113113552Y-55983451D01*
X112947337Y-56242083D01*
X112826813Y-56448164D01*
X112776290Y-56559922D01*
X112776000Y-56563453D01*
X112832961Y-56654021D01*
X112983656Y-56825822D01*
X113197806Y-57044786D01*
X113242084Y-57087862D01*
X113698494Y-57638072D01*
X114071447Y-58311676D01*
X114358698Y-59083483D01*
X114558004Y-59928299D01*
X114667123Y-60820932D01*
X114683810Y-61736191D01*
X114605823Y-62648883D01*
X114430919Y-63533816D01*
X114156854Y-64365798D01*
X113933227Y-64849586D01*
X113719715Y-65186547D01*
X113412579Y-65577030D01*
X113051824Y-65970555D01*
X113017799Y-66004689D01*
X112436711Y-66521642D01*
X111873765Y-66889188D01*
X111302807Y-67121357D01*
X110735976Y-67228642D01*
X110177619Y-67283277D01*
X110122143Y-66752512D01*
X110101729Y-66469403D01*
X110084698Y-66065927D01*
X110072579Y-65591042D01*
X110066901Y-65093702D01*
X110066667Y-64977025D01*
X110066667Y-63732304D01*
X110412514Y-63576348D01*
X110857820Y-63285489D01*
X111204916Y-62866555D01*
X111445814Y-62334765D01*
X111572530Y-61705338D01*
X111590667Y-61331197D01*
X111522520Y-60650770D01*
X111317764Y-60069464D01*
X111118962Y-59754145D01*
X110974557Y-59579210D01*
X110825616Y-59444454D01*
X110647635Y-59343759D01*
X110416107Y-59271013D01*
X110106530Y-59220100D01*
X109694396Y-59184906D01*
X109155202Y-59159316D01*
X108670949Y-59143296D01*
X106976334Y-59092253D01*
X106953377Y-57473384D01*
X106930421Y-55854515D01*
X108054044Y-55795469D01*
X108632219Y-55760790D01*
X109070369Y-55720309D01*
X109397783Y-55665642D01*
X109643748Y-55588403D01*
X109837553Y-55480205D01*
X110008486Y-55332663D01*
X110130765Y-55200859D01*
X110444328Y-54733864D01*
X110638720Y-54203937D01*
X110717936Y-53641375D01*
X110685967Y-53076474D01*
X110546806Y-52539530D01*
X110304446Y-52060840D01*
X109962881Y-51670700D01*
X109636499Y-51450572D01*
X109447459Y-51366630D01*
X109234134Y-51303478D01*
X108961305Y-51255052D01*
X108593756Y-51215292D01*
X108096270Y-51178134D01*
X108027832Y-51173670D01*
X107593314Y-51145596D01*
X107224001Y-51121680D01*
X106950344Y-51103898D01*
X106802793Y-51094226D01*
X106785834Y-51093064D01*
X106778886Y-51012364D01*
X106772897Y-50789869D01*
X106768271Y-50453117D01*
X106765411Y-50029647D01*
X106764667Y-49651920D01*
X106764667Y-48212586D01*
X107293834Y-48212792D01*
G36*
X103958216Y-59550287D02*
X103928334Y-63606655D01*
X104224667Y-63655689D01*
X104413514Y-63673101D01*
X104733088Y-63687922D01*
X105144785Y-63698936D01*
X105610005Y-63704928D01*
X105812167Y-63705654D01*
X107103334Y-63706586D01*
X107103334Y-67262586D01*
X100695678Y-67262586D01*
X100639839Y-65343903D01*
X100627918Y-64842673D01*
X100616866Y-64201258D01*
X100606962Y-63448806D01*
X100598481Y-62614467D01*
X100591700Y-61727387D01*
X100586895Y-60816714D01*
X100584344Y-59911598D01*
X100584000Y-59459570D01*
X100584000Y-55493920D01*
X102286050Y-55493919D01*
X103988099Y-55493919D01*
X103958216Y-59550287D01*
X103958216Y-59550287D01*
G37*
X103958216Y-59550287D02*
X103928334Y-63606655D01*
X104224667Y-63655689D01*
X104413514Y-63673101D01*
X104733088Y-63687922D01*
X105144785Y-63698936D01*
X105610005Y-63704928D01*
X105812167Y-63705654D01*
X107103334Y-63706586D01*
X107103334Y-67262586D01*
X100695678Y-67262586D01*
X100639839Y-65343903D01*
X100627918Y-64842673D01*
X100616866Y-64201258D01*
X100606962Y-63448806D01*
X100598481Y-62614467D01*
X100591700Y-61727387D01*
X100586895Y-60816714D01*
X100584344Y-59911598D01*
X100584000Y-59459570D01*
X100584000Y-55493920D01*
X102286050Y-55493919D01*
X103988099Y-55493919D01*
X103958216Y-59550287D01*
G36*
X151874339Y-48329535D02*
X152607545Y-48336369D01*
X153340030Y-48348083D01*
X153490181Y-48351154D01*
X156172565Y-48408264D01*
X156780183Y-49940259D01*
X156982236Y-50450278D01*
X157174993Y-50937897D01*
X157345005Y-51369015D01*
X157478826Y-51709531D01*
X157560638Y-51919221D01*
X157733475Y-52366189D01*
X156527238Y-53623569D01*
X156209133Y-53954275D01*
X155792077Y-54386482D01*
X155295258Y-54900375D01*
X154737864Y-55476141D01*
X154139083Y-56093968D01*
X153518102Y-56734040D01*
X152894110Y-57376546D01*
X152532449Y-57748601D01*
X151699115Y-58607753D01*
X150917073Y-59418344D01*
X150193791Y-60172430D01*
X149536739Y-60862067D01*
X148953386Y-61479312D01*
X148451201Y-62016221D01*
X148037652Y-62464851D01*
X147720210Y-62817257D01*
X147506343Y-63065497D01*
X147403520Y-63201626D01*
X147401104Y-63205946D01*
X147393688Y-63243670D01*
X147427643Y-63273541D01*
X147519610Y-63296385D01*
X147686229Y-63313029D01*
X147944140Y-63324299D01*
X148309982Y-63331021D01*
X148800397Y-63334022D01*
X149432023Y-63334128D01*
X149958536Y-63332946D01*
X152588251Y-63325586D01*
X153350484Y-65213839D01*
X153560784Y-65742742D01*
X153744127Y-66219215D01*
X153892468Y-66621060D01*
X153997766Y-66926080D01*
X154051978Y-67112078D01*
X154055421Y-67159388D01*
X153944393Y-67187087D01*
X153675532Y-67213428D01*
X153260335Y-67238115D01*
X152710297Y-67260853D01*
X152036916Y-67281343D01*
X151251688Y-67299291D01*
X150366111Y-67314399D01*
X149391680Y-67326371D01*
X148339892Y-67334910D01*
X147222244Y-67339721D01*
X147045970Y-67340110D01*
X143342939Y-67347253D01*
X143208028Y-67029753D01*
X143058747Y-66672076D01*
X142879437Y-66232717D01*
X142685527Y-65750552D01*
X142492446Y-65264456D01*
X142315625Y-64813305D01*
X142170493Y-64435975D01*
X142072478Y-64171342D01*
X142064111Y-64147559D01*
X141908027Y-63699532D01*
X142772514Y-62779897D01*
X143037088Y-62498087D01*
X143396926Y-62114277D01*
X143831682Y-61650196D01*
X144321012Y-61127571D01*
X144844571Y-60568130D01*
X145382015Y-59993602D01*
X145801558Y-59544924D01*
X146652680Y-58637273D01*
X147597932Y-57634198D01*
X148613012Y-56561307D01*
X149673622Y-55444208D01*
X150755461Y-54308508D01*
X151834230Y-53179815D01*
X152561091Y-52421610D01*
X152766503Y-52196875D01*
X152861891Y-52056839D01*
X152862841Y-51972639D01*
X152823246Y-51936074D01*
X152700241Y-51909867D01*
X152438085Y-51887096D01*
X152066948Y-51869282D01*
X151617002Y-51857947D01*
X151206274Y-51854549D01*
X150663207Y-51850859D01*
X150125454Y-51841501D01*
X149638161Y-51827658D01*
X149246475Y-51810515D01*
X149068441Y-51798496D01*
X148420667Y-51743739D01*
X148420667Y-48407998D01*
X149614232Y-48351021D01*
X150010357Y-48338324D01*
X150541747Y-48330511D01*
X151174407Y-48327582D01*
X151874339Y-48329535D01*
X151874339Y-48329535D01*
G37*
X151874339Y-48329535D02*
X152607545Y-48336369D01*
X153340030Y-48348083D01*
X153490181Y-48351154D01*
X156172565Y-48408264D01*
X156780183Y-49940259D01*
X156982236Y-50450278D01*
X157174993Y-50937897D01*
X157345005Y-51369015D01*
X157478826Y-51709531D01*
X157560638Y-51919221D01*
X157733475Y-52366189D01*
X156527238Y-53623569D01*
X156209133Y-53954275D01*
X155792077Y-54386482D01*
X155295258Y-54900375D01*
X154737864Y-55476141D01*
X154139083Y-56093968D01*
X153518102Y-56734040D01*
X152894110Y-57376546D01*
X152532449Y-57748601D01*
X151699115Y-58607753D01*
X150917073Y-59418344D01*
X150193791Y-60172430D01*
X149536739Y-60862067D01*
X148953386Y-61479312D01*
X148451201Y-62016221D01*
X148037652Y-62464851D01*
X147720210Y-62817257D01*
X147506343Y-63065497D01*
X147403520Y-63201626D01*
X147401104Y-63205946D01*
X147393688Y-63243670D01*
X147427643Y-63273541D01*
X147519610Y-63296385D01*
X147686229Y-63313029D01*
X147944140Y-63324299D01*
X148309982Y-63331021D01*
X148800397Y-63334022D01*
X149432023Y-63334128D01*
X149958536Y-63332946D01*
X152588251Y-63325586D01*
X153350484Y-65213839D01*
X153560784Y-65742742D01*
X153744127Y-66219215D01*
X153892468Y-66621060D01*
X153997766Y-66926080D01*
X154051978Y-67112078D01*
X154055421Y-67159388D01*
X153944393Y-67187087D01*
X153675532Y-67213428D01*
X153260335Y-67238115D01*
X152710297Y-67260853D01*
X152036916Y-67281343D01*
X151251688Y-67299291D01*
X150366111Y-67314399D01*
X149391680Y-67326371D01*
X148339892Y-67334910D01*
X147222244Y-67339721D01*
X147045970Y-67340110D01*
X143342939Y-67347253D01*
X143208028Y-67029753D01*
X143058747Y-66672076D01*
X142879437Y-66232717D01*
X142685527Y-65750552D01*
X142492446Y-65264456D01*
X142315625Y-64813305D01*
X142170493Y-64435975D01*
X142072478Y-64171342D01*
X142064111Y-64147559D01*
X141908027Y-63699532D01*
X142772514Y-62779897D01*
X143037088Y-62498087D01*
X143396926Y-62114277D01*
X143831682Y-61650196D01*
X144321012Y-61127571D01*
X144844571Y-60568130D01*
X145382015Y-59993602D01*
X145801558Y-59544924D01*
X146652680Y-58637273D01*
X147597932Y-57634198D01*
X148613012Y-56561307D01*
X149673622Y-55444208D01*
X150755461Y-54308508D01*
X151834230Y-53179815D01*
X152561091Y-52421610D01*
X152766503Y-52196875D01*
X152861891Y-52056839D01*
X152862841Y-51972639D01*
X152823246Y-51936074D01*
X152700241Y-51909867D01*
X152438085Y-51887096D01*
X152066948Y-51869282D01*
X151617002Y-51857947D01*
X151206274Y-51854549D01*
X150663207Y-51850859D01*
X150125454Y-51841501D01*
X149638161Y-51827658D01*
X149246475Y-51810515D01*
X149068441Y-51798496D01*
X148420667Y-51743739D01*
X148420667Y-48407998D01*
X149614232Y-48351021D01*
X150010357Y-48338324D01*
X150541747Y-48330511D01*
X151174407Y-48327582D01*
X151874339Y-48329535D01*
G36*
X160585800Y-76080998D02*
X161153923Y-76084103D01*
X161618767Y-76089372D01*
X161960743Y-76096679D01*
X162160258Y-76105900D01*
X162194125Y-76109785D01*
X162553443Y-76245389D01*
X162793814Y-76501292D01*
X162893929Y-76766420D01*
X162965501Y-77083920D01*
X162473342Y-77083920D01*
X162086245Y-77097733D01*
X161845652Y-77143047D01*
X161730690Y-77225676D01*
X161713334Y-77295586D01*
X161791433Y-77422757D01*
X162026742Y-77492966D01*
X162291758Y-77508549D01*
X162480802Y-77520041D01*
X162516989Y-77556941D01*
X162475334Y-77591920D01*
X162356408Y-77614825D01*
X162085965Y-77635034D01*
X161681805Y-77651967D01*
X161161732Y-77665045D01*
X160543547Y-77673688D01*
X159850667Y-77677310D01*
X159039529Y-77680334D01*
X158379840Y-77688196D01*
X157853742Y-77702631D01*
X157443380Y-77725377D01*
X157130896Y-77758171D01*
X156898435Y-77802751D01*
X156728139Y-77860852D01*
X156602152Y-77934213D01*
X156525506Y-78000784D01*
X156466382Y-78070857D01*
X156423488Y-78162004D01*
X156394571Y-78299586D01*
X156377380Y-78508963D01*
X156369661Y-78815496D01*
X156369162Y-79244546D01*
X156372704Y-79721317D01*
X156378381Y-80269917D01*
X156386165Y-80675180D01*
X156399342Y-80963100D01*
X156421198Y-81159668D01*
X156455020Y-81290879D01*
X156504096Y-81382724D01*
X156571711Y-81461196D01*
X156595801Y-81485713D01*
X156804768Y-81696506D01*
X161026090Y-81759372D01*
X162137431Y-83223259D01*
X163248771Y-84687146D01*
X163221886Y-87214366D01*
X163213352Y-87967304D01*
X163203352Y-88570422D01*
X163188655Y-89043225D01*
X163166032Y-89405216D01*
X163132255Y-89675901D01*
X163084093Y-89874782D01*
X163018319Y-90021365D01*
X162931702Y-90135155D01*
X162821014Y-90235654D01*
X162707030Y-90324103D01*
X162433000Y-90532503D01*
X159596667Y-90560378D01*
X158880619Y-90565839D01*
X158184532Y-90568214D01*
X157535428Y-90567628D01*
X156960331Y-90564207D01*
X156486263Y-90558075D01*
X156140249Y-90549358D01*
X156018593Y-90543767D01*
X155659524Y-90519220D01*
X155421003Y-90486346D01*
X155254478Y-90427932D01*
X155111394Y-90326764D01*
X154943201Y-90165630D01*
X154938372Y-90160801D01*
X154773224Y-89986117D01*
X154666263Y-89830631D01*
X154597775Y-89644758D01*
X154548045Y-89378912D01*
X154509274Y-89081495D01*
X154488812Y-88815819D01*
X154471892Y-88384614D01*
X154464938Y-88075534D01*
X156379334Y-88075534D01*
X156900326Y-88513920D01*
X159000129Y-88513920D01*
X159659243Y-88512810D01*
X160169311Y-88508630D01*
X160550609Y-88500101D01*
X160823415Y-88485943D01*
X161008007Y-88464880D01*
X161124662Y-88435631D01*
X161193656Y-88396919D01*
X161216133Y-88374199D01*
X161263566Y-88234212D01*
X161303264Y-87960587D01*
X161334311Y-87588884D01*
X161355792Y-87154660D01*
X161366788Y-86693474D01*
X161366385Y-86240885D01*
X161353666Y-85832451D01*
X161327715Y-85503731D01*
X161294970Y-85315044D01*
X161206960Y-85106610D01*
X161040618Y-84808950D01*
X160822014Y-84466159D01*
X160638640Y-84204877D01*
X160073650Y-83433920D01*
X159559992Y-83433637D01*
X159290827Y-83429927D01*
X158897681Y-83419911D01*
X158425731Y-83404951D01*
X157920156Y-83386406D01*
X157712834Y-83378049D01*
X156379334Y-83322742D01*
X156379334Y-88075534D01*
X154464938Y-88075534D01*
X154458550Y-87791651D01*
X154448823Y-87040699D01*
X154442747Y-86135525D01*
X154440358Y-85079901D01*
X154441693Y-83877594D01*
X154446495Y-82592514D01*
X154474334Y-76844358D01*
X154701008Y-76521874D01*
X161672258Y-76521874D01*
X161724580Y-76631804D01*
X161871178Y-76720582D01*
X162020382Y-76641153D01*
X162083375Y-76556811D01*
X162110106Y-76396408D01*
X162032650Y-76254656D01*
X161895346Y-76195557D01*
X161840690Y-76206498D01*
X161698995Y-76335727D01*
X161672258Y-76521874D01*
X154701008Y-76521874D01*
X154732336Y-76477305D01*
X154990338Y-76110253D01*
X158457669Y-76085915D01*
X159218082Y-76081779D01*
X159933989Y-76080181D01*
X160585800Y-76080998D01*
X160585800Y-76080998D01*
G37*
X160585800Y-76080998D02*
X161153923Y-76084103D01*
X161618767Y-76089372D01*
X161960743Y-76096679D01*
X162160258Y-76105900D01*
X162194125Y-76109785D01*
X162553443Y-76245389D01*
X162793814Y-76501292D01*
X162893929Y-76766420D01*
X162965501Y-77083920D01*
X162473342Y-77083920D01*
X162086245Y-77097733D01*
X161845652Y-77143047D01*
X161730690Y-77225676D01*
X161713334Y-77295586D01*
X161791433Y-77422757D01*
X162026742Y-77492966D01*
X162291758Y-77508549D01*
X162480802Y-77520041D01*
X162516989Y-77556941D01*
X162475334Y-77591920D01*
X162356408Y-77614825D01*
X162085965Y-77635034D01*
X161681805Y-77651967D01*
X161161732Y-77665045D01*
X160543547Y-77673688D01*
X159850667Y-77677310D01*
X159039529Y-77680334D01*
X158379840Y-77688196D01*
X157853742Y-77702631D01*
X157443380Y-77725377D01*
X157130896Y-77758171D01*
X156898435Y-77802751D01*
X156728139Y-77860852D01*
X156602152Y-77934213D01*
X156525506Y-78000784D01*
X156466382Y-78070857D01*
X156423488Y-78162004D01*
X156394571Y-78299586D01*
X156377380Y-78508963D01*
X156369661Y-78815496D01*
X156369162Y-79244546D01*
X156372704Y-79721317D01*
X156378381Y-80269917D01*
X156386165Y-80675180D01*
X156399342Y-80963100D01*
X156421198Y-81159668D01*
X156455020Y-81290879D01*
X156504096Y-81382724D01*
X156571711Y-81461196D01*
X156595801Y-81485713D01*
X156804768Y-81696506D01*
X161026090Y-81759372D01*
X162137431Y-83223259D01*
X163248771Y-84687146D01*
X163221886Y-87214366D01*
X163213352Y-87967304D01*
X163203352Y-88570422D01*
X163188655Y-89043225D01*
X163166032Y-89405216D01*
X163132255Y-89675901D01*
X163084093Y-89874782D01*
X163018319Y-90021365D01*
X162931702Y-90135155D01*
X162821014Y-90235654D01*
X162707030Y-90324103D01*
X162433000Y-90532503D01*
X159596667Y-90560378D01*
X158880619Y-90565839D01*
X158184532Y-90568214D01*
X157535428Y-90567628D01*
X156960331Y-90564207D01*
X156486263Y-90558075D01*
X156140249Y-90549358D01*
X156018593Y-90543767D01*
X155659524Y-90519220D01*
X155421003Y-90486346D01*
X155254478Y-90427932D01*
X155111394Y-90326764D01*
X154943201Y-90165630D01*
X154938372Y-90160801D01*
X154773224Y-89986117D01*
X154666263Y-89830631D01*
X154597775Y-89644758D01*
X154548045Y-89378912D01*
X154509274Y-89081495D01*
X154488812Y-88815819D01*
X154471892Y-88384614D01*
X154464938Y-88075534D01*
X156379334Y-88075534D01*
X156900326Y-88513920D01*
X159000129Y-88513920D01*
X159659243Y-88512810D01*
X160169311Y-88508630D01*
X160550609Y-88500101D01*
X160823415Y-88485943D01*
X161008007Y-88464880D01*
X161124662Y-88435631D01*
X161193656Y-88396919D01*
X161216133Y-88374199D01*
X161263566Y-88234212D01*
X161303264Y-87960587D01*
X161334311Y-87588884D01*
X161355792Y-87154660D01*
X161366788Y-86693474D01*
X161366385Y-86240885D01*
X161353666Y-85832451D01*
X161327715Y-85503731D01*
X161294970Y-85315044D01*
X161206960Y-85106610D01*
X161040618Y-84808950D01*
X160822014Y-84466159D01*
X160638640Y-84204877D01*
X160073650Y-83433920D01*
X159559992Y-83433637D01*
X159290827Y-83429927D01*
X158897681Y-83419911D01*
X158425731Y-83404951D01*
X157920156Y-83386406D01*
X157712834Y-83378049D01*
X156379334Y-83322742D01*
X156379334Y-88075534D01*
X154464938Y-88075534D01*
X154458550Y-87791651D01*
X154448823Y-87040699D01*
X154442747Y-86135525D01*
X154440358Y-85079901D01*
X154441693Y-83877594D01*
X154446495Y-82592514D01*
X154474334Y-76844358D01*
X154701008Y-76521874D01*
X161672258Y-76521874D01*
X161724580Y-76631804D01*
X161871178Y-76720582D01*
X162020382Y-76641153D01*
X162083375Y-76556811D01*
X162110106Y-76396408D01*
X162032650Y-76254656D01*
X161895346Y-76195557D01*
X161840690Y-76206498D01*
X161698995Y-76335727D01*
X161672258Y-76521874D01*
X154701008Y-76521874D01*
X154732336Y-76477305D01*
X154990338Y-76110253D01*
X158457669Y-76085915D01*
X159218082Y-76081779D01*
X159933989Y-76080181D01*
X160585800Y-76080998D01*
G36*
X150002466Y-76080998D02*
X150570589Y-76084103D01*
X151035434Y-76089372D01*
X151377409Y-76096679D01*
X151576925Y-76105900D01*
X151610792Y-76109785D01*
X151970110Y-76245389D01*
X152210481Y-76501292D01*
X152310596Y-76766420D01*
X152382168Y-77083920D01*
X151890009Y-77083920D01*
X151502912Y-77097733D01*
X151262318Y-77143047D01*
X151147356Y-77225676D01*
X151130000Y-77295586D01*
X151208100Y-77422757D01*
X151443409Y-77492966D01*
X151708425Y-77508549D01*
X151897469Y-77520041D01*
X151933656Y-77556941D01*
X151892000Y-77591920D01*
X151773075Y-77614825D01*
X151502631Y-77635034D01*
X151098472Y-77651967D01*
X150578399Y-77665045D01*
X149960214Y-77673688D01*
X149267334Y-77677310D01*
X148456196Y-77680334D01*
X147796506Y-77688196D01*
X147270409Y-77702631D01*
X146860047Y-77725377D01*
X146547563Y-77758171D01*
X146315102Y-77802751D01*
X146144806Y-77860852D01*
X146018819Y-77934213D01*
X145942173Y-78000784D01*
X145883049Y-78070857D01*
X145840155Y-78162004D01*
X145811238Y-78299586D01*
X145794046Y-78508963D01*
X145786327Y-78815496D01*
X145785829Y-79244546D01*
X145789370Y-79721317D01*
X145795048Y-80269917D01*
X145802832Y-80675180D01*
X145816008Y-80963100D01*
X145837865Y-81159668D01*
X145871687Y-81290879D01*
X145920763Y-81382724D01*
X145988377Y-81461196D01*
X146012467Y-81485713D01*
X146221435Y-81696506D01*
X150442757Y-81759372D01*
X151554097Y-83223259D01*
X152665438Y-84687146D01*
X152638552Y-87214366D01*
X152630019Y-87967304D01*
X152620018Y-88570422D01*
X152605321Y-89043225D01*
X152582699Y-89405216D01*
X152548921Y-89675901D01*
X152500760Y-89874782D01*
X152434985Y-90021365D01*
X152348369Y-90135155D01*
X152237680Y-90235654D01*
X152123696Y-90324103D01*
X151849667Y-90532503D01*
X149013334Y-90560378D01*
X148297286Y-90565839D01*
X147601199Y-90568214D01*
X146952095Y-90567628D01*
X146376997Y-90564207D01*
X145902930Y-90558075D01*
X145556916Y-90549358D01*
X145435259Y-90543767D01*
X145076191Y-90519220D01*
X144837670Y-90486346D01*
X144671144Y-90427932D01*
X144528061Y-90326764D01*
X144359868Y-90165630D01*
X144355038Y-90160801D01*
X144189891Y-89986117D01*
X144082930Y-89830631D01*
X144014441Y-89644758D01*
X143964712Y-89378912D01*
X143925940Y-89081495D01*
X143905479Y-88815819D01*
X143888559Y-88384614D01*
X143881605Y-88075534D01*
X145796000Y-88075534D01*
X146316992Y-88513920D01*
X148416796Y-88513920D01*
X149075910Y-88512810D01*
X149585977Y-88508630D01*
X149967276Y-88500101D01*
X150240082Y-88485943D01*
X150424674Y-88464880D01*
X150541328Y-88435631D01*
X150610323Y-88396919D01*
X150632800Y-88374199D01*
X150680232Y-88234212D01*
X150719930Y-87960587D01*
X150750978Y-87588884D01*
X150772458Y-87154660D01*
X150783455Y-86693474D01*
X150783052Y-86240885D01*
X150770333Y-85832451D01*
X150744381Y-85503731D01*
X150711637Y-85315044D01*
X150623627Y-85106610D01*
X150457285Y-84808950D01*
X150238681Y-84466159D01*
X150055307Y-84204877D01*
X149490317Y-83433920D01*
X148976659Y-83433637D01*
X148707494Y-83429927D01*
X148314348Y-83419911D01*
X147842398Y-83404951D01*
X147336823Y-83386406D01*
X147129500Y-83378049D01*
X145796000Y-83322742D01*
X145796000Y-88075534D01*
X143881605Y-88075534D01*
X143875217Y-87791651D01*
X143865490Y-87040699D01*
X143859414Y-86135525D01*
X143857025Y-85079901D01*
X143858360Y-83877594D01*
X143863161Y-82592514D01*
X143891000Y-76844358D01*
X144117674Y-76521874D01*
X151088925Y-76521874D01*
X151141247Y-76631804D01*
X151287845Y-76720582D01*
X151437049Y-76641153D01*
X151500042Y-76556811D01*
X151526772Y-76396408D01*
X151449316Y-76254656D01*
X151312013Y-76195557D01*
X151257356Y-76206498D01*
X151115662Y-76335727D01*
X151088925Y-76521874D01*
X144117674Y-76521874D01*
X144149002Y-76477305D01*
X144407005Y-76110253D01*
X147874336Y-76085915D01*
X148634749Y-76081779D01*
X149350656Y-76080181D01*
X150002466Y-76080998D01*
X150002466Y-76080998D01*
G37*
X150002466Y-76080998D02*
X150570589Y-76084103D01*
X151035434Y-76089372D01*
X151377409Y-76096679D01*
X151576925Y-76105900D01*
X151610792Y-76109785D01*
X151970110Y-76245389D01*
X152210481Y-76501292D01*
X152310596Y-76766420D01*
X152382168Y-77083920D01*
X151890009Y-77083920D01*
X151502912Y-77097733D01*
X151262318Y-77143047D01*
X151147356Y-77225676D01*
X151130000Y-77295586D01*
X151208100Y-77422757D01*
X151443409Y-77492966D01*
X151708425Y-77508549D01*
X151897469Y-77520041D01*
X151933656Y-77556941D01*
X151892000Y-77591920D01*
X151773075Y-77614825D01*
X151502631Y-77635034D01*
X151098472Y-77651967D01*
X150578399Y-77665045D01*
X149960214Y-77673688D01*
X149267334Y-77677310D01*
X148456196Y-77680334D01*
X147796506Y-77688196D01*
X147270409Y-77702631D01*
X146860047Y-77725377D01*
X146547563Y-77758171D01*
X146315102Y-77802751D01*
X146144806Y-77860852D01*
X146018819Y-77934213D01*
X145942173Y-78000784D01*
X145883049Y-78070857D01*
X145840155Y-78162004D01*
X145811238Y-78299586D01*
X145794046Y-78508963D01*
X145786327Y-78815496D01*
X145785829Y-79244546D01*
X145789370Y-79721317D01*
X145795048Y-80269917D01*
X145802832Y-80675180D01*
X145816008Y-80963100D01*
X145837865Y-81159668D01*
X145871687Y-81290879D01*
X145920763Y-81382724D01*
X145988377Y-81461196D01*
X146012467Y-81485713D01*
X146221435Y-81696506D01*
X150442757Y-81759372D01*
X151554097Y-83223259D01*
X152665438Y-84687146D01*
X152638552Y-87214366D01*
X152630019Y-87967304D01*
X152620018Y-88570422D01*
X152605321Y-89043225D01*
X152582699Y-89405216D01*
X152548921Y-89675901D01*
X152500760Y-89874782D01*
X152434985Y-90021365D01*
X152348369Y-90135155D01*
X152237680Y-90235654D01*
X152123696Y-90324103D01*
X151849667Y-90532503D01*
X149013334Y-90560378D01*
X148297286Y-90565839D01*
X147601199Y-90568214D01*
X146952095Y-90567628D01*
X146376997Y-90564207D01*
X145902930Y-90558075D01*
X145556916Y-90549358D01*
X145435259Y-90543767D01*
X145076191Y-90519220D01*
X144837670Y-90486346D01*
X144671144Y-90427932D01*
X144528061Y-90326764D01*
X144359868Y-90165630D01*
X144355038Y-90160801D01*
X144189891Y-89986117D01*
X144082930Y-89830631D01*
X144014441Y-89644758D01*
X143964712Y-89378912D01*
X143925940Y-89081495D01*
X143905479Y-88815819D01*
X143888559Y-88384614D01*
X143881605Y-88075534D01*
X145796000Y-88075534D01*
X146316992Y-88513920D01*
X148416796Y-88513920D01*
X149075910Y-88512810D01*
X149585977Y-88508630D01*
X149967276Y-88500101D01*
X150240082Y-88485943D01*
X150424674Y-88464880D01*
X150541328Y-88435631D01*
X150610323Y-88396919D01*
X150632800Y-88374199D01*
X150680232Y-88234212D01*
X150719930Y-87960587D01*
X150750978Y-87588884D01*
X150772458Y-87154660D01*
X150783455Y-86693474D01*
X150783052Y-86240885D01*
X150770333Y-85832451D01*
X150744381Y-85503731D01*
X150711637Y-85315044D01*
X150623627Y-85106610D01*
X150457285Y-84808950D01*
X150238681Y-84466159D01*
X150055307Y-84204877D01*
X149490317Y-83433920D01*
X148976659Y-83433637D01*
X148707494Y-83429927D01*
X148314348Y-83419911D01*
X147842398Y-83404951D01*
X147336823Y-83386406D01*
X147129500Y-83378049D01*
X145796000Y-83322742D01*
X145796000Y-88075534D01*
X143881605Y-88075534D01*
X143875217Y-87791651D01*
X143865490Y-87040699D01*
X143859414Y-86135525D01*
X143857025Y-85079901D01*
X143858360Y-83877594D01*
X143863161Y-82592514D01*
X143891000Y-76844358D01*
X144117674Y-76521874D01*
X151088925Y-76521874D01*
X151141247Y-76631804D01*
X151287845Y-76720582D01*
X151437049Y-76641153D01*
X151500042Y-76556811D01*
X151526772Y-76396408D01*
X151449316Y-76254656D01*
X151312013Y-76195557D01*
X151257356Y-76206498D01*
X151115662Y-76335727D01*
X151088925Y-76521874D01*
X144117674Y-76521874D01*
X144149002Y-76477305D01*
X144407005Y-76110253D01*
X147874336Y-76085915D01*
X148634749Y-76081779D01*
X149350656Y-76080181D01*
X150002466Y-76080998D01*
G36*
X139419133Y-76080998D02*
X139987256Y-76084103D01*
X140452101Y-76089372D01*
X140794076Y-76096679D01*
X140993591Y-76105900D01*
X141027459Y-76109785D01*
X141386776Y-76245389D01*
X141627148Y-76501292D01*
X141727262Y-76766420D01*
X141798834Y-77083920D01*
X141306675Y-77083920D01*
X140919579Y-77097733D01*
X140678985Y-77143047D01*
X140564023Y-77225676D01*
X140546667Y-77295586D01*
X140624767Y-77422757D01*
X140860075Y-77492966D01*
X141125092Y-77508549D01*
X141314136Y-77520041D01*
X141350322Y-77556941D01*
X141308667Y-77591920D01*
X141189741Y-77614825D01*
X140919298Y-77635034D01*
X140515139Y-77651967D01*
X139995065Y-77665045D01*
X139376880Y-77673688D01*
X138684000Y-77677310D01*
X137872862Y-77680334D01*
X137213173Y-77688196D01*
X136687076Y-77702631D01*
X136276713Y-77725377D01*
X135964230Y-77758171D01*
X135731768Y-77802751D01*
X135561472Y-77860852D01*
X135435485Y-77934213D01*
X135358840Y-78000784D01*
X135299716Y-78070857D01*
X135256822Y-78162004D01*
X135227905Y-78299586D01*
X135210713Y-78508963D01*
X135202994Y-78815496D01*
X135202495Y-79244546D01*
X135206037Y-79721317D01*
X135211714Y-80269917D01*
X135219498Y-80675180D01*
X135232675Y-80963100D01*
X135254531Y-81159668D01*
X135288354Y-81290879D01*
X135337429Y-81382724D01*
X135405044Y-81461196D01*
X135429134Y-81485713D01*
X135638102Y-81696506D01*
X139859424Y-81759372D01*
X142082104Y-84687146D01*
X142055219Y-87214366D01*
X142046686Y-87967304D01*
X142036685Y-88570422D01*
X142021988Y-89043225D01*
X141999365Y-89405216D01*
X141965588Y-89675901D01*
X141917427Y-89874782D01*
X141851652Y-90021365D01*
X141765035Y-90135155D01*
X141654347Y-90235654D01*
X141540363Y-90324103D01*
X141266334Y-90532503D01*
X138430000Y-90560378D01*
X137713953Y-90565839D01*
X137017865Y-90568214D01*
X136368761Y-90567628D01*
X135793664Y-90564207D01*
X135319597Y-90558075D01*
X134973583Y-90549358D01*
X134851926Y-90543767D01*
X134492858Y-90519220D01*
X134254337Y-90486346D01*
X134087811Y-90427932D01*
X133944728Y-90326764D01*
X133776535Y-90165630D01*
X133771705Y-90160801D01*
X133606558Y-89986117D01*
X133499596Y-89830631D01*
X133431108Y-89644758D01*
X133381378Y-89378912D01*
X133342607Y-89081495D01*
X133322145Y-88815819D01*
X133305226Y-88384614D01*
X133298272Y-88075534D01*
X135212667Y-88075534D01*
X135733659Y-88513920D01*
X137833463Y-88513920D01*
X138492577Y-88512810D01*
X139002644Y-88508630D01*
X139383942Y-88500101D01*
X139656749Y-88485943D01*
X139841340Y-88464880D01*
X139957995Y-88435631D01*
X140026989Y-88396919D01*
X140049467Y-88374199D01*
X140096899Y-88234212D01*
X140136597Y-87960587D01*
X140167644Y-87588884D01*
X140189125Y-87154660D01*
X140200122Y-86693474D01*
X140199719Y-86240885D01*
X140187000Y-85832451D01*
X140161048Y-85503731D01*
X140128304Y-85315044D01*
X140040293Y-85106610D01*
X139873952Y-84808950D01*
X139655347Y-84466159D01*
X139471974Y-84204877D01*
X138906984Y-83433920D01*
X138393325Y-83433637D01*
X138124161Y-83429927D01*
X137731014Y-83419911D01*
X137259064Y-83404951D01*
X136753490Y-83386406D01*
X136546167Y-83378049D01*
X135212667Y-83322742D01*
X135212667Y-88075534D01*
X133298272Y-88075534D01*
X133291884Y-87791651D01*
X133282156Y-87040699D01*
X133276080Y-86135525D01*
X133273691Y-85079901D01*
X133275027Y-83877594D01*
X133279828Y-82592514D01*
X133307667Y-76844358D01*
X133534341Y-76521874D01*
X140505592Y-76521874D01*
X140557913Y-76631804D01*
X140704511Y-76720582D01*
X140853715Y-76641153D01*
X140916708Y-76556811D01*
X140943439Y-76396408D01*
X140865983Y-76254656D01*
X140728679Y-76195557D01*
X140674023Y-76206498D01*
X140532328Y-76335727D01*
X140505592Y-76521874D01*
X133534341Y-76521874D01*
X133565669Y-76477305D01*
X133823671Y-76110253D01*
X137291002Y-76085915D01*
X138051415Y-76081779D01*
X138767322Y-76080181D01*
X139419133Y-76080998D01*
X139419133Y-76080998D01*
G37*
X139419133Y-76080998D02*
X139987256Y-76084103D01*
X140452101Y-76089372D01*
X140794076Y-76096679D01*
X140993591Y-76105900D01*
X141027459Y-76109785D01*
X141386776Y-76245389D01*
X141627148Y-76501292D01*
X141727262Y-76766420D01*
X141798834Y-77083920D01*
X141306675Y-77083920D01*
X140919579Y-77097733D01*
X140678985Y-77143047D01*
X140564023Y-77225676D01*
X140546667Y-77295586D01*
X140624767Y-77422757D01*
X140860075Y-77492966D01*
X141125092Y-77508549D01*
X141314136Y-77520041D01*
X141350322Y-77556941D01*
X141308667Y-77591920D01*
X141189741Y-77614825D01*
X140919298Y-77635034D01*
X140515139Y-77651967D01*
X139995065Y-77665045D01*
X139376880Y-77673688D01*
X138684000Y-77677310D01*
X137872862Y-77680334D01*
X137213173Y-77688196D01*
X136687076Y-77702631D01*
X136276713Y-77725377D01*
X135964230Y-77758171D01*
X135731768Y-77802751D01*
X135561472Y-77860852D01*
X135435485Y-77934213D01*
X135358840Y-78000784D01*
X135299716Y-78070857D01*
X135256822Y-78162004D01*
X135227905Y-78299586D01*
X135210713Y-78508963D01*
X135202994Y-78815496D01*
X135202495Y-79244546D01*
X135206037Y-79721317D01*
X135211714Y-80269917D01*
X135219498Y-80675180D01*
X135232675Y-80963100D01*
X135254531Y-81159668D01*
X135288354Y-81290879D01*
X135337429Y-81382724D01*
X135405044Y-81461196D01*
X135429134Y-81485713D01*
X135638102Y-81696506D01*
X139859424Y-81759372D01*
X142082104Y-84687146D01*
X142055219Y-87214366D01*
X142046686Y-87967304D01*
X142036685Y-88570422D01*
X142021988Y-89043225D01*
X141999365Y-89405216D01*
X141965588Y-89675901D01*
X141917427Y-89874782D01*
X141851652Y-90021365D01*
X141765035Y-90135155D01*
X141654347Y-90235654D01*
X141540363Y-90324103D01*
X141266334Y-90532503D01*
X138430000Y-90560378D01*
X137713953Y-90565839D01*
X137017865Y-90568214D01*
X136368761Y-90567628D01*
X135793664Y-90564207D01*
X135319597Y-90558075D01*
X134973583Y-90549358D01*
X134851926Y-90543767D01*
X134492858Y-90519220D01*
X134254337Y-90486346D01*
X134087811Y-90427932D01*
X133944728Y-90326764D01*
X133776535Y-90165630D01*
X133771705Y-90160801D01*
X133606558Y-89986117D01*
X133499596Y-89830631D01*
X133431108Y-89644758D01*
X133381378Y-89378912D01*
X133342607Y-89081495D01*
X133322145Y-88815819D01*
X133305226Y-88384614D01*
X133298272Y-88075534D01*
X135212667Y-88075534D01*
X135733659Y-88513920D01*
X137833463Y-88513920D01*
X138492577Y-88512810D01*
X139002644Y-88508630D01*
X139383942Y-88500101D01*
X139656749Y-88485943D01*
X139841340Y-88464880D01*
X139957995Y-88435631D01*
X140026989Y-88396919D01*
X140049467Y-88374199D01*
X140096899Y-88234212D01*
X140136597Y-87960587D01*
X140167644Y-87588884D01*
X140189125Y-87154660D01*
X140200122Y-86693474D01*
X140199719Y-86240885D01*
X140187000Y-85832451D01*
X140161048Y-85503731D01*
X140128304Y-85315044D01*
X140040293Y-85106610D01*
X139873952Y-84808950D01*
X139655347Y-84466159D01*
X139471974Y-84204877D01*
X138906984Y-83433920D01*
X138393325Y-83433637D01*
X138124161Y-83429927D01*
X137731014Y-83419911D01*
X137259064Y-83404951D01*
X136753490Y-83386406D01*
X136546167Y-83378049D01*
X135212667Y-83322742D01*
X135212667Y-88075534D01*
X133298272Y-88075534D01*
X133291884Y-87791651D01*
X133282156Y-87040699D01*
X133276080Y-86135525D01*
X133273691Y-85079901D01*
X133275027Y-83877594D01*
X133279828Y-82592514D01*
X133307667Y-76844358D01*
X133534341Y-76521874D01*
X140505592Y-76521874D01*
X140557913Y-76631804D01*
X140704511Y-76720582D01*
X140853715Y-76641153D01*
X140916708Y-76556811D01*
X140943439Y-76396408D01*
X140865983Y-76254656D01*
X140728679Y-76195557D01*
X140674023Y-76206498D01*
X140532328Y-76335727D01*
X140505592Y-76521874D01*
X133534341Y-76521874D01*
X133565669Y-76477305D01*
X133823671Y-76110253D01*
X137291002Y-76085915D01*
X138051415Y-76081779D01*
X138767322Y-76080181D01*
X139419133Y-76080998D01*
G04 #@! TO.C,U1*
D13*
X90979047Y-50631285D02*
X90812380Y-50274142D01*
X90693333Y-50631285D02*
X90693333Y-49881285D01*
X90883809Y-49881285D01*
X90931428Y-49917000D01*
X90955238Y-49952714D01*
X90979047Y-50024142D01*
X90979047Y-50131285D01*
X90955238Y-50202714D01*
X90931428Y-50238428D01*
X90883809Y-50274142D01*
X90693333Y-50274142D01*
X91288571Y-49881285D02*
X91383809Y-49881285D01*
X91431428Y-49917000D01*
X91479047Y-49988428D01*
X91502857Y-50131285D01*
X91502857Y-50381285D01*
X91479047Y-50524142D01*
X91431428Y-50595571D01*
X91383809Y-50631285D01*
X91288571Y-50631285D01*
X91240952Y-50595571D01*
X91193333Y-50524142D01*
X91169523Y-50381285D01*
X91169523Y-50131285D01*
X91193333Y-49988428D01*
X91240952Y-49917000D01*
X91288571Y-49881285D01*
X91669523Y-49881285D02*
X91788571Y-50631285D01*
X91883809Y-50095571D01*
X91979047Y-50631285D01*
X92098095Y-49881285D01*
X92550476Y-50631285D02*
X92264761Y-50631285D01*
X92407619Y-50631285D02*
X92407619Y-49881285D01*
X92360000Y-49988428D01*
X92312380Y-50059857D01*
X92264761Y-50095571D01*
X80732380Y-52972857D02*
X80708571Y-53008571D01*
X80637142Y-53044285D01*
X80589523Y-53044285D01*
X80518095Y-53008571D01*
X80470476Y-52937142D01*
X80446666Y-52865714D01*
X80422857Y-52722857D01*
X80422857Y-52615714D01*
X80446666Y-52472857D01*
X80470476Y-52401428D01*
X80518095Y-52330000D01*
X80589523Y-52294285D01*
X80637142Y-52294285D01*
X80708571Y-52330000D01*
X80732380Y-52365714D01*
X81041904Y-52294285D02*
X81137142Y-52294285D01*
X81184761Y-52330000D01*
X81232380Y-52401428D01*
X81256190Y-52544285D01*
X81256190Y-52794285D01*
X81232380Y-52937142D01*
X81184761Y-53008571D01*
X81137142Y-53044285D01*
X81041904Y-53044285D01*
X80994285Y-53008571D01*
X80946666Y-52937142D01*
X80922857Y-52794285D01*
X80922857Y-52544285D01*
X80946666Y-52401428D01*
X80994285Y-52330000D01*
X81041904Y-52294285D01*
X81708571Y-53044285D02*
X81470476Y-53044285D01*
X81470476Y-52294285D01*
X82089523Y-52544285D02*
X82089523Y-53044285D01*
X81970476Y-52258571D02*
X81851428Y-52794285D01*
X82160952Y-52794285D01*
X90929047Y-53179285D02*
X90762380Y-52822142D01*
X90643333Y-53179285D02*
X90643333Y-52429285D01*
X90833809Y-52429285D01*
X90881428Y-52465000D01*
X90905238Y-52500714D01*
X90929047Y-52572142D01*
X90929047Y-52679285D01*
X90905238Y-52750714D01*
X90881428Y-52786428D01*
X90833809Y-52822142D01*
X90643333Y-52822142D01*
X91238571Y-52429285D02*
X91333809Y-52429285D01*
X91381428Y-52465000D01*
X91429047Y-52536428D01*
X91452857Y-52679285D01*
X91452857Y-52929285D01*
X91429047Y-53072142D01*
X91381428Y-53143571D01*
X91333809Y-53179285D01*
X91238571Y-53179285D01*
X91190952Y-53143571D01*
X91143333Y-53072142D01*
X91119523Y-52929285D01*
X91119523Y-52679285D01*
X91143333Y-52536428D01*
X91190952Y-52465000D01*
X91238571Y-52429285D01*
X91619523Y-52429285D02*
X91738571Y-53179285D01*
X91833809Y-52643571D01*
X91929047Y-53179285D01*
X92048095Y-52429285D01*
X92214761Y-52500714D02*
X92238571Y-52465000D01*
X92286190Y-52429285D01*
X92405238Y-52429285D01*
X92452857Y-52465000D01*
X92476666Y-52500714D01*
X92500476Y-52572142D01*
X92500476Y-52643571D01*
X92476666Y-52750714D01*
X92190952Y-53179285D01*
X92500476Y-53179285D01*
X80732380Y-55703357D02*
X80708571Y-55739071D01*
X80637142Y-55774785D01*
X80589523Y-55774785D01*
X80518095Y-55739071D01*
X80470476Y-55667642D01*
X80446666Y-55596214D01*
X80422857Y-55453357D01*
X80422857Y-55346214D01*
X80446666Y-55203357D01*
X80470476Y-55131928D01*
X80518095Y-55060500D01*
X80589523Y-55024785D01*
X80637142Y-55024785D01*
X80708571Y-55060500D01*
X80732380Y-55096214D01*
X81041904Y-55024785D02*
X81137142Y-55024785D01*
X81184761Y-55060500D01*
X81232380Y-55131928D01*
X81256190Y-55274785D01*
X81256190Y-55524785D01*
X81232380Y-55667642D01*
X81184761Y-55739071D01*
X81137142Y-55774785D01*
X81041904Y-55774785D01*
X80994285Y-55739071D01*
X80946666Y-55667642D01*
X80922857Y-55524785D01*
X80922857Y-55274785D01*
X80946666Y-55131928D01*
X80994285Y-55060500D01*
X81041904Y-55024785D01*
X81708571Y-55774785D02*
X81470476Y-55774785D01*
X81470476Y-55024785D01*
X82113333Y-55024785D02*
X81875238Y-55024785D01*
X81851428Y-55381928D01*
X81875238Y-55346214D01*
X81922857Y-55310500D01*
X82041904Y-55310500D01*
X82089523Y-55346214D01*
X82113333Y-55381928D01*
X82137142Y-55453357D01*
X82137142Y-55631928D01*
X82113333Y-55703357D01*
X82089523Y-55739071D01*
X82041904Y-55774785D01*
X81922857Y-55774785D01*
X81875238Y-55739071D01*
X81851428Y-55703357D01*
X90929047Y-55774785D02*
X90762380Y-55417642D01*
X90643333Y-55774785D02*
X90643333Y-55024785D01*
X90833809Y-55024785D01*
X90881428Y-55060500D01*
X90905238Y-55096214D01*
X90929047Y-55167642D01*
X90929047Y-55274785D01*
X90905238Y-55346214D01*
X90881428Y-55381928D01*
X90833809Y-55417642D01*
X90643333Y-55417642D01*
X91238571Y-55024785D02*
X91333809Y-55024785D01*
X91381428Y-55060500D01*
X91429047Y-55131928D01*
X91452857Y-55274785D01*
X91452857Y-55524785D01*
X91429047Y-55667642D01*
X91381428Y-55739071D01*
X91333809Y-55774785D01*
X91238571Y-55774785D01*
X91190952Y-55739071D01*
X91143333Y-55667642D01*
X91119523Y-55524785D01*
X91119523Y-55274785D01*
X91143333Y-55131928D01*
X91190952Y-55060500D01*
X91238571Y-55024785D01*
X91619523Y-55024785D02*
X91738571Y-55774785D01*
X91833809Y-55239071D01*
X91929047Y-55774785D01*
X92048095Y-55024785D01*
X92190952Y-55024785D02*
X92500476Y-55024785D01*
X92333809Y-55310500D01*
X92405238Y-55310500D01*
X92452857Y-55346214D01*
X92476666Y-55381928D01*
X92500476Y-55453357D01*
X92500476Y-55631928D01*
X92476666Y-55703357D01*
X92452857Y-55739071D01*
X92405238Y-55774785D01*
X92262380Y-55774785D01*
X92214761Y-55739071D01*
X92190952Y-55703357D01*
X80442619Y-57886428D02*
X80514047Y-57922142D01*
X80537857Y-57957857D01*
X80561666Y-58029285D01*
X80561666Y-58136428D01*
X80537857Y-58207857D01*
X80514047Y-58243571D01*
X80466428Y-58279285D01*
X80275952Y-58279285D01*
X80275952Y-57529285D01*
X80442619Y-57529285D01*
X80490238Y-57565000D01*
X80514047Y-57600714D01*
X80537857Y-57672142D01*
X80537857Y-57743571D01*
X80514047Y-57815000D01*
X80490238Y-57850714D01*
X80442619Y-57886428D01*
X80275952Y-57886428D01*
X80752142Y-57600714D02*
X80775952Y-57565000D01*
X80823571Y-57529285D01*
X80942619Y-57529285D01*
X80990238Y-57565000D01*
X81014047Y-57600714D01*
X81037857Y-57672142D01*
X81037857Y-57743571D01*
X81014047Y-57850714D01*
X80728333Y-58279285D01*
X81037857Y-58279285D01*
X91357619Y-57858428D02*
X91429047Y-57894142D01*
X91452857Y-57929857D01*
X91476666Y-58001285D01*
X91476666Y-58108428D01*
X91452857Y-58179857D01*
X91429047Y-58215571D01*
X91381428Y-58251285D01*
X91190952Y-58251285D01*
X91190952Y-57501285D01*
X91357619Y-57501285D01*
X91405238Y-57537000D01*
X91429047Y-57572714D01*
X91452857Y-57644142D01*
X91452857Y-57715571D01*
X91429047Y-57787000D01*
X91405238Y-57822714D01*
X91357619Y-57858428D01*
X91190952Y-57858428D01*
X91905238Y-57751285D02*
X91905238Y-58251285D01*
X91786190Y-57465571D02*
X91667142Y-58001285D01*
X91976666Y-58001285D01*
X91357619Y-60461928D02*
X91429047Y-60497642D01*
X91452857Y-60533357D01*
X91476666Y-60604785D01*
X91476666Y-60711928D01*
X91452857Y-60783357D01*
X91429047Y-60819071D01*
X91381428Y-60854785D01*
X91190952Y-60854785D01*
X91190952Y-60104785D01*
X91357619Y-60104785D01*
X91405238Y-60140500D01*
X91429047Y-60176214D01*
X91452857Y-60247642D01*
X91452857Y-60319071D01*
X91429047Y-60390500D01*
X91405238Y-60426214D01*
X91357619Y-60461928D01*
X91190952Y-60461928D01*
X91929047Y-60104785D02*
X91690952Y-60104785D01*
X91667142Y-60461928D01*
X91690952Y-60426214D01*
X91738571Y-60390500D01*
X91857619Y-60390500D01*
X91905238Y-60426214D01*
X91929047Y-60461928D01*
X91952857Y-60533357D01*
X91952857Y-60711928D01*
X91929047Y-60783357D01*
X91905238Y-60819071D01*
X91857619Y-60854785D01*
X91738571Y-60854785D01*
X91690952Y-60819071D01*
X91667142Y-60783357D01*
X80442619Y-60436428D02*
X80514047Y-60472142D01*
X80537857Y-60507857D01*
X80561666Y-60579285D01*
X80561666Y-60686428D01*
X80537857Y-60757857D01*
X80514047Y-60793571D01*
X80466428Y-60829285D01*
X80275952Y-60829285D01*
X80275952Y-60079285D01*
X80442619Y-60079285D01*
X80490238Y-60115000D01*
X80514047Y-60150714D01*
X80537857Y-60222142D01*
X80537857Y-60293571D01*
X80514047Y-60365000D01*
X80490238Y-60400714D01*
X80442619Y-60436428D01*
X80275952Y-60436428D01*
X80990238Y-60079285D02*
X80895000Y-60079285D01*
X80847380Y-60115000D01*
X80823571Y-60150714D01*
X80775952Y-60257857D01*
X80752142Y-60400714D01*
X80752142Y-60686428D01*
X80775952Y-60757857D01*
X80799761Y-60793571D01*
X80847380Y-60829285D01*
X80942619Y-60829285D01*
X80990238Y-60793571D01*
X81014047Y-60757857D01*
X81037857Y-60686428D01*
X81037857Y-60507857D01*
X81014047Y-60436428D01*
X80990238Y-60400714D01*
X80942619Y-60365000D01*
X80847380Y-60365000D01*
X80799761Y-60400714D01*
X80775952Y-60436428D01*
X80752142Y-60507857D01*
X80732380Y-42957857D02*
X80708571Y-42993571D01*
X80637142Y-43029285D01*
X80589523Y-43029285D01*
X80518095Y-42993571D01*
X80470476Y-42922142D01*
X80446666Y-42850714D01*
X80422857Y-42707857D01*
X80422857Y-42600714D01*
X80446666Y-42457857D01*
X80470476Y-42386428D01*
X80518095Y-42315000D01*
X80589523Y-42279285D01*
X80637142Y-42279285D01*
X80708571Y-42315000D01*
X80732380Y-42350714D01*
X81041904Y-42279285D02*
X81137142Y-42279285D01*
X81184761Y-42315000D01*
X81232380Y-42386428D01*
X81256190Y-42529285D01*
X81256190Y-42779285D01*
X81232380Y-42922142D01*
X81184761Y-42993571D01*
X81137142Y-43029285D01*
X81041904Y-43029285D01*
X80994285Y-42993571D01*
X80946666Y-42922142D01*
X80922857Y-42779285D01*
X80922857Y-42529285D01*
X80946666Y-42386428D01*
X80994285Y-42315000D01*
X81041904Y-42279285D01*
X81708571Y-43029285D02*
X81470476Y-43029285D01*
X81470476Y-42279285D01*
X81970476Y-42279285D02*
X82018095Y-42279285D01*
X82065714Y-42315000D01*
X82089523Y-42350714D01*
X82113333Y-42422142D01*
X82137142Y-42565000D01*
X82137142Y-42743571D01*
X82113333Y-42886428D01*
X82089523Y-42957857D01*
X82065714Y-42993571D01*
X82018095Y-43029285D01*
X81970476Y-43029285D01*
X81922857Y-42993571D01*
X81899047Y-42957857D01*
X81875238Y-42886428D01*
X81851428Y-42743571D01*
X81851428Y-42565000D01*
X81875238Y-42422142D01*
X81899047Y-42350714D01*
X81922857Y-42315000D01*
X81970476Y-42279285D01*
X91213857Y-42975571D02*
X91285285Y-43011285D01*
X91404333Y-43011285D01*
X91451952Y-42975571D01*
X91475761Y-42939857D01*
X91499571Y-42868428D01*
X91499571Y-42797000D01*
X91475761Y-42725571D01*
X91451952Y-42689857D01*
X91404333Y-42654142D01*
X91309095Y-42618428D01*
X91261476Y-42582714D01*
X91237666Y-42547000D01*
X91213857Y-42475571D01*
X91213857Y-42404142D01*
X91237666Y-42332714D01*
X91261476Y-42297000D01*
X91309095Y-42261285D01*
X91428142Y-42261285D01*
X91499571Y-42297000D01*
X91713857Y-43011285D02*
X91713857Y-42261285D01*
X91832904Y-42261285D01*
X91904333Y-42297000D01*
X91951952Y-42368428D01*
X91975761Y-42439857D01*
X91999571Y-42582714D01*
X91999571Y-42689857D01*
X91975761Y-42832714D01*
X91951952Y-42904142D01*
X91904333Y-42975571D01*
X91832904Y-43011285D01*
X91713857Y-43011285D01*
X92190047Y-42797000D02*
X92428142Y-42797000D01*
X92142428Y-43011285D02*
X92309095Y-42261285D01*
X92475761Y-43011285D01*
X80732380Y-45479857D02*
X80708571Y-45515571D01*
X80637142Y-45551285D01*
X80589523Y-45551285D01*
X80518095Y-45515571D01*
X80470476Y-45444142D01*
X80446666Y-45372714D01*
X80422857Y-45229857D01*
X80422857Y-45122714D01*
X80446666Y-44979857D01*
X80470476Y-44908428D01*
X80518095Y-44837000D01*
X80589523Y-44801285D01*
X80637142Y-44801285D01*
X80708571Y-44837000D01*
X80732380Y-44872714D01*
X81041904Y-44801285D02*
X81137142Y-44801285D01*
X81184761Y-44837000D01*
X81232380Y-44908428D01*
X81256190Y-45051285D01*
X81256190Y-45301285D01*
X81232380Y-45444142D01*
X81184761Y-45515571D01*
X81137142Y-45551285D01*
X81041904Y-45551285D01*
X80994285Y-45515571D01*
X80946666Y-45444142D01*
X80922857Y-45301285D01*
X80922857Y-45051285D01*
X80946666Y-44908428D01*
X80994285Y-44837000D01*
X81041904Y-44801285D01*
X81708571Y-45551285D02*
X81470476Y-45551285D01*
X81470476Y-44801285D01*
X82137142Y-45551285D02*
X81851428Y-45551285D01*
X81994285Y-45551285D02*
X81994285Y-44801285D01*
X81946666Y-44908428D01*
X81899047Y-44979857D01*
X81851428Y-45015571D01*
X91225761Y-45515571D02*
X91297190Y-45551285D01*
X91416238Y-45551285D01*
X91463857Y-45515571D01*
X91487666Y-45479857D01*
X91511476Y-45408428D01*
X91511476Y-45337000D01*
X91487666Y-45265571D01*
X91463857Y-45229857D01*
X91416238Y-45194142D01*
X91321000Y-45158428D01*
X91273380Y-45122714D01*
X91249571Y-45087000D01*
X91225761Y-45015571D01*
X91225761Y-44944142D01*
X91249571Y-44872714D01*
X91273380Y-44837000D01*
X91321000Y-44801285D01*
X91440047Y-44801285D01*
X91511476Y-44837000D01*
X92011476Y-45479857D02*
X91987666Y-45515571D01*
X91916238Y-45551285D01*
X91868619Y-45551285D01*
X91797190Y-45515571D01*
X91749571Y-45444142D01*
X91725761Y-45372714D01*
X91701952Y-45229857D01*
X91701952Y-45122714D01*
X91725761Y-44979857D01*
X91749571Y-44908428D01*
X91797190Y-44837000D01*
X91868619Y-44801285D01*
X91916238Y-44801285D01*
X91987666Y-44837000D01*
X92011476Y-44872714D01*
X92463857Y-45551285D02*
X92225761Y-45551285D01*
X92225761Y-44801285D01*
X80732380Y-48019857D02*
X80708571Y-48055571D01*
X80637142Y-48091285D01*
X80589523Y-48091285D01*
X80518095Y-48055571D01*
X80470476Y-47984142D01*
X80446666Y-47912714D01*
X80422857Y-47769857D01*
X80422857Y-47662714D01*
X80446666Y-47519857D01*
X80470476Y-47448428D01*
X80518095Y-47377000D01*
X80589523Y-47341285D01*
X80637142Y-47341285D01*
X80708571Y-47377000D01*
X80732380Y-47412714D01*
X81041904Y-47341285D02*
X81137142Y-47341285D01*
X81184761Y-47377000D01*
X81232380Y-47448428D01*
X81256190Y-47591285D01*
X81256190Y-47841285D01*
X81232380Y-47984142D01*
X81184761Y-48055571D01*
X81137142Y-48091285D01*
X81041904Y-48091285D01*
X80994285Y-48055571D01*
X80946666Y-47984142D01*
X80922857Y-47841285D01*
X80922857Y-47591285D01*
X80946666Y-47448428D01*
X80994285Y-47377000D01*
X81041904Y-47341285D01*
X81708571Y-48091285D02*
X81470476Y-48091285D01*
X81470476Y-47341285D01*
X81851428Y-47412714D02*
X81875238Y-47377000D01*
X81922857Y-47341285D01*
X82041904Y-47341285D01*
X82089523Y-47377000D01*
X82113333Y-47412714D01*
X82137142Y-47484142D01*
X82137142Y-47555571D01*
X82113333Y-47662714D01*
X81827619Y-48091285D01*
X82137142Y-48091285D01*
X90929047Y-48129285D02*
X90762380Y-47772142D01*
X90643333Y-48129285D02*
X90643333Y-47379285D01*
X90833809Y-47379285D01*
X90881428Y-47415000D01*
X90905238Y-47450714D01*
X90929047Y-47522142D01*
X90929047Y-47629285D01*
X90905238Y-47700714D01*
X90881428Y-47736428D01*
X90833809Y-47772142D01*
X90643333Y-47772142D01*
X91238571Y-47379285D02*
X91333809Y-47379285D01*
X91381428Y-47415000D01*
X91429047Y-47486428D01*
X91452857Y-47629285D01*
X91452857Y-47879285D01*
X91429047Y-48022142D01*
X91381428Y-48093571D01*
X91333809Y-48129285D01*
X91238571Y-48129285D01*
X91190952Y-48093571D01*
X91143333Y-48022142D01*
X91119523Y-47879285D01*
X91119523Y-47629285D01*
X91143333Y-47486428D01*
X91190952Y-47415000D01*
X91238571Y-47379285D01*
X91619523Y-47379285D02*
X91738571Y-48129285D01*
X91833809Y-47593571D01*
X91929047Y-48129285D01*
X92048095Y-47379285D01*
X92333809Y-47379285D02*
X92381428Y-47379285D01*
X92429047Y-47415000D01*
X92452857Y-47450714D01*
X92476666Y-47522142D01*
X92500476Y-47665000D01*
X92500476Y-47843571D01*
X92476666Y-47986428D01*
X92452857Y-48057857D01*
X92429047Y-48093571D01*
X92381428Y-48129285D01*
X92333809Y-48129285D01*
X92286190Y-48093571D01*
X92262380Y-48057857D01*
X92238571Y-47986428D01*
X92214761Y-47843571D01*
X92214761Y-47665000D01*
X92238571Y-47522142D01*
X92262380Y-47450714D01*
X92286190Y-47415000D01*
X92333809Y-47379285D01*
X80732380Y-50607857D02*
X80708571Y-50643571D01*
X80637142Y-50679285D01*
X80589523Y-50679285D01*
X80518095Y-50643571D01*
X80470476Y-50572142D01*
X80446666Y-50500714D01*
X80422857Y-50357857D01*
X80422857Y-50250714D01*
X80446666Y-50107857D01*
X80470476Y-50036428D01*
X80518095Y-49965000D01*
X80589523Y-49929285D01*
X80637142Y-49929285D01*
X80708571Y-49965000D01*
X80732380Y-50000714D01*
X81041904Y-49929285D02*
X81137142Y-49929285D01*
X81184761Y-49965000D01*
X81232380Y-50036428D01*
X81256190Y-50179285D01*
X81256190Y-50429285D01*
X81232380Y-50572142D01*
X81184761Y-50643571D01*
X81137142Y-50679285D01*
X81041904Y-50679285D01*
X80994285Y-50643571D01*
X80946666Y-50572142D01*
X80922857Y-50429285D01*
X80922857Y-50179285D01*
X80946666Y-50036428D01*
X80994285Y-49965000D01*
X81041904Y-49929285D01*
X81708571Y-50679285D02*
X81470476Y-50679285D01*
X81470476Y-49929285D01*
X81827619Y-49929285D02*
X82137142Y-49929285D01*
X81970476Y-50215000D01*
X82041904Y-50215000D01*
X82089523Y-50250714D01*
X82113333Y-50286428D01*
X82137142Y-50357857D01*
X82137142Y-50536428D01*
X82113333Y-50607857D01*
X82089523Y-50643571D01*
X82041904Y-50679285D01*
X81899047Y-50679285D01*
X81851428Y-50643571D01*
X81827619Y-50607857D01*
X91440047Y-39820500D02*
X91392428Y-39784785D01*
X91321000Y-39784785D01*
X91249571Y-39820500D01*
X91201952Y-39891928D01*
X91178142Y-39963357D01*
X91154333Y-40106214D01*
X91154333Y-40213357D01*
X91178142Y-40356214D01*
X91201952Y-40427642D01*
X91249571Y-40499071D01*
X91321000Y-40534785D01*
X91368619Y-40534785D01*
X91440047Y-40499071D01*
X91463857Y-40463357D01*
X91463857Y-40213357D01*
X91368619Y-40213357D01*
X91678142Y-40534785D02*
X91678142Y-39784785D01*
X91963857Y-40534785D01*
X91963857Y-39784785D01*
X92201952Y-40534785D02*
X92201952Y-39784785D01*
X92321000Y-39784785D01*
X92392428Y-39820500D01*
X92440047Y-39891928D01*
X92463857Y-39963357D01*
X92487666Y-40106214D01*
X92487666Y-40213357D01*
X92463857Y-40356214D01*
X92440047Y-40427642D01*
X92392428Y-40499071D01*
X92321000Y-40534785D01*
X92201952Y-40534785D01*
X79978333Y-39721285D02*
X80145000Y-40471285D01*
X80311666Y-39721285D01*
X80764047Y-40399857D02*
X80740238Y-40435571D01*
X80668809Y-40471285D01*
X80621190Y-40471285D01*
X80549761Y-40435571D01*
X80502142Y-40364142D01*
X80478333Y-40292714D01*
X80454523Y-40149857D01*
X80454523Y-40042714D01*
X80478333Y-39899857D01*
X80502142Y-39828428D01*
X80549761Y-39757000D01*
X80621190Y-39721285D01*
X80668809Y-39721285D01*
X80740238Y-39757000D01*
X80764047Y-39792714D01*
X81264047Y-40399857D02*
X81240238Y-40435571D01*
X81168809Y-40471285D01*
X81121190Y-40471285D01*
X81049761Y-40435571D01*
X81002142Y-40364142D01*
X80978333Y-40292714D01*
X80954523Y-40149857D01*
X80954523Y-40042714D01*
X80978333Y-39899857D01*
X81002142Y-39828428D01*
X81049761Y-39757000D01*
X81121190Y-39721285D01*
X81168809Y-39721285D01*
X81240238Y-39757000D01*
X81264047Y-39792714D01*
X91503547Y-37280500D02*
X91455928Y-37244785D01*
X91384500Y-37244785D01*
X91313071Y-37280500D01*
X91265452Y-37351928D01*
X91241642Y-37423357D01*
X91217833Y-37566214D01*
X91217833Y-37673357D01*
X91241642Y-37816214D01*
X91265452Y-37887642D01*
X91313071Y-37959071D01*
X91384500Y-37994785D01*
X91432119Y-37994785D01*
X91503547Y-37959071D01*
X91527357Y-37923357D01*
X91527357Y-37673357D01*
X91432119Y-37673357D01*
X91741642Y-37994785D02*
X91741642Y-37244785D01*
X92027357Y-37994785D01*
X92027357Y-37244785D01*
X92265452Y-37994785D02*
X92265452Y-37244785D01*
X92384500Y-37244785D01*
X92455928Y-37280500D01*
X92503547Y-37351928D01*
X92527357Y-37423357D01*
X92551166Y-37566214D01*
X92551166Y-37673357D01*
X92527357Y-37816214D01*
X92503547Y-37887642D01*
X92455928Y-37959071D01*
X92384500Y-37994785D01*
X92265452Y-37994785D01*
X80371190Y-37994785D02*
X80204523Y-37637642D01*
X80085476Y-37994785D02*
X80085476Y-37244785D01*
X80275952Y-37244785D01*
X80323571Y-37280500D01*
X80347380Y-37316214D01*
X80371190Y-37387642D01*
X80371190Y-37494785D01*
X80347380Y-37566214D01*
X80323571Y-37601928D01*
X80275952Y-37637642D01*
X80085476Y-37637642D01*
X80561666Y-37959071D02*
X80633095Y-37994785D01*
X80752142Y-37994785D01*
X80799761Y-37959071D01*
X80823571Y-37923357D01*
X80847380Y-37851928D01*
X80847380Y-37780500D01*
X80823571Y-37709071D01*
X80799761Y-37673357D01*
X80752142Y-37637642D01*
X80656904Y-37601928D01*
X80609285Y-37566214D01*
X80585476Y-37530500D01*
X80561666Y-37459071D01*
X80561666Y-37387642D01*
X80585476Y-37316214D01*
X80609285Y-37280500D01*
X80656904Y-37244785D01*
X80775952Y-37244785D01*
X80847380Y-37280500D01*
X80990238Y-37244785D02*
X81275952Y-37244785D01*
X81133095Y-37994785D02*
X81133095Y-37244785D01*
X90960000Y-35379285D02*
X90960000Y-34629285D01*
X91079047Y-34629285D01*
X91150476Y-34665000D01*
X91198095Y-34736428D01*
X91221904Y-34807857D01*
X91245714Y-34950714D01*
X91245714Y-35057857D01*
X91221904Y-35200714D01*
X91198095Y-35272142D01*
X91150476Y-35343571D01*
X91079047Y-35379285D01*
X90960000Y-35379285D01*
X91436190Y-35165000D02*
X91674285Y-35165000D01*
X91388571Y-35379285D02*
X91555238Y-34629285D01*
X91721904Y-35379285D01*
X91817142Y-34629285D02*
X92102857Y-34629285D01*
X91960000Y-35379285D02*
X91960000Y-34629285D01*
X92245714Y-35165000D02*
X92483809Y-35165000D01*
X92198095Y-35379285D02*
X92364761Y-34629285D01*
X92531428Y-35379285D01*
X80264047Y-34677000D02*
X80216428Y-34641285D01*
X80145000Y-34641285D01*
X80073571Y-34677000D01*
X80025952Y-34748428D01*
X80002142Y-34819857D01*
X79978333Y-34962714D01*
X79978333Y-35069857D01*
X80002142Y-35212714D01*
X80025952Y-35284142D01*
X80073571Y-35355571D01*
X80145000Y-35391285D01*
X80192619Y-35391285D01*
X80264047Y-35355571D01*
X80287857Y-35319857D01*
X80287857Y-35069857D01*
X80192619Y-35069857D01*
X80502142Y-35391285D02*
X80502142Y-34641285D01*
X80787857Y-35391285D01*
X80787857Y-34641285D01*
X81025952Y-35391285D02*
X81025952Y-34641285D01*
X81145000Y-34641285D01*
X81216428Y-34677000D01*
X81264047Y-34748428D01*
X81287857Y-34819857D01*
X81311666Y-34962714D01*
X81311666Y-35069857D01*
X81287857Y-35212714D01*
X81264047Y-35284142D01*
X81216428Y-35355571D01*
X81145000Y-35391285D01*
X81025952Y-35391285D01*
X91538571Y-32851285D02*
X91300476Y-32851285D01*
X91300476Y-32101285D01*
X91705238Y-32458428D02*
X91871904Y-32458428D01*
X91943333Y-32851285D02*
X91705238Y-32851285D01*
X91705238Y-32101285D01*
X91943333Y-32101285D01*
X92157619Y-32851285D02*
X92157619Y-32101285D01*
X92276666Y-32101285D01*
X92348095Y-32137000D01*
X92395714Y-32208428D01*
X92419523Y-32279857D01*
X92443333Y-32422714D01*
X92443333Y-32529857D01*
X92419523Y-32672714D01*
X92395714Y-32744142D01*
X92348095Y-32815571D01*
X92276666Y-32851285D01*
X92157619Y-32851285D01*
X80299761Y-32851285D02*
X80133095Y-32494142D01*
X80014047Y-32851285D02*
X80014047Y-32101285D01*
X80204523Y-32101285D01*
X80252142Y-32137000D01*
X80275952Y-32172714D01*
X80299761Y-32244142D01*
X80299761Y-32351285D01*
X80275952Y-32422714D01*
X80252142Y-32458428D01*
X80204523Y-32494142D01*
X80014047Y-32494142D01*
X80490238Y-32637000D02*
X80728333Y-32637000D01*
X80442619Y-32851285D02*
X80609285Y-32101285D01*
X80775952Y-32851285D01*
X80895000Y-32101285D02*
X81014047Y-32851285D01*
X81109285Y-32315571D01*
X81204523Y-32851285D01*
X81323571Y-32101285D01*
D11*
G04 #@! TO.C,OLED1*
X84262619Y-62757380D02*
X84453095Y-62757380D01*
X84548333Y-62805000D01*
X84643571Y-62900238D01*
X84691190Y-63090714D01*
X84691190Y-63424047D01*
X84643571Y-63614523D01*
X84548333Y-63709761D01*
X84453095Y-63757380D01*
X84262619Y-63757380D01*
X84167380Y-63709761D01*
X84072142Y-63614523D01*
X84024523Y-63424047D01*
X84024523Y-63090714D01*
X84072142Y-62900238D01*
X84167380Y-62805000D01*
X84262619Y-62757380D01*
X85595952Y-63757380D02*
X85119761Y-63757380D01*
X85119761Y-62757380D01*
X85929285Y-63233571D02*
X86262619Y-63233571D01*
X86405476Y-63757380D02*
X85929285Y-63757380D01*
X85929285Y-62757380D01*
X86405476Y-62757380D01*
X86834047Y-63757380D02*
X86834047Y-62757380D01*
X87072142Y-62757380D01*
X87215000Y-62805000D01*
X87310238Y-62900238D01*
X87357857Y-62995476D01*
X87405476Y-63185952D01*
X87405476Y-63328809D01*
X87357857Y-63519285D01*
X87310238Y-63614523D01*
X87215000Y-63709761D01*
X87072142Y-63757380D01*
X86834047Y-63757380D01*
G04 #@! TO.C,J1*
X82152380Y-72996904D02*
X82152380Y-72425476D01*
X83152380Y-72711190D02*
X82152380Y-72711190D01*
X83152380Y-71520714D02*
X82676190Y-71854047D01*
X83152380Y-72092142D02*
X82152380Y-72092142D01*
X82152380Y-71711190D01*
X82200000Y-71615952D01*
X82247619Y-71568333D01*
X82342857Y-71520714D01*
X82485714Y-71520714D01*
X82580952Y-71568333D01*
X82628571Y-71615952D01*
X82676190Y-71711190D01*
X82676190Y-72092142D01*
X83152380Y-70520714D02*
X82676190Y-70854047D01*
X83152380Y-71092142D02*
X82152380Y-71092142D01*
X82152380Y-70711190D01*
X82200000Y-70615952D01*
X82247619Y-70568333D01*
X82342857Y-70520714D01*
X82485714Y-70520714D01*
X82580952Y-70568333D01*
X82628571Y-70615952D01*
X82676190Y-70711190D01*
X82676190Y-71092142D01*
X83104761Y-70139761D02*
X83152380Y-69996904D01*
X83152380Y-69758809D01*
X83104761Y-69663571D01*
X83057142Y-69615952D01*
X82961904Y-69568333D01*
X82866666Y-69568333D01*
X82771428Y-69615952D01*
X82723809Y-69663571D01*
X82676190Y-69758809D01*
X82628571Y-69949285D01*
X82580952Y-70044523D01*
X82533333Y-70092142D01*
X82438095Y-70139761D01*
X82342857Y-70139761D01*
X82247619Y-70092142D01*
X82200000Y-70044523D01*
X82152380Y-69949285D01*
X82152380Y-69711190D01*
X82200000Y-69568333D01*
G04 #@! TO.C,J2*
X89089895Y-60113333D02*
X89670466Y-60113333D01*
X89786580Y-60152038D01*
X89863990Y-60229447D01*
X89902695Y-60345561D01*
X89902695Y-60422971D01*
X89902695Y-59726285D02*
X89089895Y-59726285D01*
X89089895Y-59416647D01*
X89128600Y-59339238D01*
X89167304Y-59300533D01*
X89244714Y-59261828D01*
X89360828Y-59261828D01*
X89438238Y-59300533D01*
X89476942Y-59339238D01*
X89515647Y-59416647D01*
X89515647Y-59726285D01*
X89167304Y-58952190D02*
X89128600Y-58913485D01*
X89089895Y-58836076D01*
X89089895Y-58642552D01*
X89128600Y-58565142D01*
X89167304Y-58526438D01*
X89244714Y-58487733D01*
X89322123Y-58487733D01*
X89438238Y-58526438D01*
X89902695Y-58990895D01*
X89902695Y-58487733D01*
G04 #@! TO.C,J4*
X86549895Y-60113333D02*
X87130466Y-60113333D01*
X87246580Y-60152038D01*
X87323990Y-60229447D01*
X87362695Y-60345561D01*
X87362695Y-60422971D01*
X87362695Y-59726285D02*
X86549895Y-59726285D01*
X86549895Y-59416647D01*
X86588600Y-59339238D01*
X86627304Y-59300533D01*
X86704714Y-59261828D01*
X86820828Y-59261828D01*
X86898238Y-59300533D01*
X86936942Y-59339238D01*
X86975647Y-59416647D01*
X86975647Y-59726285D01*
X86627304Y-58952190D02*
X86588600Y-58913485D01*
X86549895Y-58836076D01*
X86549895Y-58642552D01*
X86588600Y-58565142D01*
X86627304Y-58526438D01*
X86704714Y-58487733D01*
X86782123Y-58487733D01*
X86898238Y-58526438D01*
X87362695Y-58990895D01*
X87362695Y-58487733D01*
G04 #@! TO.C,J5*
X84009895Y-60113333D02*
X84590466Y-60113333D01*
X84706580Y-60152038D01*
X84783990Y-60229447D01*
X84822695Y-60345561D01*
X84822695Y-60422971D01*
X84822695Y-59726285D02*
X84009895Y-59726285D01*
X84009895Y-59416647D01*
X84048600Y-59339238D01*
X84087304Y-59300533D01*
X84164714Y-59261828D01*
X84280828Y-59261828D01*
X84358238Y-59300533D01*
X84396942Y-59339238D01*
X84435647Y-59416647D01*
X84435647Y-59726285D01*
X84087304Y-58952190D02*
X84048600Y-58913485D01*
X84009895Y-58836076D01*
X84009895Y-58642552D01*
X84048600Y-58565142D01*
X84087304Y-58526438D01*
X84164714Y-58487733D01*
X84242123Y-58487733D01*
X84358238Y-58526438D01*
X84822695Y-58990895D01*
X84822695Y-58487733D01*
G04 #@! TO.C,J6*
X81469895Y-60113333D02*
X82050466Y-60113333D01*
X82166580Y-60152038D01*
X82243990Y-60229447D01*
X82282695Y-60345561D01*
X82282695Y-60422971D01*
X82282695Y-59726285D02*
X81469895Y-59726285D01*
X81469895Y-59416647D01*
X81508600Y-59339238D01*
X81547304Y-59300533D01*
X81624714Y-59261828D01*
X81740828Y-59261828D01*
X81818238Y-59300533D01*
X81856942Y-59339238D01*
X81895647Y-59416647D01*
X81895647Y-59726285D01*
X81547304Y-58952190D02*
X81508600Y-58913485D01*
X81469895Y-58836076D01*
X81469895Y-58642552D01*
X81508600Y-58565142D01*
X81547304Y-58526438D01*
X81624714Y-58487733D01*
X81702123Y-58487733D01*
X81818238Y-58526438D01*
X82282695Y-58990895D01*
X82282695Y-58487733D01*
G04 #@! TO.C,RESET1*
X79267619Y-77922380D02*
X78934285Y-77446190D01*
X78696190Y-77922380D02*
X78696190Y-76922380D01*
X79077142Y-76922380D01*
X79172380Y-76970000D01*
X79220000Y-77017619D01*
X79267619Y-77112857D01*
X79267619Y-77255714D01*
X79220000Y-77350952D01*
X79172380Y-77398571D01*
X79077142Y-77446190D01*
X78696190Y-77446190D01*
X79696190Y-77398571D02*
X80029523Y-77398571D01*
X80172380Y-77922380D02*
X79696190Y-77922380D01*
X79696190Y-76922380D01*
X80172380Y-76922380D01*
X80553333Y-77874761D02*
X80696190Y-77922380D01*
X80934285Y-77922380D01*
X81029523Y-77874761D01*
X81077142Y-77827142D01*
X81124761Y-77731904D01*
X81124761Y-77636666D01*
X81077142Y-77541428D01*
X81029523Y-77493809D01*
X80934285Y-77446190D01*
X80743809Y-77398571D01*
X80648571Y-77350952D01*
X80600952Y-77303333D01*
X80553333Y-77208095D01*
X80553333Y-77112857D01*
X80600952Y-77017619D01*
X80648571Y-76970000D01*
X80743809Y-76922380D01*
X80981904Y-76922380D01*
X81124761Y-76970000D01*
X81553333Y-77398571D02*
X81886666Y-77398571D01*
X82029523Y-77922380D02*
X81553333Y-77922380D01*
X81553333Y-76922380D01*
X82029523Y-76922380D01*
X82315238Y-76922380D02*
X82886666Y-76922380D01*
X82600952Y-77922380D02*
X82600952Y-76922380D01*
G04 #@! TO.C,J3*
X81469895Y-60113333D02*
X82050466Y-60113333D01*
X82166580Y-60152038D01*
X82243990Y-60229447D01*
X82282695Y-60345561D01*
X82282695Y-60422971D01*
X82282695Y-59726285D02*
X81469895Y-59726285D01*
X81469895Y-59416647D01*
X81508600Y-59339238D01*
X81547304Y-59300533D01*
X81624714Y-59261828D01*
X81740828Y-59261828D01*
X81818238Y-59300533D01*
X81856942Y-59339238D01*
X81895647Y-59416647D01*
X81895647Y-59726285D01*
X81547304Y-58952190D02*
X81508600Y-58913485D01*
X81469895Y-58836076D01*
X81469895Y-58642552D01*
X81508600Y-58565142D01*
X81547304Y-58526438D01*
X81624714Y-58487733D01*
X81702123Y-58487733D01*
X81818238Y-58526438D01*
X82282695Y-58990895D01*
X82282695Y-58487733D01*
G04 #@! TD*
%LPC*%
D10*
X156702857Y-112367142D02*
X156917142Y-112438571D01*
X157274285Y-112438571D01*
X157417142Y-112367142D01*
X157488571Y-112295714D01*
X157560000Y-112152857D01*
X157560000Y-112010000D01*
X157488571Y-111867142D01*
X157417142Y-111795714D01*
X157274285Y-111724285D01*
X156988571Y-111652857D01*
X156845714Y-111581428D01*
X156774285Y-111510000D01*
X156702857Y-111367142D01*
X156702857Y-111224285D01*
X156774285Y-111081428D01*
X156845714Y-111010000D01*
X156988571Y-110938571D01*
X157345714Y-110938571D01*
X157560000Y-111010000D01*
X158060000Y-111438571D02*
X158345714Y-112438571D01*
X158631428Y-111724285D01*
X158917142Y-112438571D01*
X159202857Y-111438571D01*
X160417142Y-112438571D02*
X160417142Y-111652857D01*
X160345714Y-111510000D01*
X160202857Y-111438571D01*
X159917142Y-111438571D01*
X159774285Y-111510000D01*
X160417142Y-112367142D02*
X160274285Y-112438571D01*
X159917142Y-112438571D01*
X159774285Y-112367142D01*
X159702857Y-112224285D01*
X159702857Y-112081428D01*
X159774285Y-111938571D01*
X159917142Y-111867142D01*
X160274285Y-111867142D01*
X160417142Y-111795714D01*
X161131428Y-111438571D02*
X161131428Y-112438571D01*
X161131428Y-111581428D02*
X161202857Y-111510000D01*
X161345714Y-111438571D01*
X161560000Y-111438571D01*
X161702857Y-111510000D01*
X161774285Y-111652857D01*
X161774285Y-112438571D01*
X162488571Y-112438571D02*
X162488571Y-110938571D01*
X162988571Y-112010000D01*
X163488571Y-110938571D01*
X163488571Y-112438571D01*
X164845714Y-112438571D02*
X164845714Y-111652857D01*
X164774285Y-111510000D01*
X164631428Y-111438571D01*
X164345714Y-111438571D01*
X164202857Y-111510000D01*
X164845714Y-112367142D02*
X164702857Y-112438571D01*
X164345714Y-112438571D01*
X164202857Y-112367142D01*
X164131428Y-112224285D01*
X164131428Y-112081428D01*
X164202857Y-111938571D01*
X164345714Y-111867142D01*
X164702857Y-111867142D01*
X164845714Y-111795714D01*
X165345714Y-111438571D02*
X165917142Y-111438571D01*
X165560000Y-110938571D02*
X165560000Y-112224285D01*
X165631428Y-112367142D01*
X165774285Y-112438571D01*
X165917142Y-112438571D01*
X167060000Y-112367142D02*
X166917142Y-112438571D01*
X166631428Y-112438571D01*
X166488571Y-112367142D01*
X166417142Y-112295714D01*
X166345714Y-112152857D01*
X166345714Y-111724285D01*
X166417142Y-111581428D01*
X166488571Y-111510000D01*
X166631428Y-111438571D01*
X166917142Y-111438571D01*
X167060000Y-111510000D01*
X167702857Y-112438571D02*
X167702857Y-110938571D01*
X168345714Y-112438571D02*
X168345714Y-111652857D01*
X168274285Y-111510000D01*
X168131428Y-111438571D01*
X167917142Y-111438571D01*
X167774285Y-111510000D01*
X167702857Y-111581428D01*
D12*
G04 #@! TO.C,G1*
G36*
X92577726Y-97438357D02*
X92509895Y-97346208D01*
X92414625Y-97196467D01*
X92287082Y-96982235D01*
X92209106Y-96847755D01*
X92085942Y-96629836D01*
X91980705Y-96435542D01*
X91899712Y-96277218D01*
X91849281Y-96167208D01*
X91835651Y-96118034D01*
X91861189Y-96070389D01*
X91923688Y-95959185D01*
X92017623Y-95794094D01*
X92137465Y-95584790D01*
X92277689Y-95340947D01*
X92432766Y-95072239D01*
X92467552Y-95012087D01*
X93079813Y-93953753D01*
X88754261Y-93932587D01*
X84428708Y-93911420D01*
X84826698Y-93223503D01*
X85224689Y-92535587D01*
X90366843Y-92535587D01*
X91018752Y-92535843D01*
X91646445Y-92536589D01*
X92244805Y-92537795D01*
X92808713Y-92539427D01*
X93333050Y-92541456D01*
X93812698Y-92543848D01*
X94242539Y-92546572D01*
X94617454Y-92549596D01*
X94932325Y-92552889D01*
X95182033Y-92556419D01*
X95361460Y-92560154D01*
X95465488Y-92564063D01*
X95490963Y-92567337D01*
X95357890Y-92800958D01*
X95199902Y-93077205D01*
X95021134Y-93388928D01*
X94825723Y-93728978D01*
X94617805Y-94090204D01*
X94401516Y-94465456D01*
X94180993Y-94847586D01*
X93960372Y-95229442D01*
X93743789Y-95603875D01*
X93535380Y-95963735D01*
X93339282Y-96301872D01*
X93159631Y-96611137D01*
X93000563Y-96884379D01*
X92866215Y-97114448D01*
X92760722Y-97294195D01*
X92688220Y-97416471D01*
X92652848Y-97474124D01*
X92650414Y-97477474D01*
X92622954Y-97479813D01*
X92577726Y-97438357D01*
X92577726Y-97438357D01*
G37*
X92577726Y-97438357D02*
X92509895Y-97346208D01*
X92414625Y-97196467D01*
X92287082Y-96982235D01*
X92209106Y-96847755D01*
X92085942Y-96629836D01*
X91980705Y-96435542D01*
X91899712Y-96277218D01*
X91849281Y-96167208D01*
X91835651Y-96118034D01*
X91861189Y-96070389D01*
X91923688Y-95959185D01*
X92017623Y-95794094D01*
X92137465Y-95584790D01*
X92277689Y-95340947D01*
X92432766Y-95072239D01*
X92467552Y-95012087D01*
X93079813Y-93953753D01*
X88754261Y-93932587D01*
X84428708Y-93911420D01*
X84826698Y-93223503D01*
X85224689Y-92535587D01*
X90366843Y-92535587D01*
X91018752Y-92535843D01*
X91646445Y-92536589D01*
X92244805Y-92537795D01*
X92808713Y-92539427D01*
X93333050Y-92541456D01*
X93812698Y-92543848D01*
X94242539Y-92546572D01*
X94617454Y-92549596D01*
X94932325Y-92552889D01*
X95182033Y-92556419D01*
X95361460Y-92560154D01*
X95465488Y-92564063D01*
X95490963Y-92567337D01*
X95357890Y-92800958D01*
X95199902Y-93077205D01*
X95021134Y-93388928D01*
X94825723Y-93728978D01*
X94617805Y-94090204D01*
X94401516Y-94465456D01*
X94180993Y-94847586D01*
X93960372Y-95229442D01*
X93743789Y-95603875D01*
X93535380Y-95963735D01*
X93339282Y-96301872D01*
X93159631Y-96611137D01*
X93000563Y-96884379D01*
X92866215Y-97114448D01*
X92760722Y-97294195D01*
X92688220Y-97416471D01*
X92652848Y-97474124D01*
X92650414Y-97477474D01*
X92622954Y-97479813D01*
X92577726Y-97438357D01*
G36*
X82671911Y-101417032D02*
X82515314Y-101410196D01*
X82415617Y-101397824D01*
X82363597Y-101379450D01*
X82356746Y-101373634D01*
X82329577Y-101330657D01*
X82262901Y-101218844D01*
X82159375Y-101042778D01*
X82021655Y-100807044D01*
X81852399Y-100516226D01*
X81654263Y-100174909D01*
X81429904Y-99787676D01*
X81181979Y-99359112D01*
X80913145Y-98893801D01*
X80626058Y-98396327D01*
X80323377Y-97871275D01*
X80007757Y-97323229D01*
X79798408Y-96959420D01*
X79476355Y-96399576D01*
X79166006Y-95860082D01*
X78869980Y-95345490D01*
X78590895Y-94860350D01*
X78331369Y-94409213D01*
X78094019Y-93996630D01*
X77881464Y-93627150D01*
X77696322Y-93305326D01*
X77541210Y-93035707D01*
X77418746Y-92822845D01*
X77331548Y-92671289D01*
X77282235Y-92585591D01*
X77271723Y-92567337D01*
X77309761Y-92561995D01*
X77425658Y-92556935D01*
X77612606Y-92552232D01*
X77863797Y-92547963D01*
X78172425Y-92544202D01*
X78531682Y-92541025D01*
X78934759Y-92538507D01*
X79374850Y-92536724D01*
X79845147Y-92535751D01*
X80138030Y-92535587D01*
X80623277Y-92536104D01*
X81082495Y-92537599D01*
X81508863Y-92539984D01*
X81895560Y-92543175D01*
X82235764Y-92547084D01*
X82522656Y-92551625D01*
X82749412Y-92556713D01*
X82909213Y-92562261D01*
X82995238Y-92568183D01*
X83008611Y-92571858D01*
X82983866Y-92618649D01*
X82923801Y-92726347D01*
X82835437Y-92882541D01*
X82725791Y-93074817D01*
X82613965Y-93269761D01*
X82233430Y-93931392D01*
X80958129Y-93942573D01*
X79682828Y-93953753D01*
X81341136Y-96832420D01*
X81617006Y-97311263D01*
X81891599Y-97787809D01*
X82160338Y-98254117D01*
X82418643Y-98702248D01*
X82661936Y-99124260D01*
X82885639Y-99512212D01*
X83085174Y-99858165D01*
X83255963Y-100154177D01*
X83393427Y-100392308D01*
X83489019Y-100557753D01*
X83978596Y-101404420D01*
X83192690Y-101415967D01*
X82894629Y-101418801D01*
X82671911Y-101417032D01*
X82671911Y-101417032D01*
G37*
X82671911Y-101417032D02*
X82515314Y-101410196D01*
X82415617Y-101397824D01*
X82363597Y-101379450D01*
X82356746Y-101373634D01*
X82329577Y-101330657D01*
X82262901Y-101218844D01*
X82159375Y-101042778D01*
X82021655Y-100807044D01*
X81852399Y-100516226D01*
X81654263Y-100174909D01*
X81429904Y-99787676D01*
X81181979Y-99359112D01*
X80913145Y-98893801D01*
X80626058Y-98396327D01*
X80323377Y-97871275D01*
X80007757Y-97323229D01*
X79798408Y-96959420D01*
X79476355Y-96399576D01*
X79166006Y-95860082D01*
X78869980Y-95345490D01*
X78590895Y-94860350D01*
X78331369Y-94409213D01*
X78094019Y-93996630D01*
X77881464Y-93627150D01*
X77696322Y-93305326D01*
X77541210Y-93035707D01*
X77418746Y-92822845D01*
X77331548Y-92671289D01*
X77282235Y-92585591D01*
X77271723Y-92567337D01*
X77309761Y-92561995D01*
X77425658Y-92556935D01*
X77612606Y-92552232D01*
X77863797Y-92547963D01*
X78172425Y-92544202D01*
X78531682Y-92541025D01*
X78934759Y-92538507D01*
X79374850Y-92536724D01*
X79845147Y-92535751D01*
X80138030Y-92535587D01*
X80623277Y-92536104D01*
X81082495Y-92537599D01*
X81508863Y-92539984D01*
X81895560Y-92543175D01*
X82235764Y-92547084D01*
X82522656Y-92551625D01*
X82749412Y-92556713D01*
X82909213Y-92562261D01*
X82995238Y-92568183D01*
X83008611Y-92571858D01*
X82983866Y-92618649D01*
X82923801Y-92726347D01*
X82835437Y-92882541D01*
X82725791Y-93074817D01*
X82613965Y-93269761D01*
X82233430Y-93931392D01*
X80958129Y-93942573D01*
X79682828Y-93953753D01*
X81341136Y-96832420D01*
X81617006Y-97311263D01*
X81891599Y-97787809D01*
X82160338Y-98254117D01*
X82418643Y-98702248D01*
X82661936Y-99124260D01*
X82885639Y-99512212D01*
X83085174Y-99858165D01*
X83255963Y-100154177D01*
X83393427Y-100392308D01*
X83489019Y-100557753D01*
X83978596Y-101404420D01*
X83192690Y-101415967D01*
X82894629Y-101418801D01*
X82671911Y-101417032D01*
G36*
X86360594Y-108286480D02*
X86295376Y-108185030D01*
X86195149Y-108021980D01*
X86063439Y-107803272D01*
X85903771Y-107534847D01*
X85719669Y-107222647D01*
X85514656Y-106872613D01*
X85292259Y-106490687D01*
X85056001Y-106082809D01*
X84916728Y-105841412D01*
X83482396Y-103351753D01*
X84275471Y-103340198D01*
X84564888Y-103337143D01*
X84780309Y-103337995D01*
X84932338Y-103343353D01*
X85031580Y-103353814D01*
X85088642Y-103369978D01*
X85111024Y-103387384D01*
X85142400Y-103438070D01*
X85210158Y-103552390D01*
X85308575Y-103720522D01*
X85431928Y-103932647D01*
X85574491Y-104178944D01*
X85730543Y-104449591D01*
X85765290Y-104509990D01*
X86377080Y-105573853D01*
X86449561Y-105457637D01*
X86480595Y-105405121D01*
X86550237Y-105285507D01*
X86654864Y-105105078D01*
X86790853Y-104870119D01*
X86954580Y-104586913D01*
X87142422Y-104261744D01*
X87350756Y-103900896D01*
X87575960Y-103510653D01*
X87814409Y-103097299D01*
X88062480Y-102667118D01*
X88316551Y-102226394D01*
X88572998Y-101781410D01*
X88828199Y-101338451D01*
X89078529Y-100903800D01*
X89320365Y-100483742D01*
X89550085Y-100084561D01*
X89764066Y-99712539D01*
X89958684Y-99373962D01*
X90130315Y-99075112D01*
X90268944Y-98833431D01*
X90399518Y-98607343D01*
X90516222Y-98408570D01*
X90612489Y-98248027D01*
X90681755Y-98136628D01*
X90717451Y-98085289D01*
X90720333Y-98083116D01*
X90747054Y-98118160D01*
X90808330Y-98215287D01*
X90897131Y-98362830D01*
X91006424Y-98549120D01*
X91118972Y-98744600D01*
X91240341Y-98959869D01*
X91345505Y-99151539D01*
X91427708Y-99306873D01*
X91480196Y-99413136D01*
X91496445Y-99456219D01*
X91475752Y-99499618D01*
X91415690Y-99610973D01*
X91319285Y-99784955D01*
X91189563Y-100016234D01*
X91029549Y-100299478D01*
X90842269Y-100629356D01*
X90630749Y-101000539D01*
X90398014Y-101407694D01*
X90147091Y-101845493D01*
X89881004Y-102308603D01*
X89631685Y-102741558D01*
X89335295Y-103255733D01*
X89037208Y-103772882D01*
X88742072Y-104284944D01*
X88454532Y-104783853D01*
X88179237Y-105261547D01*
X87920831Y-105709964D01*
X87683962Y-106121039D01*
X87473276Y-106486709D01*
X87293421Y-106798911D01*
X87149043Y-107049581D01*
X87095212Y-107143064D01*
X86930133Y-107428194D01*
X86777516Y-107688770D01*
X86642684Y-107915944D01*
X86530958Y-108100864D01*
X86447659Y-108234683D01*
X86398108Y-108308551D01*
X86387281Y-108320389D01*
X86360594Y-108286480D01*
X86360594Y-108286480D01*
G37*
X86360594Y-108286480D02*
X86295376Y-108185030D01*
X86195149Y-108021980D01*
X86063439Y-107803272D01*
X85903771Y-107534847D01*
X85719669Y-107222647D01*
X85514656Y-106872613D01*
X85292259Y-106490687D01*
X85056001Y-106082809D01*
X84916728Y-105841412D01*
X83482396Y-103351753D01*
X84275471Y-103340198D01*
X84564888Y-103337143D01*
X84780309Y-103337995D01*
X84932338Y-103343353D01*
X85031580Y-103353814D01*
X85088642Y-103369978D01*
X85111024Y-103387384D01*
X85142400Y-103438070D01*
X85210158Y-103552390D01*
X85308575Y-103720522D01*
X85431928Y-103932647D01*
X85574491Y-104178944D01*
X85730543Y-104449591D01*
X85765290Y-104509990D01*
X86377080Y-105573853D01*
X86449561Y-105457637D01*
X86480595Y-105405121D01*
X86550237Y-105285507D01*
X86654864Y-105105078D01*
X86790853Y-104870119D01*
X86954580Y-104586913D01*
X87142422Y-104261744D01*
X87350756Y-103900896D01*
X87575960Y-103510653D01*
X87814409Y-103097299D01*
X88062480Y-102667118D01*
X88316551Y-102226394D01*
X88572998Y-101781410D01*
X88828199Y-101338451D01*
X89078529Y-100903800D01*
X89320365Y-100483742D01*
X89550085Y-100084561D01*
X89764066Y-99712539D01*
X89958684Y-99373962D01*
X90130315Y-99075112D01*
X90268944Y-98833431D01*
X90399518Y-98607343D01*
X90516222Y-98408570D01*
X90612489Y-98248027D01*
X90681755Y-98136628D01*
X90717451Y-98085289D01*
X90720333Y-98083116D01*
X90747054Y-98118160D01*
X90808330Y-98215287D01*
X90897131Y-98362830D01*
X91006424Y-98549120D01*
X91118972Y-98744600D01*
X91240341Y-98959869D01*
X91345505Y-99151539D01*
X91427708Y-99306873D01*
X91480196Y-99413136D01*
X91496445Y-99456219D01*
X91475752Y-99499618D01*
X91415690Y-99610973D01*
X91319285Y-99784955D01*
X91189563Y-100016234D01*
X91029549Y-100299478D01*
X90842269Y-100629356D01*
X90630749Y-101000539D01*
X90398014Y-101407694D01*
X90147091Y-101845493D01*
X89881004Y-102308603D01*
X89631685Y-102741558D01*
X89335295Y-103255733D01*
X89037208Y-103772882D01*
X88742072Y-104284944D01*
X88454532Y-104783853D01*
X88179237Y-105261547D01*
X87920831Y-105709964D01*
X87683962Y-106121039D01*
X87473276Y-106486709D01*
X87293421Y-106798911D01*
X87149043Y-107049581D01*
X87095212Y-107143064D01*
X86930133Y-107428194D01*
X86777516Y-107688770D01*
X86642684Y-107915944D01*
X86530958Y-108100864D01*
X86447659Y-108234683D01*
X86398108Y-108308551D01*
X86387281Y-108320389D01*
X86360594Y-108286480D01*
G04 #@! TD*
D14*
G04 #@! TO.C,SW16*
X154925000Y-78774920D03*
X167625000Y-81314920D03*
D15*
X165735000Y-78734920D03*
X164465000Y-81274920D03*
X158115000Y-78734921D03*
X159385000Y-81274920D03*
D16*
X161925000Y-76194920D03*
D17*
X156845000Y-76194920D03*
X167005000Y-76194920D03*
G04 #@! TD*
D14*
G04 #@! TO.C,SW15*
X135875000Y-69255000D03*
X148575000Y-71795000D03*
D15*
X146685000Y-69215000D03*
X145415000Y-71755000D03*
X139065000Y-69215001D03*
X140335000Y-71755000D03*
D16*
X142875000Y-66675000D03*
D17*
X137795000Y-66675000D03*
X147955000Y-66675000D03*
G04 #@! TD*
D18*
G04 #@! TO.C,Ref4*
X136525000Y-118110000D03*
G04 #@! TD*
D14*
G04 #@! TO.C,SW9*
X135875000Y-50205000D03*
X148575000Y-52745000D03*
D15*
X146685000Y-50165000D03*
X145415000Y-52705000D03*
X139065000Y-50165001D03*
X140335000Y-52705000D03*
D16*
X142875000Y-47625000D03*
D17*
X137795000Y-47625000D03*
X147955000Y-47625000D03*
G04 #@! TD*
D19*
G04 #@! TO.C,L28*
X140442000Y-98785000D03*
X140442000Y-100535000D03*
X145242000Y-100535000D03*
X145242000Y-98785000D03*
G04 #@! TD*
D20*
G04 #@! TO.C,Ref7*
X204250000Y-43100000D03*
G04 #@! TD*
G04 #@! TO.C,Ref6*
X102250000Y-33100000D03*
G04 #@! TD*
G04 #@! TO.C,Ref8*
X89250000Y-118100000D03*
G04 #@! TD*
D14*
G04 #@! TO.C,SW11*
X173975000Y-69255000D03*
X186675000Y-71795000D03*
D15*
X184785000Y-69215000D03*
X183515000Y-71755000D03*
X177165000Y-69215001D03*
X178435000Y-71755000D03*
D16*
X180975000Y-66675000D03*
D17*
X175895000Y-66675000D03*
X186055000Y-66675000D03*
G04 #@! TD*
D14*
G04 #@! TO.C,SW28*
X135875000Y-107355000D03*
X148575000Y-109895000D03*
D15*
X146685000Y-107315000D03*
X145415000Y-109855000D03*
X139065000Y-107315001D03*
X140335000Y-109855000D03*
D16*
X142875000Y-104775000D03*
D17*
X137795000Y-104775000D03*
X147955000Y-104775000D03*
G04 #@! TD*
D14*
G04 #@! TO.C,SW17*
X173975000Y-88299920D03*
D15*
X177165000Y-88259920D03*
X178435000Y-90799920D03*
X184785000Y-88259921D03*
X183515000Y-90799920D03*
D16*
X180975000Y-85719920D03*
D17*
X186055000Y-85719920D03*
X175895000Y-85719920D03*
D14*
X186675000Y-90839920D03*
G04 #@! TD*
G04 #@! TO.C,SW5*
X173975000Y-50205000D03*
X186675000Y-52745000D03*
D15*
X184785000Y-50165000D03*
X183515000Y-52705000D03*
X177165000Y-50165001D03*
X178435000Y-52705000D03*
D16*
X180975000Y-47625000D03*
D17*
X175895000Y-47625000D03*
X186055000Y-47625000D03*
G04 #@! TD*
D14*
G04 #@! TO.C,SW4*
X154925000Y-40680000D03*
X167625000Y-43220000D03*
D15*
X165735000Y-40640000D03*
X164465000Y-43180000D03*
X158115000Y-40640001D03*
X159385000Y-43180000D03*
D16*
X161925000Y-38100000D03*
D17*
X156845000Y-38100000D03*
X167005000Y-38100000D03*
G04 #@! TD*
D14*
G04 #@! TO.C,SW23*
X173975000Y-107350000D03*
X186675000Y-109890000D03*
D15*
X184785000Y-107310000D03*
X183515000Y-109850000D03*
X177165000Y-107310001D03*
X178435000Y-109850000D03*
D16*
X180975000Y-104770000D03*
D17*
X175895000Y-104770000D03*
X186055000Y-104770000D03*
G04 #@! TD*
D14*
G04 #@! TO.C,SW2*
X116825000Y-40680000D03*
X129525000Y-43220000D03*
D15*
X127635000Y-40640000D03*
X126365000Y-43180000D03*
X120015000Y-40640001D03*
X121285000Y-43180000D03*
D16*
X123825000Y-38100000D03*
D17*
X118745000Y-38100000D03*
X128905000Y-38100000D03*
G04 #@! TD*
D14*
G04 #@! TO.C,SW1*
X97775000Y-50205000D03*
X110475000Y-52745000D03*
D15*
X108585000Y-50165000D03*
X107315000Y-52705000D03*
X100965000Y-50165001D03*
X102235000Y-52705000D03*
D16*
X104775000Y-47625000D03*
D17*
X99695000Y-47625000D03*
X109855000Y-47625000D03*
G04 #@! TD*
D14*
G04 #@! TO.C,SW3*
X135875000Y-31155000D03*
X148575000Y-33695000D03*
D15*
X146685000Y-31115000D03*
X145415000Y-33655000D03*
X139065000Y-31115001D03*
X140335000Y-33655000D03*
D16*
X142875000Y-28575000D03*
D17*
X137795000Y-28575000D03*
X147955000Y-28575000D03*
G04 #@! TD*
G04 #@! TO.C,SW6*
X205105000Y-57150000D03*
X194945000Y-57150000D03*
D16*
X200025000Y-57150000D03*
D15*
X197485000Y-62230000D03*
X196215000Y-59690001D03*
X202565000Y-62230000D03*
X203835000Y-59690000D03*
D14*
X205725000Y-62270000D03*
X193025000Y-59730000D03*
G04 #@! TD*
G04 #@! TO.C,SW7*
X97775000Y-69255000D03*
X110475000Y-71795000D03*
D15*
X108585000Y-69215000D03*
X107315000Y-71755000D03*
X100965000Y-69215001D03*
X102235000Y-71755000D03*
D16*
X104775000Y-66675000D03*
D17*
X99695000Y-66675000D03*
X109855000Y-66675000D03*
G04 #@! TD*
D14*
G04 #@! TO.C,SW8*
X116825000Y-59730000D03*
X129525000Y-62270000D03*
D15*
X127635000Y-59690000D03*
X126365000Y-62230000D03*
X120015000Y-59690001D03*
X121285000Y-62230000D03*
D16*
X123825000Y-57150000D03*
D17*
X118745000Y-57150000D03*
X128905000Y-57150000D03*
G04 #@! TD*
D14*
G04 #@! TO.C,SW10*
X154925000Y-59730000D03*
X167625000Y-62270000D03*
D15*
X165735000Y-59690000D03*
X164465000Y-62230000D03*
X158115000Y-59690001D03*
X159385000Y-62230000D03*
D16*
X161925000Y-57150000D03*
D17*
X156845000Y-57150000D03*
X167005000Y-57150000D03*
G04 #@! TD*
D14*
G04 #@! TO.C,SW12*
X193025000Y-78745000D03*
X205725000Y-81285000D03*
D15*
X203835000Y-78705000D03*
X202565000Y-81245000D03*
X196215000Y-78705001D03*
X197485000Y-81245000D03*
D16*
X200025000Y-76165000D03*
D17*
X194945000Y-76165000D03*
X205105000Y-76165000D03*
G04 #@! TD*
D14*
G04 #@! TO.C,SW13*
X97775000Y-88305000D03*
X110475000Y-90845000D03*
D15*
X108585000Y-88265000D03*
X107315000Y-90805000D03*
X100965000Y-88265001D03*
X102235000Y-90805000D03*
D16*
X104775000Y-85725000D03*
D17*
X99695000Y-85725000D03*
X109855000Y-85725000D03*
G04 #@! TD*
D14*
G04 #@! TO.C,SW14*
X116825000Y-78780000D03*
X129525000Y-81320000D03*
D15*
X127635000Y-78740000D03*
X126365000Y-81280000D03*
X120015000Y-78740001D03*
X121285000Y-81280000D03*
D16*
X123825000Y-76200000D03*
D17*
X118745000Y-76200000D03*
X128905000Y-76200000D03*
G04 #@! TD*
D14*
G04 #@! TO.C,SW18*
X193025000Y-97830000D03*
X205725000Y-100370000D03*
D15*
X203835000Y-97790000D03*
X202565000Y-100330000D03*
X196215000Y-97790001D03*
X197485000Y-100330000D03*
D16*
X200025000Y-95250000D03*
D17*
X194945000Y-95250000D03*
X205105000Y-95250000D03*
G04 #@! TD*
D14*
G04 #@! TO.C,SW19*
X97775000Y-107355000D03*
X110475000Y-109895000D03*
D15*
X108585000Y-107315000D03*
X107315000Y-109855000D03*
X100965000Y-107315001D03*
X102235000Y-109855000D03*
D16*
X104775000Y-104775000D03*
D17*
X99695000Y-104775000D03*
X109855000Y-104775000D03*
G04 #@! TD*
D14*
G04 #@! TO.C,SW20*
X116825000Y-97830000D03*
X129525000Y-100370000D03*
D15*
X127635000Y-97790000D03*
X126365000Y-100330000D03*
X120015000Y-97790001D03*
X121285000Y-100330000D03*
D16*
X123825000Y-95250000D03*
D17*
X118745000Y-95250000D03*
X128905000Y-95250000D03*
G04 #@! TD*
D14*
G04 #@! TO.C,SW21*
X135875000Y-88305000D03*
X148575000Y-90845000D03*
D15*
X146685000Y-88265000D03*
X145415000Y-90805000D03*
X139065000Y-88265001D03*
X140335000Y-90805000D03*
D16*
X142875000Y-85725000D03*
D17*
X137795000Y-85725000D03*
X147955000Y-85725000D03*
G04 #@! TD*
D14*
G04 #@! TO.C,SW22*
X154925000Y-97824900D03*
X167625000Y-100364900D03*
D15*
X165735000Y-97784900D03*
X164465000Y-100324900D03*
X158115000Y-97784901D03*
X159385000Y-100324900D03*
D16*
X161925000Y-95244900D03*
D17*
X156845000Y-95244900D03*
X167005000Y-95244900D03*
G04 #@! TD*
D14*
G04 #@! TO.C,SW24*
X193025000Y-116875000D03*
X205725000Y-119415000D03*
D15*
X203835000Y-116835000D03*
X202565000Y-119375000D03*
X196215000Y-116835001D03*
X197485000Y-119375000D03*
D16*
X200025000Y-114295000D03*
D17*
X194945000Y-114295000D03*
X205105000Y-114295000D03*
G04 #@! TD*
D14*
G04 #@! TO.C,SW25*
X78725000Y-135930000D03*
X91425000Y-138470000D03*
D15*
X89535000Y-135890000D03*
X88265000Y-138430000D03*
X81915000Y-135890001D03*
X83185000Y-138430000D03*
D16*
X85725000Y-133350000D03*
D17*
X80645000Y-133350000D03*
X90805000Y-133350000D03*
G04 #@! TD*
D14*
G04 #@! TO.C,SW26*
X97775000Y-126405000D03*
X110475000Y-128945000D03*
D15*
X108585000Y-126365000D03*
X107315000Y-128905000D03*
X100965000Y-126365001D03*
X102235000Y-128905000D03*
D16*
X104775000Y-123825000D03*
D17*
X99695000Y-123825000D03*
X109855000Y-123825000D03*
G04 #@! TD*
D14*
G04 #@! TO.C,SW27*
X116825000Y-116880000D03*
X129525000Y-119420000D03*
D15*
X127635000Y-116840000D03*
X126365000Y-119380000D03*
X120015000Y-116840001D03*
X121285000Y-119380000D03*
D16*
X123825000Y-114300000D03*
D17*
X118745000Y-114300000D03*
X128905000Y-114300000D03*
G04 #@! TD*
D19*
G04 #@! TO.C,L25*
X88125000Y-129145000D03*
X88125000Y-127395000D03*
X83325000Y-129145000D03*
X83325000Y-127395000D03*
G04 #@! TD*
G04 #@! TO.C,L26*
X102342000Y-117835000D03*
X102342000Y-119585000D03*
X107142000Y-117835000D03*
X107142000Y-119585000D03*
G04 #@! TD*
G04 #@! TO.C,L27*
X126192000Y-110060000D03*
X126192000Y-108310000D03*
X121392000Y-110060000D03*
X121392000Y-108310000D03*
G04 #@! TD*
G04 #@! TO.C,L8*
X121392000Y-51160000D03*
X121392000Y-52910000D03*
X126192000Y-51160000D03*
X126192000Y-52910000D03*
G04 #@! TD*
G04 #@! TO.C,L20*
X121392000Y-89260000D03*
X121392000Y-91010000D03*
X126192000Y-89260000D03*
X126192000Y-91010000D03*
G04 #@! TD*
G04 #@! TO.C,L14*
X121392000Y-70210000D03*
X121392000Y-71960000D03*
X126192000Y-70210000D03*
X126192000Y-71960000D03*
G04 #@! TD*
D21*
G04 #@! TO.C,U1*
X78796400Y-32512000D03*
X78796400Y-35052000D03*
X78796400Y-37592000D03*
X78796400Y-40132000D03*
X78796400Y-42672000D03*
X78796400Y-45212000D03*
X78796400Y-47752000D03*
X78796400Y-50292000D03*
X78796400Y-52832000D03*
X78796400Y-55372000D03*
X78796400Y-57912000D03*
X78796400Y-60452000D03*
X94016400Y-60452000D03*
X94016400Y-57912000D03*
X94016400Y-55372000D03*
X94016400Y-52832000D03*
X94016400Y-50292000D03*
X94016400Y-47752000D03*
X94016400Y-45212000D03*
X94016400Y-42672000D03*
X94016400Y-40132000D03*
X94016400Y-37592000D03*
X94016400Y-35052000D03*
X94016400Y-32512000D03*
X77470000Y-33782000D03*
X77470000Y-36322000D03*
X77470000Y-38862000D03*
X77470000Y-41402000D03*
X77470000Y-43942000D03*
X77470000Y-46482000D03*
X77470000Y-49022000D03*
X77470000Y-51562000D03*
X77470000Y-54102000D03*
X77470000Y-56642000D03*
X77470000Y-59182000D03*
X77470000Y-61722000D03*
X92710000Y-61722000D03*
X92710000Y-59182000D03*
X92710000Y-56642000D03*
X92710000Y-54102000D03*
X92710000Y-51562000D03*
X92710000Y-49022000D03*
X92710000Y-46482000D03*
X92710000Y-43942000D03*
X92710000Y-41402000D03*
X92710000Y-38862000D03*
X92710000Y-36322000D03*
X92710000Y-33782000D03*
G04 #@! TD*
D22*
G04 #@! TO.C,OLED1*
X81915000Y-65405000D03*
X84455000Y-65405000D03*
X86995000Y-65405000D03*
X89535000Y-65405000D03*
G04 #@! TD*
D18*
G04 #@! TO.C,Ref1*
X156210000Y-24765000D03*
G04 #@! TD*
G04 #@! TO.C,Ref0*
X114300000Y-45720000D03*
G04 #@! TD*
G04 #@! TO.C,Ref3*
X80010000Y-120015000D03*
G04 #@! TD*
G04 #@! TO.C,Ref5*
X190500000Y-103505000D03*
G04 #@! TD*
D23*
G04 #@! TO.C,HOLE_M2_1*
X92365000Y-81585000D03*
G04 #@! TD*
G04 #@! TO.C,HOLE_M2_0*
X78615000Y-81585000D03*
G04 #@! TD*
D24*
G04 #@! TO.C,D1*
X114300000Y-51565000D03*
D25*
X114300000Y-49530000D03*
D22*
X114300000Y-57150000D03*
D24*
X114300000Y-55115000D03*
G04 #@! TD*
G04 #@! TO.C,D2*
X133350000Y-39875000D03*
D22*
X133350000Y-41910000D03*
D25*
X133350000Y-34290000D03*
D24*
X133350000Y-36325000D03*
G04 #@! TD*
G04 #@! TO.C,D3*
X152400000Y-30350000D03*
D22*
X152400000Y-32385000D03*
D25*
X152400000Y-24765000D03*
D24*
X152400000Y-26800000D03*
G04 #@! TD*
G04 #@! TO.C,D4*
X171450000Y-36325000D03*
D25*
X171450000Y-34290000D03*
D22*
X171450000Y-41910000D03*
D24*
X171450000Y-39875000D03*
G04 #@! TD*
G04 #@! TO.C,D5*
X189865000Y-42675000D03*
D25*
X189865000Y-40640000D03*
D22*
X189865000Y-48260000D03*
D24*
X189865000Y-46225000D03*
G04 #@! TD*
G04 #@! TO.C,D6*
X191770000Y-42675000D03*
D25*
X191770000Y-40640000D03*
D22*
X191770000Y-48260000D03*
D24*
X191770000Y-46225000D03*
G04 #@! TD*
G04 #@! TO.C,D7*
X114300000Y-68450000D03*
D22*
X114300000Y-70485000D03*
D25*
X114300000Y-62865000D03*
D24*
X114300000Y-64900000D03*
G04 #@! TD*
G04 #@! TO.C,D8*
X133350000Y-55375000D03*
D25*
X133350000Y-53340000D03*
D22*
X133350000Y-60960000D03*
D24*
X133350000Y-58925000D03*
G04 #@! TD*
G04 #@! TO.C,D9*
X152400000Y-49400000D03*
D22*
X152400000Y-51435000D03*
D25*
X152400000Y-43815000D03*
D24*
X152400000Y-45850000D03*
G04 #@! TD*
G04 #@! TO.C,D10*
X171450000Y-55375000D03*
D25*
X171450000Y-53340000D03*
D22*
X171450000Y-60960000D03*
D24*
X171450000Y-58925000D03*
G04 #@! TD*
G04 #@! TO.C,D11*
X191770000Y-73530000D03*
D22*
X191770000Y-75565000D03*
D25*
X191770000Y-67945000D03*
D24*
X191770000Y-69980000D03*
G04 #@! TD*
G04 #@! TO.C,D12*
X189230000Y-80645000D03*
D22*
X189230000Y-82680000D03*
D25*
X189230000Y-75060000D03*
D24*
X189230000Y-77095000D03*
G04 #@! TD*
G04 #@! TO.C,D13*
X114300000Y-83950000D03*
D25*
X114300000Y-81915000D03*
D22*
X114300000Y-89535000D03*
D24*
X114300000Y-87500000D03*
G04 #@! TD*
G04 #@! TO.C,D14*
X133350000Y-74425000D03*
D25*
X133350000Y-72390000D03*
D22*
X133350000Y-80010000D03*
D24*
X133350000Y-77975000D03*
G04 #@! TD*
G04 #@! TO.C,D15*
X152400000Y-68450000D03*
D22*
X152400000Y-70485000D03*
D25*
X152400000Y-62865000D03*
D24*
X152400000Y-64900000D03*
G04 #@! TD*
G04 #@! TO.C,D16*
X171450000Y-77975000D03*
D22*
X171450000Y-80010000D03*
D25*
X171450000Y-72390000D03*
D24*
X171450000Y-74425000D03*
G04 #@! TD*
G04 #@! TO.C,D17*
X189230000Y-92840000D03*
D25*
X189230000Y-90805000D03*
D22*
X189230000Y-98425000D03*
D24*
X189230000Y-96390000D03*
G04 #@! TD*
G04 #@! TO.C,D18*
X191770000Y-92580000D03*
D22*
X191770000Y-94615000D03*
D25*
X191770000Y-86995000D03*
D24*
X191770000Y-89030000D03*
G04 #@! TD*
G04 #@! TO.C,D19*
X114300000Y-103000000D03*
D25*
X114300000Y-100965000D03*
D22*
X114300000Y-108585000D03*
D24*
X114300000Y-106550000D03*
G04 #@! TD*
G04 #@! TO.C,D20*
X133350000Y-97025000D03*
D22*
X133350000Y-99060000D03*
D25*
X133350000Y-91440000D03*
D24*
X133350000Y-93475000D03*
G04 #@! TD*
G04 #@! TO.C,D21*
X152400000Y-83950000D03*
D25*
X152400000Y-81915000D03*
D22*
X152400000Y-89535000D03*
D24*
X152400000Y-87500000D03*
G04 #@! TD*
G04 #@! TO.C,D22*
X171450000Y-97019900D03*
D22*
X171450000Y-99054900D03*
D25*
X171450000Y-91434900D03*
D24*
X171450000Y-93469900D03*
G04 #@! TD*
G04 #@! TO.C,D23*
X188608000Y-115060000D03*
D25*
X188608000Y-113025000D03*
D22*
X188608000Y-120645000D03*
D24*
X188608000Y-118610000D03*
G04 #@! TD*
G04 #@! TO.C,D24*
X190500000Y-115065000D03*
D25*
X190500000Y-113030000D03*
D22*
X190500000Y-120650000D03*
D24*
X190500000Y-118615000D03*
G04 #@! TD*
G04 #@! TO.C,D25*
X95250000Y-135125000D03*
D22*
X95250000Y-137160000D03*
D25*
X95250000Y-129540000D03*
D24*
X95250000Y-131575000D03*
G04 #@! TD*
G04 #@! TO.C,D26*
X114300000Y-122050000D03*
D25*
X114300000Y-120015000D03*
D22*
X114300000Y-127635000D03*
D24*
X114300000Y-125600000D03*
G04 #@! TD*
G04 #@! TO.C,D27*
X133350000Y-112395000D03*
D22*
X133350000Y-114430000D03*
D25*
X133350000Y-106810000D03*
D24*
X133350000Y-108845000D03*
G04 #@! TD*
G04 #@! TO.C,D28*
X152400000Y-103000000D03*
D25*
X152400000Y-100965000D03*
D22*
X152400000Y-108585000D03*
D24*
X152400000Y-106550000D03*
G04 #@! TD*
D26*
G04 #@! TO.C,J1*
X84750000Y-72235000D03*
X77750000Y-72235000D03*
D27*
X86550000Y-74335000D03*
X88050000Y-70135000D03*
X79550000Y-74335000D03*
X82550000Y-74335000D03*
D26*
X77750000Y-70485000D03*
X84750000Y-70485000D03*
D27*
X79550000Y-68385000D03*
X82550000Y-68385000D03*
X86550000Y-68385000D03*
X88050000Y-72585000D03*
G04 #@! TD*
D28*
G04 #@! TO.C,J2*
X89535000Y-62730380D03*
X89535000Y-61729620D03*
G04 #@! TD*
G04 #@! TO.C,J4*
X86995000Y-61729620D03*
X86995000Y-62730380D03*
G04 #@! TD*
G04 #@! TO.C,J5*
X84455000Y-62730380D03*
X84455000Y-61729620D03*
G04 #@! TD*
G04 #@! TO.C,J6*
X81915000Y-61729620D03*
X81915000Y-62730380D03*
G04 #@! TD*
D19*
G04 #@! TO.C,L1*
X102342000Y-41635000D03*
X102342000Y-43385000D03*
X107142000Y-41635000D03*
X107142000Y-43385000D03*
G04 #@! TD*
G04 #@! TO.C,L2*
X126192000Y-33860000D03*
X126192000Y-32110000D03*
X121392000Y-33860000D03*
X121392000Y-32110000D03*
G04 #@! TD*
G04 #@! TO.C,L3*
X140442000Y-22585000D03*
X140442000Y-24335000D03*
X145242000Y-22585000D03*
X145242000Y-24335000D03*
G04 #@! TD*
G04 #@! TO.C,L4*
X164292000Y-33860000D03*
X164292000Y-32110000D03*
X159492000Y-33860000D03*
X159492000Y-32110000D03*
G04 #@! TD*
G04 #@! TO.C,L5*
X183342000Y-43385000D03*
X183342000Y-41635000D03*
X178542000Y-43385000D03*
X178542000Y-41635000D03*
G04 #@! TD*
G04 #@! TO.C,L6*
X197592000Y-51160000D03*
X197592000Y-52910000D03*
X202392000Y-51160000D03*
X202392000Y-52910000D03*
G04 #@! TD*
G04 #@! TO.C,L7*
X107142000Y-62435000D03*
X107142000Y-60685000D03*
X102342000Y-62435000D03*
X102342000Y-60685000D03*
G04 #@! TD*
G04 #@! TO.C,L9*
X145242000Y-43385000D03*
X145242000Y-41635000D03*
X140442000Y-43385000D03*
X140442000Y-41635000D03*
G04 #@! TD*
G04 #@! TO.C,L10*
X159492000Y-51160000D03*
X159492000Y-52910000D03*
X164292000Y-51160000D03*
X164292000Y-52910000D03*
G04 #@! TD*
G04 #@! TO.C,L11*
X183342000Y-62435000D03*
X183342000Y-60685000D03*
X178542000Y-62435000D03*
X178542000Y-60685000D03*
G04 #@! TD*
G04 #@! TO.C,L12*
X197592000Y-70210000D03*
X197592000Y-71960000D03*
X202392000Y-70210000D03*
X202392000Y-71960000D03*
G04 #@! TD*
G04 #@! TO.C,L13*
X107202000Y-81485000D03*
X107202000Y-79735000D03*
X102402000Y-81485000D03*
X102402000Y-79735000D03*
G04 #@! TD*
G04 #@! TO.C,L15*
X145242000Y-62435000D03*
X145242000Y-60685000D03*
X140442000Y-62435000D03*
X140442000Y-60685000D03*
G04 #@! TD*
G04 #@! TO.C,L16*
X164292000Y-71960000D03*
X164292000Y-70210000D03*
X159492000Y-71960000D03*
X159492000Y-70210000D03*
G04 #@! TD*
G04 #@! TO.C,L17*
X178542000Y-79735000D03*
X178542000Y-81485000D03*
X183342000Y-79735000D03*
X183342000Y-81485000D03*
G04 #@! TD*
G04 #@! TO.C,L18*
X197592000Y-89260000D03*
X197592000Y-91010000D03*
X202392000Y-89260000D03*
X202392000Y-91010000D03*
G04 #@! TD*
G04 #@! TO.C,L19*
X107142000Y-100535000D03*
X107142000Y-98785000D03*
X102342000Y-100535000D03*
X102342000Y-98785000D03*
G04 #@! TD*
G04 #@! TO.C,L21*
X145242000Y-81485000D03*
X145242000Y-79735000D03*
X140442000Y-81485000D03*
X140442000Y-79735000D03*
G04 #@! TD*
G04 #@! TO.C,L22*
X159267000Y-89058400D03*
X159267000Y-90808400D03*
X164067000Y-89058400D03*
X164067000Y-90808400D03*
G04 #@! TD*
G04 #@! TO.C,L23*
X183342000Y-100535000D03*
X183342000Y-98785000D03*
X178542000Y-100535000D03*
X178542000Y-98785000D03*
G04 #@! TD*
G04 #@! TO.C,L24*
X197592000Y-108310000D03*
X197592000Y-110060000D03*
X202392000Y-108310000D03*
X202392000Y-110060000D03*
G04 #@! TD*
D29*
G04 #@! TO.C,RESET1*
X77470000Y-77470000D03*
X83970000Y-77470000D03*
G04 #@! TD*
D18*
G04 #@! TO.C,Ref2*
X190500000Y-55880000D03*
G04 #@! TD*
D28*
G04 #@! TO.C,J3*
X81915000Y-61729620D03*
X81915000Y-62730380D03*
G04 #@! TD*
M02*
