M48
;DRILL file {KiCad 5.0.2-bee76a0~70~ubuntu18.04.1} date 2019年04月11日 02時53分35秒
;FORMAT={-:-/ absolute / metric / decimal}
FMAT,2
METRIC,TZ
T1C0.400
T2C0.813
T3C1.000
T4C1.300
T5C1.200
T6C1.900
T7C2.200
T8C3.000
T9C4.100
T10C4.800
T11C6.000
%
G90
G05
T1
X78.105Y-65.4
X80.403Y-56.576
X80.62Y-129.421
X81.08Y-39.905
X81.28Y-128.265
X82.55Y-132.075
X83.168Y-61.273
X85.09Y-32.38
X85.169Y-60.901
X85.725Y-42.54
X86.36Y-40.
X89.244Y-44.896
X89.7Y-46.352
X90.09Y-126.722
X90.17Y-128.138
X90.179Y-52.919
X90.578Y-51.562
X90.61Y-58.956
X90.621Y-49.022
X90.76Y-59.772
X92.725Y-130.988
X93.345Y-119.375
X93.345Y-126.995
X95.022Y-126.171
X95.25Y-131.575
X95.25Y-135.125
X96.52Y-113.025
X97.191Y-65.817
X97.262Y-47.967
X97.34Y-123.424
X98.325Y-57.03
X98.42Y-67.731
X99.243Y-80.653
X99.695Y-59.685
X100.33Y-42.54
X100.33Y-61.59
X100.33Y-80.64
X100.33Y-99.69
X100.33Y-118.74
X100.349Y-62.699
X100.37Y-43.688
X100.603Y-120.177
X100.965Y-111.52
X101.828Y-130.993
X104.718Y-108.254
X104.775Y-69.845
X104.775Y-127.63
X106.11Y-92.471
X108.521Y-59.914
X108.773Y-78.998
X108.944Y-131.902
X108.956Y-98.218
X109.162Y-41.264
X109.22Y-42.413
X109.22Y-61.463
X109.22Y-80.513
X109.22Y-99.563
X109.22Y-118.613
X109.522Y-117.362
X109.855Y-35.555
X109.855Y-75.56
X110.279Y-96.736
X110.601Y-99.787
X112.131Y-52.745
X112.395Y-83.815
X112.874Y-78.78
X113.197Y-104.37
X113.25Y-55.37
X113.525Y-79.477
X113.665Y-97.15
X114.3Y-51.565
X114.3Y-55.115
X114.3Y-64.9
X114.3Y-68.45
X114.3Y-83.95
X114.3Y-87.5
X114.3Y-103.
X114.3Y-106.55
X114.3Y-122.05
X114.3Y-125.6
X116.16Y-114.821
X116.319Y-58.095
X116.84Y-51.43
X116.84Y-90.8
X117.475Y-67.305
X117.475Y-105.405
X117.475Y-73.02
X118.638Y-34.507
X118.909Y-53.583
X119.009Y-72.599
X119.244Y-83.298
X119.269Y-49.53
X119.341Y-91.67
X119.38Y-33.015
X119.38Y-52.065
X119.38Y-71.115
X119.38Y-90.165
X119.38Y-109.215
X119.663Y-44.572
X119.675Y-110.624
X119.725Y-101.683
X123.19Y-86.243
X123.825Y-118.105
X124.026Y-122.049
X127.Y-67.94
X127.334Y-55.92
X127.635Y-93.34
X127.775Y-88.5
X127.842Y-50.406
X127.882Y-69.521
X127.948Y-107.679
X128.27Y-32.888
X128.27Y-51.938
X128.27Y-70.988
X128.27Y-90.038
X128.27Y-109.088
X128.905Y-45.715
X128.995Y-31.438
X130.81Y-34.92
X130.81Y-73.02
X130.81Y-83.815
X131.445Y-109.85
X131.821Y-62.576
X132.715Y-88.895
X133.35Y-36.325
X133.35Y-39.875
X133.35Y-48.89
X133.35Y-51.43
X133.35Y-55.375
X133.35Y-58.925
X133.35Y-74.425
X133.35Y-77.975
X133.35Y-108.845
X133.35Y-112.395
X134.214Y-69.915
X134.605Y-100.782
X136.15Y-85.721
X136.525Y-40.
X136.525Y-100.325
X137.16Y-57.145
X137.698Y-24.464
X138.43Y-23.49
X138.43Y-42.54
X138.43Y-61.59
X138.43Y-80.64
X138.43Y-99.69
X138.48Y-101.229
X138.517Y-43.716
X138.957Y-82.253
X138.974Y-63.188
X142.24Y-114.93
X142.875Y-70.48
X144.145Y-76.195
X146.685Y-59.789
X146.685Y-45.08
X146.801Y-98.014
X146.801Y-78.96
X146.857Y-54.548
X147.143Y-55.605
X147.263Y-40.926
X147.32Y-23.363
X147.32Y-42.413
X147.32Y-61.463
X147.32Y-64.13
X147.32Y-80.513
X147.32Y-99.563
X147.829Y-22.585
X148.59Y-100.96
X148.811Y-35.61
X148.875Y-92.373
X149.225Y-41.27
X149.23Y-103.021
X149.86Y-60.32
X150.57Y-53.265
X150.735Y-72.15
X150.926Y-57.593
X151.108Y-33.96
X151.13Y-41.905
X152.4Y-26.8
X152.4Y-30.35
X152.4Y-45.85
X152.4Y-49.4
X152.4Y-64.9
X152.4Y-68.45
X152.4Y-83.95
X152.4Y-87.5
X152.4Y-103.
X152.4Y-106.55
X153.035Y-38.73
X153.035Y-57.145
X153.035Y-95.88
X154.039Y-34.506
X154.105Y-100.866
X154.716Y-96.307
X154.94Y-49.525
X154.94Y-90.165
X155.575Y-65.4
X156.119Y-33.113
X156.21Y-68.575
X156.719Y-53.014
X156.749Y-72.675
X156.755Y-89.616
X157.48Y-33.015
X157.48Y-52.065
X157.48Y-71.115
X157.48Y-90.165
X158.12Y-36.651
X164.904Y-67.551
X165.1Y-86.575
X165.1Y-107.945
X165.735Y-35.555
X165.735Y-55.24
X165.88Y-88.501
X166.024Y-63.675
X166.065Y-83.456
X166.077Y-50.577
X166.114Y-69.63
X166.37Y-32.888
X166.37Y-51.938
X166.37Y-70.988
X166.37Y-90.038
X166.618Y-85.716
X167.139Y-32.11
X167.616Y-82.838
X167.763Y-44.753
X168.91Y-46.985
X169.295Y-43.708
X169.781Y-62.086
X170.077Y-69.888
X170.18Y-57.145
X170.18Y-107.945
X171.45Y-36.325
X171.45Y-39.875
X171.45Y-55.375
X171.45Y-58.925
X171.45Y-74.425
X171.45Y-77.975
X171.45Y-85.72
X171.45Y-93.47
X171.45Y-97.02
X172.085Y-45.715
X172.085Y-102.865
X173.326Y-65.543
X173.355Y-73.655
X173.663Y-47.962
X174.625Y-57.145
X175.26Y-34.285
X175.771Y-62.554
X175.889Y-92.373
X176.274Y-79.714
X176.282Y-100.71
X176.53Y-38.73
X176.53Y-42.54
X176.53Y-61.59
X176.53Y-80.64
X176.53Y-99.69
X176.629Y-43.751
X176.778Y-102.93
X176.975Y-63.24
X177.328Y-92.898
X177.8Y-46.985
X177.8Y-95.578
X178.489Y-112.236
X178.614Y-55.895
X180.033Y-96.301
X180.34Y-50.795
X180.975Y-54.605
X182.228Y-75.64
X182.245Y-57.78
X182.245Y-117.47
X182.951Y-76.883
X184.7Y-40.884
X185.42Y-42.413
X185.42Y-61.463
X185.42Y-80.513
X185.42Y-99.563
X186.025Y-98.009
X186.039Y-79.735
X186.168Y-59.93
X188.608Y-115.06
X188.608Y-118.61
X189.23Y-77.095
X189.23Y-80.645
X189.23Y-92.84
X189.23Y-96.39
X189.865Y-42.675
X189.865Y-46.225
X189.865Y-51.548
X190.5Y-110.485
X190.5Y-115.065
X190.5Y-118.615
X191.77Y-42.675
X191.77Y-46.225
X191.77Y-69.98
X191.77Y-73.53
X191.77Y-89.03
X191.77Y-92.58
X192.544Y-51.474
X194.31Y-106.04
X194.82Y-91.01
X194.855Y-51.494
X194.855Y-108.619
X194.945Y-85.72
X195.052Y-66.67
X195.58Y-52.065
X195.58Y-71.115
X195.58Y-90.165
X195.58Y-109.215
X196.047Y-72.698
X197.592Y-45.715
X198.489Y-83.083
X200.025Y-118.105
X201.249Y-87.496
X203.2Y-104.77
X203.309Y-73.019
X203.835Y-55.24
X203.835Y-85.72
X203.835Y-112.39
X204.145Y-63.675
X204.47Y-51.938
X204.47Y-70.988
X204.47Y-90.038
X204.47Y-92.705
X204.47Y-109.088
X204.472Y-91.124
X204.476Y-53.027
X204.619Y-110.01
X205.105Y-73.655
X206.089Y-111.579
X207.025Y-64.093
X207.025Y-82.828
X207.4Y-100.006
X207.645Y-121.915
X208.28Y-71.115
X208.28Y-90.165
X208.28Y-109.215
T2
X191.77Y-40.64
X191.77Y-48.26
X171.45Y-53.34
X171.45Y-60.96
X189.23Y-90.805
X189.23Y-98.425
X152.4Y-24.765
X152.4Y-32.385
X189.23Y-75.06
X189.23Y-82.68
X171.45Y-91.435
X171.45Y-99.055
X191.77Y-86.995
X191.77Y-94.615
X114.3Y-100.965
X114.3Y-108.585
X152.4Y-62.865
X152.4Y-70.485
X95.25Y-129.54
X95.25Y-137.16
X133.35Y-53.34
X133.35Y-60.96
X114.3Y-81.915
X114.3Y-89.535
X188.608Y-113.025
X188.608Y-120.645
X152.4Y-100.965
X152.4Y-108.585
X114.3Y-120.015
X114.3Y-127.635
X189.865Y-40.64
X189.865Y-48.26
X152.4Y-81.915
X152.4Y-89.535
X171.45Y-72.39
X171.45Y-80.01
X114.3Y-49.53
X114.3Y-57.15
X133.35Y-91.44
X133.35Y-99.06
X133.35Y-34.29
X133.35Y-41.91
X133.35Y-72.39
X133.35Y-80.01
X190.5Y-113.03
X190.5Y-120.65
X152.4Y-43.815
X152.4Y-51.435
X114.3Y-62.865
X114.3Y-70.485
X77.47Y-33.782
X77.47Y-36.322
X77.47Y-38.862
X77.47Y-41.402
X77.47Y-43.942
X77.47Y-46.482
X77.47Y-49.022
X77.47Y-51.562
X77.47Y-54.102
X77.47Y-56.642
X77.47Y-59.182
X77.47Y-61.722
X78.796Y-32.512
X78.796Y-35.052
X78.796Y-37.592
X78.796Y-40.132
X78.796Y-42.672
X78.796Y-45.212
X78.796Y-47.752
X78.796Y-50.292
X78.796Y-52.832
X78.796Y-55.372
X78.796Y-57.912
X78.796Y-60.452
X92.71Y-33.782
X92.71Y-36.322
X92.71Y-38.862
X92.71Y-41.402
X92.71Y-43.942
X92.71Y-46.482
X92.71Y-49.022
X92.71Y-51.562
X92.71Y-54.102
X92.71Y-56.642
X92.71Y-59.182
X92.71Y-61.722
X94.016Y-32.512
X94.016Y-35.052
X94.016Y-37.592
X94.016Y-40.132
X94.016Y-42.672
X94.016Y-45.212
X94.016Y-47.752
X94.016Y-50.292
X94.016Y-52.832
X94.016Y-55.372
X94.016Y-57.912
X94.016Y-60.452
X133.35Y-106.81
X133.35Y-114.43
X81.915Y-65.405
X84.455Y-65.405
X86.995Y-65.405
X89.535Y-65.405
X171.45Y-34.29
X171.45Y-41.91
X191.77Y-67.945
X191.77Y-75.565
T4
X77.47Y-77.47
X83.97Y-77.47
T5
X77.75Y-70.485
X77.75Y-72.235
X84.75Y-70.485
X84.75Y-72.235
T6
X156.845Y-57.15
X167.005Y-57.15
X137.795Y-47.625
X147.955Y-47.625
X99.695Y-104.775
X109.855Y-104.775
X175.895Y-104.77
X186.055Y-104.77
X156.845Y-38.1
X167.005Y-38.1
X194.945Y-95.25
X205.105Y-95.25
X156.845Y-76.195
X167.005Y-76.195
X137.795Y-66.675
X147.955Y-66.675
X118.745Y-76.2
X128.905Y-76.2
X194.945Y-57.15
X205.105Y-57.15
X137.795Y-28.575
X147.955Y-28.575
X80.645Y-133.35
X90.805Y-133.35
X118.745Y-38.1
X128.905Y-38.1
X137.795Y-85.725
X147.955Y-85.725
X137.795Y-104.775
X147.955Y-104.775
X194.945Y-76.165
X205.105Y-76.165
X175.895Y-47.625
X186.055Y-47.625
X118.745Y-95.25
X128.905Y-95.25
X99.695Y-85.725
X109.855Y-85.725
X118.745Y-114.3
X128.905Y-114.3
X99.695Y-123.825
X109.855Y-123.825
X99.695Y-66.675
X109.855Y-66.675
X99.695Y-47.625
X109.855Y-47.625
X194.945Y-114.295
X205.105Y-114.295
X118.745Y-57.15
X128.905Y-57.15
X156.845Y-95.245
X167.005Y-95.245
X175.895Y-85.72
X186.055Y-85.72
X175.895Y-66.675
X186.055Y-66.675
T7
X78.615Y-81.585
X92.365Y-81.585
T8
X196.215Y-78.705
X197.485Y-81.245
X202.565Y-81.245
X203.835Y-78.705
X177.165Y-50.165
X178.435Y-52.705
X183.515Y-52.705
X184.785Y-50.165
X120.015Y-97.79
X121.285Y-100.33
X126.365Y-100.33
X127.635Y-97.79
X100.965Y-88.265
X102.235Y-90.805
X107.315Y-90.805
X108.585Y-88.265
X120.015Y-116.84
X121.285Y-119.38
X126.365Y-119.38
X127.635Y-116.84
X100.965Y-126.365
X102.235Y-128.905
X107.315Y-128.905
X108.585Y-126.365
X100.965Y-69.215
X102.235Y-71.755
X107.315Y-71.755
X108.585Y-69.215
X100.965Y-50.165
X102.235Y-52.705
X107.315Y-52.705
X108.585Y-50.165
X196.215Y-116.835
X197.485Y-119.375
X202.565Y-119.375
X203.835Y-116.835
X120.015Y-59.69
X121.285Y-62.23
X126.365Y-62.23
X127.635Y-59.69
X158.115Y-97.785
X159.385Y-100.325
X164.465Y-100.325
X165.735Y-97.785
X177.165Y-88.26
X178.435Y-90.8
X183.515Y-90.8
X184.785Y-88.26
X177.165Y-69.215
X178.435Y-71.755
X183.515Y-71.755
X184.785Y-69.215
X158.115Y-59.69
X159.385Y-62.23
X164.465Y-62.23
X165.735Y-59.69
X139.065Y-50.165
X140.335Y-52.705
X145.415Y-52.705
X146.685Y-50.165
X100.965Y-107.315
X102.235Y-109.855
X107.315Y-109.855
X108.585Y-107.315
X177.165Y-107.31
X178.435Y-109.85
X183.515Y-109.85
X184.785Y-107.31
X158.115Y-40.64
X159.385Y-43.18
X164.465Y-43.18
X165.735Y-40.64
X196.215Y-97.79
X197.485Y-100.33
X202.565Y-100.33
X203.835Y-97.79
X158.115Y-78.735
X159.385Y-81.275
X164.465Y-81.275
X165.735Y-78.735
X139.065Y-69.215
X140.335Y-71.755
X145.415Y-71.755
X146.685Y-69.215
X120.015Y-78.74
X121.285Y-81.28
X126.365Y-81.28
X127.635Y-78.74
X196.215Y-59.69
X197.485Y-62.23
X202.565Y-62.23
X203.835Y-59.69
X139.065Y-31.115
X140.335Y-33.655
X145.415Y-33.655
X146.685Y-31.115
X81.915Y-135.89
X83.185Y-138.43
X88.265Y-138.43
X89.535Y-135.89
X120.015Y-40.64
X121.285Y-43.18
X126.365Y-43.18
X127.635Y-40.64
X139.065Y-88.265
X140.335Y-90.805
X145.415Y-90.805
X146.685Y-88.265
X139.065Y-107.315
X140.335Y-109.855
X145.415Y-109.855
X146.685Y-107.315
T9
X142.875Y-66.675
X123.825Y-76.2
X200.025Y-57.15
X142.875Y-28.575
X85.725Y-133.35
X123.825Y-38.1
X142.875Y-85.725
X142.875Y-104.775
X200.025Y-76.165
X180.975Y-47.625
X123.825Y-95.25
X104.775Y-85.725
X123.825Y-114.3
X104.775Y-123.825
X104.775Y-66.675
X104.775Y-47.625
X200.025Y-114.295
X123.825Y-57.15
X161.925Y-95.245
X180.975Y-85.72
X180.975Y-66.675
X161.925Y-57.15
X142.875Y-47.625
X104.775Y-104.775
X180.975Y-104.77
X161.925Y-38.1
X200.025Y-95.25
X161.925Y-76.195
T10
X156.21Y-24.765
X114.3Y-45.72
X190.5Y-103.505
X136.525Y-118.11
X190.5Y-55.88
X80.01Y-120.015
T11
X89.25Y-118.1
X102.25Y-33.1
X204.25Y-43.1
T3
X79.3Y-68.385G85X79.8Y-68.385
G05
X79.3Y-74.335G85X79.8Y-74.335
G05
X82.3Y-68.385G85X82.8Y-68.385
G05
X82.3Y-74.335G85X82.8Y-74.335
G05
X86.3Y-68.385G85X86.8Y-68.385
G05
X86.3Y-74.335G85X86.8Y-74.335
G05
X87.8Y-70.135G85X88.3Y-70.135
G05
X87.8Y-72.585G85X88.3Y-72.585
G05
T0
M30
